<ttFont>
          <CharString index="0">
            rmoveto
            -55 -30 -58 -65 -91 93 callgsubr
            221 hlineto
            return
          </CharString>
          <CharString index="1">
            hhcurveto
            -47 -41 -105 callgsubr
            return
          </CharString>
          <CharString index="2">
            -98 callgsubr
            391 -304 hlineto
            -58 -30 -45 -49 -67 hhcurveto
            -64 -55 56 65 169 callgsubr
            -74 callgsubr
            return
          </CharString>
          <CharString index="3">
            -98 callgsubr
            194 -227 hlineto
            91 callsubr
            return
          </CharString>
          <CharString index="4">
            hhcurveto
            183 callgsubr
            hvcurveto
            -95 callsubr
          </CharString>
          <CharString index="5">
            150 callgsubr
            -23 vhcurveto
            -35 -32 74 -111 86 -105 103 267 callsubr
            -79 85 -81 95 -36 54 rlinecurve
            return
          </CharString>
          <CharString index="6">
            -28 callsubr
            212 -180 rmoveto
            -3 -14 -12 -3 -11 hhcurveto
            -22 -9 14 40 hvcurveto
            237 vlineto
            85 -47 51 -81 -60 -59 -22 -39 -47 vhcurveto
            13 -20 rlineto
            15 43 43 9 42 hhcurveto
            59 21 -29 -58 hvcurveto
            -44 vlineto
            -95 -21 rlineto
            -103 -23 -49 -44 -80 vvcurveto
            -68 52 -55 81 48 40 24 31 28 vhcurveto
            -36 8 29 -19 33 hhcurveto
            31 26 21 24 18 hvcurveto
            endchar
          </CharString>
          <CharString index="7">
            rmoveto
            86 264 10 43 100 -307 rlineto
            -51 382 rmoveto
            -22 -27 -3 -6 -16 hvcurveto
            -178 -531 -10 -28 -18 -20 -47 -7 rlinecurve
            139 callsubr
            184 250 callsubr
            10 10 vvcurveto
            -26 1 -25 4 -24 11 53 161 rcurveline
            219 hlineto
            50 -155 -20 -12 -24 -6 -26 -4 rlinecurve
            -3 -9 -1 -10 -10 vvcurveto
            214 hlineto
            3 9 1 10 1 10 -45 3 -25 13 -12 40 rrcurveto
            endchar
          </CharString>
          <CharString index="8">
            -60 callsubr
            endchar
          </CharString>
          <CharString index="9">
            -71 callsubr
            68 26 63 83 23 137 callsubr
            -348 -29 callsubr
          </CharString>
          <CharString index="10">
            rmoveto
            257 vlineto
            164 -4 rlineto
            30 48 -30 hlineto
            -164 -7 rlineto
            249 159 vlineto
            69 13 -33 -69 6 hvcurveto
            8 14 0 2 6 hvcurveto
            5 43 1 46 -2 44 rrcurveto
            -417 hlineto
            245 callsubr
            24 -3 22 -11 rrcurveto
            -491 vlineto
            -33 -17 -9 -46 -6 vhcurveto
            -3 204 callsubr
            432 hlineto
            -34 callsubr
            endchar
          </CharString>
          <CharString index="11">
            -51 callgsubr
            170 102 -34 vhcurveto
            -39 -23 rlineto
            -125 42 71 108 callgsubr
            78 122 callsubr
            56 -50 44 hvcurveto
            return
          </CharString>
          <CharString index="12">
            -2 -196 -92 callsubr
          </CharString>
          <CharString index="13">
            0 callgsubr
            -203 65 callsubr
            24 -2 21 216 callgsubr
            -491 vlineto
            -33 -17 -9 -46 -6 vhcurveto
            -3 204 callsubr
            202 151 callsubr
            -20 3 -24 11 rrcurveto
            return
          </CharString>
          <CharString index="14">
            94 -132 44 32 -104 123 rlineto
            27 23 17 28 22 vvcurveto
            34 -39 60 -38 -36 -35 -27 -33 -22 13 -25 16 -24 vhcurveto
            0 -27 -28 -59 -75 -75 70 82 100 60 39 102 vhcurveto
            return
          </CharString>
          <CharString index="15">
            72 -93 callgsubr
          </CharString>
          <CharString index="16">
            -67 37 callsubr
            60 89 callgsubr
            68 -72 87 -87 -63 -50 -47 -52 -38 18 -35 42 -38 vhcurveto
            30 23 rlineto
            -19 16 -14 25 20 vvcurveto
            41 36 32 48 42 32 -35 -37 return
          </CharString>
          <CharString index="17">
            121 callsubr
            -78 callgsubr
            -20 3 -24 10 rrcurveto
            return
          </CharString>
          <CharString index="18">
            -86 callsubr
            -13 -6 return
          </CharString>
          <CharString index="19">
            16 22 25 177 callsubr
            31 -24 -21 20 hvcurveto
            23 34 rlineto
            26 -26 -47 44 -74 hhcurveto
            -81 -89 -69 -106 49 callsubr
            return
          </CharString>
          <CharString index="20">
            39 callsubr
            -227 hlineto
            -72 callsubr
            return
          </CharString>
          <CharString index="21">
            44 -24 27 -78 callsubr
            return
          </CharString>
          <CharString index="22">
            251 callgsubr
            -43 callsubr
            40 79 vhcurveto
            return
          </CharString>
          <CharString index="23">
            rmoveto
            -2 -6 -2 -13 220 callsubr
            29 -3 23 -10 rrcurveto
            -436 vlineto
            -80 120 -257 359 rlineto
            -137 hlineto
            -2 -7 -1 -11 -10 vvcurveto
            25 -1 22 -3 21 -10 rrcurveto
            -487 vlineto
            -32 -23 -15 -46 -6 vhcurveto
            -2 204 callsubr
            188 151 callsubr
            -29 4 -23 10 rrcurveto
            491 vlineto
            50 -76 327 -459 rlineto
            32 529 hlineto
            32 23 17 46 5 vhcurveto
            3 8 0 13 7 vvcurveto
            endchar
          </CharString>
          <CharString index="24">
            48 30 -25 -21 -21 callsubr
            -27 -47 46 -75 hhcurveto
            return
          </CharString>
          <CharString index="25">
            rmoveto
            122 -2 42 80 91 hhcurveto
            91 46 -80 -122 2 hvcurveto
            -121 3 -42 -76 -91 hhcurveto
            -91 -46 76 121 -3 hvcurveto
            348 hmoveto
            145 -82 95 -130 -127 -86 -96 -144 -142 77 -97 135 127 86 97 142 vhcurveto
            return
          </CharString>
          <CharString index="26">
            -33 254 callgsubr
            42 14 268 callgsubr
            return
          </CharString>
          <CharString index="27">
            -23 -33 -23 hvcurveto
            29 -26 -48 29 -53 hhcurveto
            return
          </CharString>
          <CharString index="28">
            rmoveto
            258 81 vlineto
            99 37 -54 -76 -76 -37 -52 -99 hvcurveto
            141 -82 rmoveto
            -14 26 -13 19 -22 11 rrcurveto
            83 21 40 58 75 vvcurveto
            95 -65 68 -133 vhcurveto
            -236 hlineto
            113 callsubr
            22 -5 23 -10 rrcurveto
            -490 vlineto
            -33 -17 -9 -46 -6 vhcurveto
            -3 204 callsubr
            217 hlineto
            2 8 1 11 -1 10 -30 2 -25 7 -26 11 rrcurveto
            236 65 vlineto
            50 13 -19 -31 16 hvcurveto
            119 -235 rlineto
            116 hlineto
            2 10 1 10 9 vvcurveto
            -39 -17 12 43 -23 hvcurveto
            endchar
          </CharString>
          <CharString index="29">
            -39 -29 vvcurveto
            -28 -25 -31 -122 -62 vhcurveto
            return
          </CharString>
          <CharString index="30">
            rmoveto
            80 callgsubr
            -23 -18 -19 -25 -24 18 -19 23 hvcurveto
            -132 hmoveto
            80 callgsubr
            -24 -18 -19 -25 -24 18 -19 24 hvcurveto
            return
          </CharString>
          <CharString index="31">
            hlineto
            41 -60 rlineto
            return
          </CharString>
          <CharString index="32">
            rmoveto
            8 16 17 3 16 hhcurveto
            81 59 -97 -47 35 hvcurveto
            33 24 rlineto
            74 -55 -71 109 -102 hhcurveto
            -25 -23 -7 -13 -20 hvcurveto
            return
          </CharString>
          <CharString index="33">
            239 callgsubr
            62 hhcurveto
            80 39 -75 -60 -75 -50 -27 -58 -24 -23 4 7 -24 hvcurveto
            21 -64 rlineto
            -7 22 26 -4 21 hhcurveto
            83 63 51 86 102 -90 128 -112 -47 -47 -32 -36 -25 hvcurveto
            1 8 5 163 6 vvcurveto
            return
          </CharString>
          <CharString index="34">
            61 callgsubr
            hvcurveto
            -4 -166 -62 callsubr
          </CharString>
          <CharString index="35">
            -31 -35 -3 -25 -43 70 -77 40 22 5 19 35 hvcurveto
            321 return
          </CharString>
          <CharString index="36">
            -81 69 -85 80 callsubr
            48 -55 callgsubr
            return
          </CharString>
          <CharString index="37">
            51 53 37 41 hhcurveto
            33 26 -24 -34 -82 -118 -42 -81 4 hvcurveto
            51 -39 -39 48 -24 hhcurveto
            -26 -24 -15 -21 -47 71 -53 67 -18 hvcurveto
            154 -185 47 32 -143 148 rlineto
            84 5 123 57 94 vvcurveto
            24 -12 32 -21 26 vhcurveto
            return
          </CharString>
          <CharString index="38">
            -76 callgsubr
            -33 callsubr
            endchar
          </CharString>
          <CharString index="39">
            -16 callsubr
            67 58 -52 -67 -45 -19 -38 -14 -16 vhcurveto
            return
          </CharString>
          <CharString index="40">
            -38 callsubr
            -33 -27 rlineto
            -93 59 93 -65 93 hhcurveto
            120 70 79 74 236 callgsubr
            hvcurveto
            -44 -63 -41 -44 hhcurveto
            -39 -29 38 42 55 33 27 58 hvcurveto
            endchar
          </CharString>
          <CharString index="41">
            113 callgsubr
            45 79 vhcurveto
            147 -333 hlineto
            -31 callgsubr
          </CharString>
          <CharString index="42">
            rmoveto
            -301 -98 callgsubr
            76 -264 hlineto
            -49 -33 -90 -78 -79 -61 callsubr
            return
          </CharString>
          <CharString index="43">
            rmoveto
            231 callgsubr
            -47 callgsubr
            return
          </CharString>
          <CharString index="44">
            rmoveto
            56 -56 57 56 -58 56 rlineto
            return
          </CharString>
          <CharString index="45">
            72 -62 -99 callsubr
          </CharString>
          <CharString index="46">
            hhcurveto
            -53 -91 callsubr
            return
          </CharString>
          <CharString index="47">
            rlineto
            -49 callgsubr
            return
          </CharString>
          <CharString index="48">
            -84 hlineto
            -66 -11 -36 -63 -67 vvcurveto
            -88 54 -64 64 -54 vhcurveto
            -49 -53 -70 -31 -74 hhcurveto
            -84 -52 42 55 64 57 13 48 203 callsubr
            -25 66 rlineto
            4 -17 -21 1 -20 hhcurveto
            -23 -22 -3 -5 -22 hvcurveto
            -24 19 -27 26 30 205 callsubr
            26 -2 -4 26 vhcurveto
            -23 64 rlineto
            5 -25 -27 3 -25 hhcurveto
            -85 -70 -34 -78 return
          </CharString>
          <CharString index="49">
            rrcurveto
            -2 -9 -2 -10 -8 3 callsubr
            -317 -90 callsubr
            return
          </CharString>
          <CharString index="50">
            57 -48 callgsubr
            return
          </CharString>
          <CharString index="51">
            2 14 13 2 11 hhcurveto
            37 21 -14 -26 -33 -26 -19 -47 -32 -27 7 15 -33 hvcurveto
            -15 -19 rlineto
            -20 39 28 -10 49 hhcurveto
            76 45 40 45 33 -25 28 -58 hvcurveto
            return
          </CharString>
          <CharString index="52">
            rmoveto
            501 vlineto
            33 18 9 44 5 vhcurveto
            3 8 1 13 -1 7 rrcurveto
            -202 173 callgsubr
            -2 22 216 callgsubr
            -491 66 callsubr
            439 hlineto
            3 45 -2 45 -5 44 rrcurveto
            1 -6 -12 0 -8 hhcurveto
            -68 -6 -13 -32 -68 hhcurveto
            endchar
          </CharString>
          <CharString index="53">
            176 rmoveto
            54 callsubr
            -47 -21 -38 -13 -14 vhcurveto
            -347 391 rmoveto
            376 hlineto
            -47 callsubr
            return
          </CharString>
          <CharString index="54">
            hhcurveto
            -41 -48 24 28 -33 hvcurveto
            return
          </CharString>
          <CharString index="55">
            vvcurveto
            64 callsubr
            vhcurveto
            -4 -166 -62 callsubr
          </CharString>
          <CharString index="56">
            rmoveto
            268 376 6 13 -2 18 -3 11 rlinecurve
            -335 hlineto
            -7 -44 -3 -43 -42 vvcurveto
            -4 7 8 -2 6 hhcurveto
            72 12 22 27 67 hhcurveto
            141 hlineto
            -274 -379 -4 -13 -1 -15 3 -12 rlinecurve
            350 hlineto
            7 45 4 42 -1 43 rrcurveto
            3 -7 -7 1 -7 hhcurveto
            -72 -12 -22 -25 -67 hhcurveto
            endchar
          </CharString>
          <CharString index="57">
            rmoveto
            345 537 rlineto
            13 -1 12 -4 9 vhcurveto
            -397 hlineto
            -7 -41 -3 -45 -40 vvcurveto
            -3 7 8 -2 6 hhcurveto
            68 11 21 25 62 hhcurveto
            214 hlineto
            -347 -538 rlineto
            -14 3 -12 5 -9 vhcurveto
            412 hlineto
            7 43 2 44 40 vvcurveto
            3 -5 -8 1 -7 hhcurveto
            -68 -10 -21 -23 -63 hhcurveto
            endchar
          </CharString>
          <CharString index="58">
            -98 callgsubr
            90 -199 hlineto
            -49 22 -60 51 -45 vhcurveto
            -44 52 42 -11 33 hhcurveto
            77 52 56 81 hvcurveto
            271 return
          </CharString>
          <CharString index="59">
            rmoveto
            10 vlineto
            -14 14 -28 15 -22 3 -109 -166 rcurveline
            21 -13 rlineto
            return
          </CharString>
          <CharString index="60">
            144 callsubr
            -59 -92 callgsubr
            return
          </CharString>
          <CharString index="61">
            46 34 -105 123 rlineto
            25 22 17 26 22 -8 callsubr
            -77 -74 56 88 100 64 31 101 vhcurveto
            return
          </CharString>
          <CharString index="62">
            35 25 rlineto
            262 callsubr
            return
          </CharString>
          <CharString index="63">
            -17 19 -121 -91 -119 91 -19 -19 109 -122 rlineto
            return
          </CharString>
          <CharString index="64">
            -45 callsubr
            42 return
          </CharString>
          <CharString index="65">
            69 -55 89 81 vvcurveto
            72 return
          </CharString>
          <CharString index="66">
            rmoveto
            40 28 28 38 50 vvcurveto
            49 -30 22 -22 -20 -16 -13 -21 vhcurveto
            -34 37 -10 -34 vvcurveto
            -24 -11 -17 -24 -19 vhcurveto
            return
          </CharString>
          <CharString index="67">
            rmoveto
            -601 -76 callsubr
            358 249 callgsubr
            -121 -58 -79 -90 -151 133 -112 133 83 89 57 77 83 -70 56 -64 -68 -43 -54 -61 -47 26 -38 15 -16 hvcurveto
            68 callgsubr
            136 187 170 hlineto
            -282 -424 rmoveto
            47 31 41 49 88 callsubr
            vhcurveto
            167 callgsubr
            return
          </CharString>
          <CharString index="68">
            56 callgsubr
            -17 callsubr
          </CharString>
          <CharString index="69">
            53 56 40 35 hhcurveto
            42 17 -31 -28 -63 -66 -60 -95 -72 -69 56 72 -48 hvcurveto
            return
          </CharString>
          <CharString index="70">
            -59 callsubr
            -51 40 -41 36 -27 hvcurveto
            return
          </CharString>
          <CharString index="71">
            rmoveto
            -93 59 93 -65 93 hhcurveto
            120 70 79 74 236 callgsubr
            hvcurveto
            -44 -63 -41 -44 hhcurveto
            -39 -29 38 42 55 33 27 58 hvcurveto
            205 176 154 hlineto
            -37 callgsubr
            return
          </CharString>
          <CharString index="72">
            -98 callgsubr
            99 -193 hlineto
            -103 2 115 -105 81 hhcurveto
            return
          </CharString>
          <CharString index="73">
            2 46 -1 45 -3 45 rrcurveto
            2 -7 -14 0 -9 hhcurveto
            -70 -7 -13 -33 -69 hhcurveto
            return
          </CharString>
          <CharString index="74">
            27 35 10 20 26 hvcurveto
            -2 -250 70 -51 -60 callsubr
            return
          </CharString>
          <CharString index="75">
            -98 callgsubr
            218 150 callgsubr
            -22 vhcurveto
            -36 -32 74 -111 88 -106 102 267 callsubr
            -80 85 -83 96 -36 54 rlinecurve
            return
          </CharString>
          <CharString index="76">
            rmoveto
            -1308 -98 callgsubr
            1083 278 callgsubr
            83 callgsubr
            -96 -55 141 100 -35 vhcurveto
            28 -24 -47 35 -60 -106 callgsubr
            26 64 82 40 19 -25 -10 7 vhcurveto
            -120 43 70 -149 130 hhcurveto
            79 44 56 67 58 -27 56 -50 69 callsubr
          </CharString>
          <CharString index="77">
            52 32 rcurveline
            -79 85 -81 95 -36 54 return
          </CharString>
          <CharString index="78">
            vlineto
            -92 callsubr
          </CharString>
          <CharString index="79">
            rmoveto
            -163 vlineto
            -29 -27 -30 -10 -35 36 callgsubr
            return
          </CharString>
          <CharString index="80">
            rmoveto
            141 callgsubr
            -84 -46 129 86 -32 vhcurveto
            52 -37 -44 38 -55 hhcurveto
            -50 -30 -23 -30 -28 hvcurveto
            2 195 rlineto
            689 hlineto
            -759 -247 -79 callgsubr
            945 60 rmoveto
            -1369 -80 callgsubr
            43 28 52 hhcurveto
            36 25 -25 -32 18 hvcurveto
            -118 42 61 -129 118 hhcurveto
            79 43 240 callgsubr
            72 90 callgsubr
          </CharString>
          <CharString index="81">
            hhcurveto
            -63 -53 -36 -67 -49 34 -37 29 -15 hvcurveto
            33 20 rlineto
            -18 10 -17 20 28 vvcurveto
            48 36 21 42 93 52 -99 -91 43 vhcurveto
            -184 hlineto
            42 -60 rlineto
            138 202 callsubr
            179 vlineto
            return
          </CharString>
          <CharString index="82">
            rmoveto
            -16 22 -14 11 -23 4 204 208 rcurveline
            28 27 27 11 43 hhcurveto
            3 9 0 9 10 vvcurveto
            -198 hlineto
            -4 -7 268 callsubr
            23 -1 22 -4 20 -11 -242 -252 rcurveline
            221 vlineto
            -94 callsubr
            215 vlineto
            28 29 14 -2 8 -5 9 -13 rlinecurve
            197 -268 rlineto
            120 hlineto
            4 10 1 11 9 vvcurveto
            -45 3 -22 9 -33 45 rrcurveto
            endchar
          </CharString>
          <CharString index="83">
            rmoveto
            15 -27 -28 9 -37 hhcurveto
            -67 -57 -42 -81 -45 20 -52 35 -37 hvcurveto
            -408 -76 callsubr
            363 -110 -157 hlineto
            -71 -58 -45 -66 -88 85 -86 62 hvcurveto
            59 51 38 39 hhcurveto
            33 25 -25 -34 -82 -133 -46 -69 6 hvcurveto
            52 -39 -39 48 -25 hhcurveto
            -25 -24 -16 -21 -46 72 -53 67 -19 hvcurveto
            151 -182 47 32 -141 146 rlineto
            86 4 124 58 95 vvcurveto
            60 -64 84 -73 vhcurveto
            -43 -57 -38 -49 hhcurveto
            -40 -26 33 44 56 47 24 47 hvcurveto
            208 177 167 hlineto
            -39 60 rlineto
            -141 hlineto
            -32 28 -19 38 40 vvcurveto
            70 45 30 247 callgsubr
            14 vhcurveto
            endchar
          </CharString>
          <CharString index="84">
            -106 callgsubr
            26 64 82 27 return
          </CharString>
          <CharString index="85">
            320 -79 callgsubr
            return
          </CharString>
          <CharString index="86">
            19 hvcurveto
            22 34 rlineto
            28 return
          </CharString>
          <CharString index="87">
            hhcurveto
            -79 -43 61 60 72 50 69 86 46 33 -24 -22 -21 callsubr
            -27 -46 46 -75 hhcurveto
            -86 -84 -67 -109 return
          </CharString>
          <CharString index="88">
            vvcurveto
            -131 138 -122 127 72 60 36 37 32 vhcurveto
            1 callgsubr
          </CharString>
          <CharString index="89">
            -27 -46 -41 -15 -55 hhcurveto
            -85 -58 75 114 128 60 74 88 63 48 -38 -65 hvcurveto
            6 -1 8 -1 7 -1 rrcurveto
            5 31 4 48 29 vvcurveto
            25 -35 -50 14 -50 hhcurveto
            -135 -97 -98 -150 return
          </CharString>
          <CharString index="90">
            35 25 rlineto
            -66 callsubr
          </CharString>
          <CharString index="91">
            rmoveto
            -38 callgsubr
            return
          </CharString>
          <CharString index="92">
            84 callgsubr
            -1 return
          </CharString>
          <CharString index="93">
            -206 -191 rcurveline
            24 callgsubr
            endchar
          </CharString>
          <CharString index="94">
            -50 -7 -44 -12 -44 -18 101 callgsubr
            -10 184 callsubr
            1 21 -2 rrcurveto
            return
          </CharString>
          <CharString index="95">
            -48 rmoveto
            -94 callgsubr
            418 hlineto
            52 callsubr
            rlineto
            return
          </CharString>
          <CharString index="96">
            rmoveto
            -55 -35 -20 -56 -58 -35 20 55 vhcurveto
            -24 hlineto
            -2 -9 0 -8 -10 vvcurveto
            -55 38 -51 81 81 37 51 55 10 0 8 -3 9 vhcurveto
            return
          </CharString>
          <CharString index="97">
            hhcurveto
            44 45 31 19 21 hvcurveto
            -7 -223 -31 callgsubr
          </CharString>
          <CharString index="98">
            56 65 80 56 38 64 19 21 -3 -7 21 hvcurveto
            -21 62 rlineto
            10 -24 -24 4 return
          </CharString>
          <CharString index="99">
            vvcurveto
            34 -40 60 -38 -36 -35 -27 -33 -22 13 -25 16 -24 vhcurveto
            0 -26 -28 -59 return
          </CharString>
          <CharString index="100">
            rmoveto
            -94 callsubr
            endchar
          </CharString>
          <CharString index="101">
            53 -38 284 272 -4 -227 73 -47 184 callgsubr
            63 34 59 29 54 hhcurveto
            68 48 -62 -65 -76 -51 -35 -67 -17 -19 2 5 -21 hvcurveto
            23 -65 rlineto
            -3 18 17 -2 17 hhcurveto
            89 70 53 98 101 -109 112 -92 30 callgsubr
            return
          </CharString>
          <CharString index="102">
            vvcurveto
            -85 126 -125 104 183 callgsubr
            vhcurveto
            -95 callsubr
          </CharString>
          <CharString index="103">
            627 rmoveto
            return
          </CharString>
          <CharString index="104">
            -91 callgsubr
            -6 1 return
          </CharString>
          <CharString index="105">
            246 28 -8 rmoveto
            -6 callsubr
            3 194 rlineto
            404 159 callsubr
            -856 -76 callsubr
            93 -173 hlineto
            -97 98 -102 82 -3 vhcurveto
            -19 56 -7 callgsubr
            return
          </CharString>
          <CharString index="106">
            -33 -18 -9 -45 -6 vhcurveto
            -3 204 callsubr
            return
          </CharString>
          <CharString index="107">
            79 -2 18 49 46 hhcurveto
            45 20 -49 -79 2 hvcurveto
            -78 1 -18 -49 -45 hhcurveto
            -47 -19 48 79 -1 hvcurveto
            197 hmoveto
            95 -54 65 -79 -79 -54 -65 -95 -95 54 -63 79 79 54 63 95 vhcurveto
            -107 465 rmoveto
            -400 -611 rlineto
            49 hlineto
            401 611 rlineto
            -440 -147 rmoveto
            78 -1 17 50 47 hhcurveto
            45 20 -49 -79 2 hvcurveto
            -78 1 -18 -49 -46 hhcurveto
            -46 -19 48 79 -2 hvcurveto
            198 hmoveto
            94 -59 66 -74 -75 -58 -66 -94 -95 58 -64 75 74 59 64 95 vhcurveto
            endchar
          </CharString>
          <CharString index="108">
            1 9 -1 9 -1 8 rrcurveto
            -25 -19 1 1 -21 hvcurveto
            endchar
          </CharString>
          <CharString index="109">
            -124 -61 -82 -95 -131 138 -122 127 72 60 36 37 32 hvcurveto
            -46 callgsubr
            return
          </CharString>
          <CharString index="110">
            184 callsubr
            -1 21 -1 rrcurveto
            return
          </CharString>
          <CharString index="111">
            185 callsubr
            63 hhcurveto
            59 26 -34 -41 24 hvcurveto
            29 31 rlineto
            61 -36 -61 49 -68 hhcurveto
            -82 callgsubr
            232 -26 callgsubr
            -694 -98 callgsubr
            390 -317 hlineto
            -6 -7 -83 -88 -55 hhcurveto
            -60 -56 57 64 169 callgsubr
            -88 79 -109 83 -13 hvcurveto
            endchar
          </CharString>
          <CharString index="112">
            -19 -15 -36 -29 vvcurveto
            -42 26 -49 49 -30 vhcurveto
            -43 -18 -30 -31 -50 vvcurveto
            return
          </CharString>
          <CharString index="113">
            -81 -46 -48 -66 -92 83 -80 63 hvcurveto
            -38 callsubr
            return
          </CharString>
          <CharString index="114">
            -98 callgsubr
            729 -304 hlineto
            -102 callgsubr
            -22 62 rlineto
            10 -23 -24 4 -24 hhcurveto
            -50 -47 -21 -39 -28 hvcurveto
            -188 -85 callsubr
            143 -11 hlineto
            252 callsubr
            vhcurveto
            222 callsubr
            return
          </CharString>
          <CharString index="115">
            rmoveto
            -33 -7 -17 -13 -21 -33 -26 49 -45 hhcurveto
            -53 -21 -47 -53 -8 hvcurveto
            28 hlineto
            32 7 17 13 21 33 24 -49 48 hhcurveto
            53 20 47 54 8 hvcurveto
            return
          </CharString>
          <CharString index="116">
            -98 callgsubr
            57 hlineto
            75 20 callgsubr
            return
          </CharString>
          <CharString index="117">
            260 375 -5 rmoveto
            54 -37 224 244 -1 -202 -34 callgsubr
            -40 60 rlineto
            -876 -98 callgsubr
            651 hlineto
            1 -233 rlineto
            48 -45 -71 45 -100 hhcurveto
            -184 hlineto
            -6 -10 rlineto
            52 -52 68 -63 -69 vvcurveto
            -57 -35 -32 -55 -105 -56 170 101 -33 vhcurveto
            -40 -23 rlineto
            -124 42 71 108 callgsubr
            79 43 269 callsubr
            99 82 -39 -52 31 hvcurveto
            return
          </CharString>
          <CharString index="118">
            rmoveto
            -20 -29 -28 -11 -25 hhcurveto
            -47 callgsubr
            460 255 rmoveto
            return
          </CharString>
          <CharString index="119">
            -1 callsubr
            227 hlineto
            179 126 109 198 196 -128 108 -181 hvcurveto
            endchar
          </CharString>
          <CharString index="120">
            rmoveto
            -93 60 93 -67 93 hhcurveto
            119 71 79 75 59 -57 90 -72 hvcurveto
            -44 -63 -41 -44 hhcurveto
            -40 -28 37 42 55 33 27 58 hvcurveto
            205 176 226 hlineto
            -39 60 rlineto
            -680 -76 callsubr
            382 -110 -153 hlineto
            -81 -45 -50 -66 -92 82 -80 63 hvcurveto
            53 56 40 35 hhcurveto
            42 17 -31 -28 -63 -65 -60 -96 -71 -70 56 72 -47 hvcurveto
            397 147 -63 callsubr
            endchar
          </CharString>
          <CharString index="121">
            4 -17 -21 1 -20 hhcurveto
            -23 -22 -3 -5 -22 hvcurveto
            -24 19 -27 26 30 205 callsubr
            26 -2 -4 26 vhcurveto
            -23 64 rlineto
            5 -25 -27 3 -25 hhcurveto
            -85 -70 -34 -78 -51 40 -41 36 189 callsubr
            59 vhcurveto
            -16 callgsubr
            return
          </CharString>
          <CharString index="122">
            310 21 callgsubr
            return
          </CharString>
          <CharString index="123">
            156 78 -110 -161 -164 -78 -108 -154 hvcurveto
            -219 576 rmoveto
            113 callsubr
            22 -4 23 -9 rrcurveto
            return
          </CharString>
          <CharString index="124">
            rmoveto
            53 -38 285 272 -5 -227 73 -47 184 callgsubr
            64 34 61 28 52 hhcurveto
            46 34 -26 -38 20 hvcurveto
            35 27 rlineto
            57 -40 -63 43 -58 106 callgsubr
            3 194 rlineto
            227 -26 callgsubr
            -680 -76 callsubr
            93 -173 hlineto
            -96 98 -104 82 -2 164 callgsubr
          </CharString>
          <CharString index="125">
            rmoveto
            5 14 15 2 13 hhcurveto
            92 63 -167 -67 25 238 callgsubr
            44 -54 rlineto
            10 20 21 5 19 hhcurveto
            86 78 -77 -63 34 hvcurveto
            52 18 rlineto
            -13 40 -13 42 46 vvcurveto
            70 42 33 57 14 13 180 callgsubr
            -27 10 -35 hhcurveto
            -53 -54 -41 -83 1 hvcurveto
            76 -37 -61 87 -72 hhcurveto
            -16 -25 -4 -8 -18 hvcurveto
            endchar
          </CharString>
          <CharString index="126">
            vlineto
            -91 callgsubr
            return
          </CharString>
          <CharString index="127">
            rmoveto
            248 callsubr
            -120 115 rlineto
            -35 hlineto
            -121 -115 19 -19 rlineto
            return
          </CharString>
          <CharString index="128">
            85 callgsubr
            120 -300 hlineto
            -31 1 -18 23 -17 vhcurveto
            64 -49 106 -78 42 -31 rrcurveto
            52 -39 31 -28 -23 vvcurveto
            -22 -12 -17 -15 -15 vhcurveto
            58 -45 rlineto
            18 19 17 29 30 vvcurveto
            24 -10 36 -43 31 vhcurveto
            -201 148 rlineto
            -49 38 -10 2 59 vvcurveto
            297 239 -200 vlineto
            -58 -20 -28 -44 -29 vhcurveto
            51 -52 rlineto
            57 39 28 42 79 vvcurveto
            207 152 vlineto
            return
          </CharString>
          <CharString index="129">
            162 callsubr
            rlineto
            28 -32 -29 7 -34 hhcurveto
            return
          </CharString>
          <CharString index="130">
            48 callgsubr
            106 callsubr
            return
          </CharString>
          <CharString index="131">
            26 20 20 25 25 -20 20 -26 -25 -19 -20 -25 -25 19 -20 25 hvcurveto
            return
          </CharString>
          <CharString index="132">
            vlineto
            44 -24 27 -39 -29 vvcurveto
            -28 -25 -31 -122 -62 vhcurveto
            -13 -6 -6 -6 -14 -5 callsubr
          </CharString>
          <CharString index="133">
            27 callsubr
            87 -300 rmoveto
            -47 -46 41 66 hvcurveto
            144 vlineto
            197 -208 rlineto
            -28 -27 -41 -15 -36 hhcurveto
            endchar
          </CharString>
          <CharString index="134">
            rmoveto
            -176 vlineto
            -18 -5 -17 -7 -15 vhcurveto
            -9 9 -196 210 -7 7 rrcurveto
            return
          </CharString>
          <CharString index="135">
            -76 callsubr
            371 112 callsubr
            -88 85 -83 61 hvcurveto
            51 52 37 42 hhcurveto
            33 26 -24 -34 -82 -119 -42 -80 4 hvcurveto
            51 -40 -38 48 -25 hhcurveto
            -25 -25 -15 -21 -47 71 -53 68 -18 hvcurveto
            154 -185 47 32 -143 148 rlineto
            79 4 128 54 98 vvcurveto
            24 -13 32 -20 26 vhcurveto
            -7 25 25 -4 22 hhcurveto
            return
          </CharString>
          <CharString index="136">
            84 81 44 27 hvcurveto
            -6 -115 130 callgsubr
            return
          </CharString>
          <CharString index="137">
            -30 281 51 rmoveto
            107 86 67 74 62 -64 72 -68 hvcurveto
            46 callsubr
            return
          </CharString>
          <CharString index="138">
            hhcurveto
            -74 -48 41 61 62 60 18 54 25 return
          </CharString>
          <CharString index="139">
            rmoveto
            56 -56 57 56 -57 56 rlineto
            return
          </CharString>
          <CharString index="140">
            rmoveto
            197 -208 rlineto
            -28 -27 -41 -15 -36 hhcurveto
            -47 -46 41 66 hvcurveto
            230 193 27 callsubr
            return
          </CharString>
          <CharString index="141">
            42 36 79 callsubr
            86 53 63 48 31 26 vhcurveto
            -1 -139 71 -50 131 callsubr
          </CharString>
          <CharString index="142">
            hhcurveto
            -68 -67 46 63 69 68 15 59 29 28 -4 -4 18 hvcurveto
            return
          </CharString>
          <CharString index="143">
            -53 callsubr
            227 return
          </CharString>
          <CharString index="144">
            37 54 23 21 12 15 10 hvcurveto
            return
          </CharString>
          <CharString index="145">
            179 628 rmoveto
            -14 5 -32 -15 -34 -18 -32 -18 rlinecurve
            -1 -5 0 -8 1 -6 56 9 rcurveline
            -293 vlineto
            -21 -17 -5 -39 -4 vhcurveto
            -3 -6 -1 -11 1 -8 rrcurveto
            168 hlineto
            2 7 1 11 7 vvcurveto
            -24 1 -16 5 -16 7 rrcurveto
            315 390 rmoveto
            -332 -690 rlineto
            37 hlineto
            332 690 rlineto
            return
          </CharString>
          <CharString index="146">
            -76 callsubr
            141 return
          </CharString>
          <CharString index="147">
            vlineto
            2 -15 -15 1 -15 hhcurveto
            -142 -123 -86 -164 -152 88 -77 98 56 41 22 30 30 hvcurveto
            -33 10 26 -19 33 hhcurveto
            31 25 21 24 19 hvcurveto
            return
          </CharString>
          <CharString index="148">
            228 callsubr
            39 -60 rlineto
            9 20 16 5 17 hhcurveto
            76 58 -89 -83 42 hvcurveto
            -178 hlineto
            37 -60 rlineto
            139 -564 hlineto
            71 -51 rlineto
            return
          </CharString>
          <CharString index="149">
            100 callgsubr
            -77 -98 callgsubr
            70 99 callgsubr
            -175 return
          </CharString>
          <CharString index="150">
            53 27 37 47 49 vvcurveto
            74 -62 91 -117 -31 -31 -9 -15 -28 vhcurveto
            -16 16 -23 27 35 vvcurveto
            51 42 6 56 vhcurveto
            172 178 153 -26 callgsubr
            -580 -98 callgsubr
            356 276 callgsubr
            96 callgsubr
            182 callgsubr
            return
          </CharString>
          <CharString index="151">
            rmoveto
            32 7 17 13 21 33 24 -49 48 hhcurveto
            53 20 47 54 8 hvcurveto
            -28 hlineto
            -33 -7 -17 -13 -21 -33 -26 49 -45 hhcurveto
            -53 -21 -47 -53 -8 hvcurveto
            return
          </CharString>
          <CharString index="152">
            vvcurveto
            -47 41 -32 47 40 33 26 24 17 vhcurveto
            return
          </CharString>
          <CharString index="153">
            -44 -63 -41 -44 hhcurveto
            -36 -32 20 46 52 34 20 57 hvcurveto
            206 144 167 -26 callgsubr
            -601 -76 callsubr
            363 -80 -154 hlineto
            -80 -46 -41 -66 -89 83 -67 63 hvcurveto
            48 57 40 44 hhcurveto
            35 21 -22 -23 -63 -70 -47 -96 -71 -67 47 72 -48 hvcurveto
            -34 -27 return
          </CharString>
          <CharString index="154">
            45 callsubr
            -5 13 rlineto
            65 callgsubr
            return
          </CharString>
          <CharString index="155">
            49 callgsubr
            62 hhcurveto
            return
          </CharString>
          <CharString index="156">
            -112 112 -97 102 return
          </CharString>
          <CharString index="157">
            71 -48 rlineto
            615 return
          </CharString>
          <CharString index="158">
            -98 callgsubr
            391 -304 hlineto
            -58 -30 -46 -49 -66 hhcurveto
            -64 -56 56 65 80 57 91 callgsubr
            return
          </CharString>
          <CharString index="159">
            -40 60 rlineto
            -881 -105 callsubr
            48 33 hvcurveto
            -6 -167 return
          </CharString>
          <CharString index="160">
            31 -21 -39 -50 -52 -49 -39 -28 hvcurveto
            -29 18 -39 30 45 vvcurveto
            52 38 42 return
          </CharString>
          <CharString index="161">
            -38 callgsubr
            68 58 -50 -69 return
          </CharString>
          <CharString index="162">
            122 callgsubr
            43 42 62 hhcurveto
            return
          </CharString>
          <CharString index="163">
            -49 -53 callsubr
            return
          </CharString>
          <CharString index="164">
            567 277 callgsubr
            return
          </CharString>
          <CharString index="165">
            37 26 rlineto
            -81 69 return
          </CharString>
          <CharString index="166">
            rmoveto
            15 -27 -28 9 -37 hhcurveto
            -60 -57 -41 -97 10 hvcurveto
            68 -48 -50 51 -75 228 callsubr
            39 -60 rlineto
            218 callsubr
            -15 31 -31 58 46 vvcurveto
            70 44 29 54 14 13 -2 -4 14 vhcurveto
            endchar
          </CharString>
          <CharString index="167">
            rmoveto
            50 -28 48 -53 -69 vvcurveto
            66 callgsubr
            135 191 rmoveto
            220 -26 callgsubr
            return
          </CharString>
          <CharString index="168">
            854 rmoveto
            5 14 16 2 12 209 callsubr
            -99 73 -87 hhcurveto
            -27 -27 240 callsubr
            86 78 -77 -63 33 hvcurveto
            54 19 rlineto
            77 -22 -66 244 -146 hhcurveto
            -16 -25 -4 -8 -18 hvcurveto
            return
          </CharString>
          <CharString index="169">
            -162 415 -4 callsubr
            -475 -32 callsubr
            71 8 26 43 42 vvcurveto
            256 187 vlineto
            return
          </CharString>
          <CharString index="170">
            -82 callsubr
            endchar
          </CharString>
          <CharString index="171">
            -113 109 -95 101 61 callgsubr
            return
          </CharString>
          <CharString index="172">
            hlineto
            -27 callgsubr
            return
          </CharString>
          <CharString index="173">
            vlineto
            -1 callsubr
            return
          </CharString>
          <CharString index="174">
            -173 hlineto
            -41 callgsubr
            return
          </CharString>
          <CharString index="175">
            rmoveto
            191 166 callgsubr
            return
          </CharString>
          <CharString index="176">
            44 hvcurveto
            215 -338 hlineto
            171 callsubr
            endchar
          </CharString>
          <CharString index="177">
            -35 callgsubr
            -315 -227 rmoveto
            229 callsubr
            return
          </CharString>
          <CharString index="178">
            40 66 hvcurveto
            225 return
          </CharString>
          <CharString index="179">
            -24 4 -24 hhcurveto
            return
          </CharString>
          <CharString index="180">
            hhcurveto
            148 callsubr
          </CharString>
          <CharString index="181">
            rmoveto
            -40 -28 -28 -38 -50 vvcurveto
            -49 30 -22 22 20 16 13 21 vhcurveto
            34 -37 10 34 vvcurveto
            24 11 17 24 19 vhcurveto
            return
          </CharString>
          <CharString index="182">
            144 hlineto
            42 -12 28 -25 26 vhcurveto
            -8 9 -22 21 -12 9 return
          </CharString>
          <CharString index="183">
            hlineto
            2 46 -1 45 -3 45 rrcurveto
            2 return
          </CharString>
          <CharString index="184">
            147 callsubr
            -38 49 70 -23 62 hhcurveto
            103 84 67 91 80 -56 58 -59 31 hvcurveto
            37 30 33 44 63 vvcurveto
            return
          </CharString>
          <CharString index="185">
            -4 -173 -62 callsubr
          </CharString>
          <CharString index="186">
            136 callgsubr
            -10 -11 -15 vvcurveto
            -82 114 -89 return
          </CharString>
          <CharString index="187">
            87 101 vvcurveto
            80 return
          </CharString>
          <CharString index="188">
            28 -25 170 callgsubr
            return
          </CharString>
          <CharString index="189">
            98 -119 -76 callgsubr
            return
          </CharString>
          <CharString index="190">
            -227 hlineto
            4 callgsubr
            return
          </CharString>
          <CharString index="191">
            -59 hhcurveto
            -87 -83 51 85 115 108 7 51 hvcurveto
            140 147 168 hlineto
            -39 60 rlineto
            -582 85 callgsubr
            342 -82 -99 hlineto
            -118 -74 -58 -95 -132 135 -103 127 return
          </CharString>
          <CharString index="192">
            10 callgsubr
            -519 hmoveto
            221 -190 hlineto
            -17 4 -19 6 -17 vhcurveto
            -20 -25 274 callsubr
            return
          </CharString>
          <CharString index="193">
            rmoveto
            98 callsubr
            return
          </CharString>
          <CharString index="194">
            91 131 vvcurveto
            98 -77 119 -106 return
          </CharString>
          <CharString index="195">
            35 20 -22 -32 -59 -54 -35 -54 -10 return
          </CharString>
          <CharString index="196">
            101 -123 -69 callsubr
          </CharString>
          <CharString index="197">
            301 -107 callsubr
            -286 hmoveto
            58 callgsubr
            return
          </CharString>
          <CharString index="198">
            211 callsubr
            -35 -32 74 -111 86 -105 103 267 callsubr
            -79 85 -81 95 -36 54 rlinecurve
            -57 callsubr
            return
          </CharString>
          <CharString index="199">
            128 callsubr
            62 94 callsubr
            return
          </CharString>
          <CharString index="200">
            32 20 24 hvcurveto
            177 -189 rlineto
            231 callgsubr
            endchar
          </CharString>
          <CharString index="201">
            40 59 192 callsubr
            return
          </CharString>
          <CharString index="202">
            49 34 rcurveline
            -62 63 -106 114 -31 43 rrcurveto
            return
          </CharString>
          <CharString index="203">
            hhcurveto
            -61 55 callgsubr
            return
          </CharString>
          <CharString index="204">
            15 8 10 15 hvcurveto
            return
          </CharString>
          <CharString index="205">
            65 callgsubr
            38 19 36 53 26 hvcurveto
            return
          </CharString>
          <CharString index="206">
            102 callsubr
            endchar
          </CharString>
          <CharString index="207">
            457 567 rmoveto
            141 -26 callgsubr
            -627 76 callgsubr
            return
          </CharString>
          <CharString index="208">
            hhcurveto
            31 24 -21 -34 -48 -47 -41 -63 -79 -73 62 57 -48 hvcurveto
            -32 -25 rlineto
            -81 62 94 -70 101 hhcurveto
            87 53 60 61 29 -16 35 -29 29 hvcurveto
            26 -25 -34 16 -31 hhcurveto
            return
          </CharString>
          <CharString index="209">
            rlineto
            -56 callsubr
            return
          </CharString>
          <CharString index="210">
            hlineto
            1 -286 rlineto
            -81 -60 -68 -42 -48 hhcurveto
            -80 -41 60 60 69 49 73 87 -83 callsubr
            -85 -83 -66 -109 return
          </CharString>
          <CharString index="211">
            hlineto
            -32 254 callgsubr
            41 15 268 callgsubr
            return
          </CharString>
          <CharString index="212">
            hlineto
            36 -60 rlineto
            115 -564 hlineto
            71 -51 rlineto
            return
          </CharString>
          <CharString index="213">
            rlineto
            -35 -16 -30 -43 -39 vvcurveto
            return
          </CharString>
          <CharString index="214">
            58 callgsubr
            -28 return
          </CharString>
          <CharString index="215">
            43 -36 -49 24 -58 -92 callgsubr
            250 return
          </CharString>
          <CharString index="216">
            72 -47 rlineto
            615 166 callgsubr
            -698 -98 callgsubr
            275 -78 -81 hlineto
            -59 -57 -23 -61 -50 43 -43 34 -22 hvcurveto
            -40 -14 -27 -27 -45 vvcurveto
            return
          </CharString>
          <CharString index="217">
            rmoveto
            16 -27 -28 9 -37 hhcurveto
            -86 -56 -66 -82 -55 24 -60 43 -48 hvcurveto
            31 19 rlineto
            -29 34 -13 42 37 vvcurveto
            68 44 60 74 15 12 -2 -5 14 vhcurveto
            endchar
          </CharString>
          <CharString index="218">
            57 callgsubr
            40 79 vhcurveto
            return
          </CharString>
          <CharString index="219">
            -96 -152 hlineto
            -74 -55 -43 -66 return
          </CharString>
          <CharString index="220">
            -27 callgsubr
            24 -1 return
          </CharString>
          <CharString index="221">
            rmoveto
            125 134 266 callgsubr
            -18 8 -23 3 -91 -156 rcurveline
            23 129 rmoveto
            10 vlineto
            -16 12 -19 6 -23 3 -76 -161 rcurveline
            25 -10 rlineto
            return
          </CharString>
          <CharString index="222">
            -50 -8 -45 -13 -43 -16 rrcurveto
            -2 -9 -2 -10 -8 3 callsubr
            return
          </CharString>
          <CharString index="223">
            hlineto
            45 -24 26 -39 -29 vvcurveto
            -28 -24 265 callgsubr
            -6 -6 -14 vvcurveto
            return
          </CharString>
          <CharString index="224">
            hhcurveto
            124 callgsubr
          </CharString>
          <CharString index="225">
            -196 143 callsubr
          </CharString>
          <CharString index="226">
            hhcurveto
            97 callsubr
            71 215 -13 vlineto
            -281 -246 54 -38 227 217 rlineto
            -164 vlineto
            72 -50 rlineto
            615 146 vlineto
            endchar
          </CharString>
          <CharString index="227">
            rmoveto
            125 callsubr
            return
          </CharString>
          <CharString index="228">
            132 callgsubr
            -48 return
          </CharString>
          <CharString index="229">
            145 callsubr
            -27 return
          </CharString>
          <CharString index="230">
            301 232 callsubr
            16 11 hvcurveto
            63 94 callsubr
            hlineto
            return
          </CharString>
          <CharString index="231">
            785 rmoveto
            218 callsubr
            93 -44 -71 173 -145 228 callsubr
            return
          </CharString>
          <CharString index="232">
            -48 16 -33 33 45 vvcurveto
            56 41 35 45 63 226 callgsubr
            return
          </CharString>
          <CharString index="233">
            188 callsubr
            77 174 callsubr
            return
          </CharString>
          <CharString index="234">
            10 -11 12 -10 12 -8 rrcurveto
            -53 -18 -42 -40 -54 vvcurveto
            return
          </CharString>
          <CharString index="235">
            -74 45 55 23 19 11 17 11 hvcurveto
            return
          </CharString>
          <CharString index="236">
            -7 -15 -25 hvcurveto
            43 -54 rlineto
            10 return
          </CharString>
          <CharString index="237">
            141 callsubr
            -39 return
          </CharString>
          <CharString index="238">
            50 callgsubr
            endchar
          </CharString>
          <CharString index="239">
            -68 hhcurveto
            -47 -38 14 5 -33 hvcurveto
            1 -9 -8 1 -10 -37 -60 -38 -47 hhcurveto
            -40 155 callsubr
            45 hvcurveto
            205 160 return
          </CharString>
          <CharString index="240">
            rmoveto
            -22 -4 -29 -15 -13 -13 rrcurveto
            -11 vlineto
            153 -136 21 13 rlineto
            return
          </CharString>
          <CharString index="241">
            -28 -16 -19 -26 -37 vvcurveto
            -109 111 -83 126 78 78 35 57 return
          </CharString>
          <CharString index="242">
            hlineto
            152 callgsubr
            return
          </CharString>
          <CharString index="243">
            rcurveline
            16 22 255 callsubr
            return
          </CharString>
          <CharString index="244">
            26 -5 -6 18 vhcurveto
            return
          </CharString>
          <CharString index="245">
            rmoveto
            -65 46 67 -76 92 hhcurveto
            81 52 65 65 35 hvcurveto
            -49 39 rlineto
            -59 -32 -44 -58 -70 hhcurveto
            -60 -53 62 50 -33 hvcurveto
            endchar
          </CharString>
          <CharString index="246">
            -2 -8 -2 -11 -10 vvcurveto
            return
          </CharString>
          <CharString index="247">
            -77 callgsubr
            endchar
          </CharString>
          <CharString index="248">
            hlineto
            -67 -39 -31 -54 return
          </CharString>
          <CharString index="249">
            rmoveto
            -347 -98 callgsubr
            130 -254 -215 75 callsubr
            return
          </CharString>
          <CharString index="250">
            71 -93 callgsubr
          </CharString>
          <CharString index="251">
            -1 -190 rlineto
            45 -33 -51 25 return
          </CharString>
          <CharString index="252">
            44 56 67 58 return
          </CharString>
          <CharString index="253">
            rlineto
            -14 -12 -10 241 callsubr
            21 164 callsubr
            -38 42 -5 7 return
          </CharString>
          <CharString index="254">
            76 callgsubr
            -63 38 -56 41 -30 vhcurveto
            -51 -11 -58 -42 -75 vvcurveto
            -65 32 -50 48 -38 vhcurveto
            return
          </CharString>
          <CharString index="255">
            72 60 36 37 32 hvcurveto
            1 callgsubr
          </CharString>
          <CharString index="256">
            46 46 27 47 33 hvcurveto
            -56 callgsubr
            return
          </CharString>
          <CharString index="257">
            -4 -207 171 callgsubr
            return
          </CharString>
          <CharString index="258">
            hlineto
            2 8 2 11 -1 10 -23 1 return
          </CharString>
          <CharString index="259">
            -58 -88 -94 58 -111 76 -98 hvcurveto
            return
          </CharString>
          <CharString index="260">
            -47 -46 71 callsubr
            return
          </CharString>
          <CharString index="261">
            hhcurveto
            79 145 callsubr
            return
          </CharString>
          <CharString index="262">
            -27 33 45 55 49 23 return
          </CharString>
          <CharString index="263">
            10 vvcurveto
            -24 2 return
          </CharString>
          <CharString index="264">
            83 -70 56 -64 -68 -43 -54 -61 -47 26 -38 15 -16 vhcurveto
            68 callgsubr
            return
          </CharString>
          <CharString index="265">
            -87 callsubr
            157 return
          </CharString>
          <CharString index="266">
            hlineto
            -41 60 rlineto
            return
          </CharString>
          <CharString index="267">
            -164 141 callgsubr
            -105 -56 170 102 -33 vhcurveto
            return
          </CharString>
          <CharString index="268">
            -16 -32 -33 -48 vvcurveto
            return
          </CharString>
          <CharString index="269">
            rmoveto
            -351 -76 callsubr
            125 -257 -208 147 hlineto
            47 -14 28 -32 31 vhcurveto
            -33 29 return
          </CharString>
          <CharString index="270">
            -295 hlineto
            178 callsubr
            return
          </CharString>
          <CharString index="271">
            214 callsubr
            -6 8 vhcurveto
            -1 3 return
          </CharString>
          <CharString index="272">
            -48 rmoveto
            615 166 callgsubr
            return
          </CharString>
          <CharString index="273">
            -41 -31 -38 -31 -58 hhcurveto
            return
          </CharString>
          <CharString index="274">
            567 rmoveto
            -41 60 rlineto
            return
          </CharString>
          <CharString index="275">
            172 callgsubr
            78 -20 42 26 21 9 18 5 -4 7 -6 8 vhcurveto
            -1 2 return
          </CharString>
          <CharString index="276">
            vvcurveto
            -148 133 -101 133 83 88 57 77 82 -70 57 -63 -68 -42 -52 -61 -47 25 -41 return
          </CharString>
          <CharString index="277">
            rmoveto
            47 30 40 50 35 20 -22 -32 -59 -50 -36 -58 -9 vhcurveto
            -17 19 -10 26 26 vvcurveto
            endchar
          </CharString>
          <CharString index="278">
            71 -49 230 callgsubr
            return
          </CharString>
          <CharString index="279">
            73 callgsubr
            152 vlineto
            return
          </CharString>
          <CharString index="280">
            229 callsubr
            13 20 return
          </CharString>
          <CharString index="281">
            -566 203 callgsubr
            return
          </CharString>
          <CharString index="282">
            58 callgsubr
            -26 return
          </CharString>
          <CharString index="283">
            252 callgsubr
            72 -51 131 callsubr
          </CharString>
          <CharString index="284">
            9 28 hhcurveto
            47 return
          </CharString>
          <CharString index="285">
            -79 -48 -68 -56 -82 71 callgsubr
            return
          </CharString>
          <CharString index="286">
            211 callsubr
            0 vlineto
            return
          </CharString>
          <CharString index="287">
            rmoveto
            158 177 178 callgsubr
            return
          </CharString>
          <CharString index="288">
            129 callsubr
            21 return
          </CharString>
          <CharString index="289">
            vvcurveto
            51 41 6 56 vhcurveto
            return
          </CharString>
          <CharString index="290">
            -112 -153 hlineto
            return
          </CharString>
          <CharString index="291">
            vvcurveto
            25 1 24 return
          </CharString>
          <CharString index="292">
            rmoveto
            189 callgsubr
            return
          </CharString>
          <CharString index="293">
            hhcurveto
            51 70 32 61 53 hvcurveto
            241 callgsubr
          </CharString>
          <CharString index="294">
            hhcurveto
            54 62 40 41 36 hvcurveto
            -3 -166 247 callsubr
            152 vlineto
            endchar
          </CharString>
          <CharString index="295">
            hlineto
            38 -60 rlineto
            return
          </CharString>
          <CharString index="296">
            -27 hvcurveto
            134 callsubr
            return
          </CharString>
          <CharString index="297">
            80 56 134 callgsubr
            return
          </CharString>
          <CharString index="298">
            106 callgsubr
            2 194 rlineto
            return
          </CharString>
          <CharString index="299">
            28 54 vvcurveto
            28 -19 56 -54 279 callgsubr
            return
          </CharString>
          <CharString index="300">
            49 callsubr
            213 callgsubr
            return
          </CharString>
          <CharString index="301">
            -60 rlineto
            529 83 callsubr
            return
          </CharString>
          <CharString index="302">
            rmoveto
            227 35 -227 hlineto
            endchar
          </CharString>
          <CharString index="303">
            hmoveto
            432 -26 callgsubr
            return
          </CharString>
          <CharString index="304">
            -257 rmoveto
            257 return
          </CharString>
          <CharString index="305">
            -127 -106 hlineto
            return
          </CharString>
          <CharString index="306">
            54 -37 vhcurveto
            -51 -38 -85 -44 -50 -25 54 -41 rcurveline
            52 25 76 42 63 45 return
          </CharString>
          <CharString index="307">
            hhcurveto
            -47 -41 -80 callsubr
            -90 -71 -69 -92 hvcurveto
            return
          </CharString>
          <CharString index="308">
            72 -48 -60 callsubr
            return
          </CharString>
          <CharString index="309">
            -553 hlineto
            247 callsubr
            return
          </CharString>
          <CharString index="310">
            28 26 -4 -3 15 hvcurveto
            return
          </CharString>
          <CharString index="311">
            -8 231 callsubr
            return
          </CharString>
          <CharString index="312">
            vvcurveto
            57 49 17 63 23 return
          </CharString>
          <CharString index="313">
            -594 -98 callgsubr
            368 198 callsubr
            -124 -61 -82 -95 return
          </CharString>
          <CharString index="314">
            -657 -98 callgsubr
            365 198 callsubr
            -120 -61 -75 -94 return
          </CharString>
          <CharString index="315">
            hlineto
            95 -45 -70 256 callsubr
            endchar
          </CharString>
          <CharString index="316">
            hhcurveto
            92 63 -167 -67 25 hvcurveto
            85 -48 return
          </CharString>
          <CharString index="317">
            20 -202 rlineto
            27 hlineto
            20 202 rlineto
            return
          </CharString>
          <CharString index="318">
            244 callsubr
            -23 vhcurveto
            return
          </CharString>
          <CharString index="319">
            4 9 22 hvcurveto
            7 -90 55 -103 71 -91 return
          </CharString>
          <CharString index="320">
            -121 -63 -76 -91 return
          </CharString>
          <CharString index="321">
            9 17 6 -4 6 return
          </CharString>
          <CharString index="322">
            -106 111 -92 107 return
          </CharString>
          <CharString index="323">
            hlineto
            -86 callsubr
            -4 -2 return
          </CharString>
          <CharString index="324">
            -113 503 567 rmoveto
            -39 60 rlineto
            -523 85 callgsubr
            return
          </CharString>
          <CharString index="325">
            9 20 16 5 17 hhcurveto
            89 65 -125 -92 45 hvcurveto
            37 17 rlineto
            return
          </CharString>
          <CharString index="326">
            230 callgsubr
            endchar
          </CharString>
          <CharString index="327">
            1 -9 24 -2 return
          </CharString>
          <CharString index="328">
            -125 -105 hlineto
            return
          </CharString>
          <CharString index="329">
            -6 -168 48 callsubr
            return
          </CharString>
          <CharString index="330">
            rmoveto
            32 -16 66 -40 -70 vvcurveto
            -88 -73 -50 -96 -93 -84 55 90 return
          </CharString>
          <CharString index="331">
            -15 -48 -53 callsubr
            return
          </CharString>
          <CharString index="332">
            71 -186 145 hhcurveto
            79 44 56 return
          </CharString>
          <CharString index="333">
            hlineto
            3 8 102 callgsubr
            return
          </CharString>
          <CharString index="334">
            8 vhcurveto
            -1 3 -38 42 -5 return
          </CharString>
          <CharString index="335">
            hhcurveto
            -19 -30 -7 -13 -19 hvcurveto
            return
          </CharString>
          <CharString index="336">
            4 callgsubr
            -21 -19 return
          </CharString>
          <CharString index="337">
            193 rlineto
            -252 vlineto
            return
          </CharString>
          <CharString index="338">
            268 callsubr
            rrcurveto
            return
          </CharString>
          <CharString index="339">
            214 callgsubr
            -91 hhcurveto
            -52 -74 45 55 23 19 11 return
          </CharString>
          <CharString index="340">
            1 rlineto
            -18 -13 -27 -29 -42 vvcurveto
            -50 42 -40 36 -23 vhcurveto
            return
          </CharString>
          <CharString index="341">
            -36 51 78 hvcurveto
            205 190 -225 vlineto
            -77 -29 -32 return
          </CharString>
          <CharString index="342">
            -147 363 281 rmoveto
            52 -316 -52 vlineto
            endchar
          </CharString>
          <CharString index="343">
            -32 -28 -46 -17 return
          </CharString>
          <CharString index="344">
            rlineto
            -19 -13 -27 -29 -42 vvcurveto
            -50 43 -40 35 -23 vhcurveto
            return
          </CharString>
          <CharString index="345">
            2 8 1 12 156 callsubr
            -20 3 -24 10 rrcurveto
            return
          </CharString>
          <CharString index="346">
            -57 37 rlineto
            -44 -6 -20 -27 -37 hhcurveto
            -34 -22 21 37 return
          </CharString>
          <CharString index="347">
            181 callsubr
            20 5 20 hhcurveto
            return
          </CharString>
          <CharString index="348">
            -11 -15 vvcurveto
            -45 79 -19 42 25 return
          </CharString>
          <CharString index="349">
            -49 77 -76 41 15 8 10 15 return
          </CharString>
          <CharString index="350" raw="1">
            4c461a52 686a5421 0b 
          </CharString>
          <CharString index="351">
            263 callgsubr
            22 return
          </CharString>
          <CharString index="352">
            -27 callgsubr
            23 -1 return
          </CharString>
          <CharString index="353">
            44 29 27 vhcurveto
            -50 43 rlineto
            -33 return
          </CharString>
          <CharString index="354">
            71 -62 rlineto
            615 return
          </CharString>
          <CharString index="355">
            121 -74 17 19 return
          </CharString>
          <CharString index="356">
            -12 -10 -11 -15 vvcurveto
            return
          </CharString>
          <CharString index="357">
            hlineto
            2 9 2 return
          </CharString>
          <CharString index="358">
            -18 258 callgsubr
            return
          </CharString>
          <CharString index="359">
            -74 callgsubr
            47 33 return
          </CharString>
          <CharString index="360">
            -46 -17 -48 hhcurveto
            -42 -47 24 28 -34 hvcurveto
            227 return
          </CharString>
          <CharString index="361">
            hhcurveto
            -47 -46 40 66 hvcurveto
            return
          </CharString>
          <CharString index="362">
            26 9 28 hhcurveto
            return
          </CharString>
          <CharString index="363">
            143 -132 228 callsubr
            return
          </CharString>
          <CharString index="364">
            -39 callgsubr
            -881 -98 callgsubr
            391 return
          </CharString>
          <CharString index="365">
            -136 -144 54 -43 278 callsubr
            rlineto
            return
          </CharString>
          <CharString index="366">
            hhcurveto
            -50 -29 -22 -30 -29 hvcurveto
            2 194 rlineto
            return
          </CharString>
          <CharString index="367">
            165 567 rmoveto
            150 hlineto
            -36 60 rlineto
            return
          </CharString>
          <CharString index="368">
            55 -34 vhcurveto
            39 27 rlineto
            -54 return
          </CharString>
          <CharString index="369">
            -52 -42 callsubr
            return
          </CharString>
          <CharString index="370">
            167 callgsubr
            47 return
          </CharString>
          <CharString index="371">
            27 -1 38 rrcurveto
            44 35 41 return
          </CharString>
          <CharString index="372">
            -6 vhcurveto
            -2 -8 -1 return
          </CharString>
          <CharString index="373">
            rmoveto
            56 -57 57 57 return
          </CharString>
          <CharString index="374">
            -125 rlinecurve
            52 32 return
          </CharString>
          <CharString index="375">
            -1 -12 1 -9 return
          </CharString>
          <CharString index="376">
            56 66 58 -27 57 -50 44 hvcurveto
            100 hlineto
            return
          </CharString>
          <CharString index="377">
            25 26 -18 19 -26 -25 -19 -19 -26 vhcurveto
            return
          </CharString>
          <CharString index="378">
            99 callgsubr
            -175 -19 vlineto
            return
          </CharString>
          <CharString index="379">
            263 callsubr
            31 41 49 return
          </CharString>
          <CharString index="380">
            hhcurveto
            137 callgsubr
            3 229 rmoveto
            return
          </CharString>
          <CharString index="381">
            -34 -16 -50 -53 callsubr
            return
          </CharString>
          <CharString index="382">
            39 -35 25 rrcurveto
            40 50 26 61 66 vvcurveto
            return
          </CharString>
          <CharString index="383">
            -10 rlineto
            52 -51 return
          </CharString>
          <CharString index="384">
            34 31 vvcurveto
            47 return
          </CharString>
          <CharString index="385">
            148 175 return
          </CharString>
        <CharString name=".notdef">
          194 176 -48 rmoveto
          399 701 -399 hlineto
          59 -55 rmoveto
          281 -590 -281 hlineto
          endchar
        </CharString>
        <CharString name="A">
          17 174 242 -100 callsubr
        </CharString>
        <CharString name="AE">
          260 235 242 rmoveto
          137 224 29 53 rlineto
          -277 vlineto
          72 -207 rmoveto
          257 vlineto
          141 -4 rlineto
          29 48 -29 hlineto
          -141 -7 rlineto
          249 160 vlineto
          68 13 -33 -69 6 hvcurveto
          8 14 0 2 6 hvcurveto
          5 43 1 46 -2 44 rrcurveto
          -417 65 callsubr
          20 -1 20 -2 18 -7 -298 -488 rcurveline
          -17 -28 -17 -21 -49 -6 168 callgsubr
          -12 -10 vvcurveto
          172 hlineto
          3 9 1 11 156 callsubr
          -19 6 -20 12 95 156 rcurveline
          188 -129 hlineto
          -33 -17 -9 -46 -6 vhcurveto
          -3 204 callsubr
          432 hlineto
          -34 callsubr
          endchar
        </CharString>
        <CharString name="Aacute">
          17 448 788 -48 callsubr
          -122 -409 -100 callsubr
        </CharString>
        <CharString name="Abreve">
          17 378 805 -11 callsubr
          -228 -563 -100 callsubr
        </CharString>
        <CharString name="Acircumflex">
          17 286 729 20 callsubr
          7 -413 -100 callsubr
        </CharString>
        <CharString name="Adieresis">
          17 352 674 -77 callsubr
          -46 -432 -100 callsubr
        </CharString>
        <CharString name="Agrave">
          17 316 668 -8 callgsubr
          -121 -413 -100 callsubr
        </CharString>
        <CharString name="Amacron">
          17 399 714 175 callgsubr
          -225 -437 -100 callsubr
        </CharString>
        <CharString name="Aogonek">
          17 174 242 rmoveto
          86 264 10 43 100 -307 rlineto
          236 -377 86 callsubr
          3 9 1 10 1 10 -45 3 -25 13 -12 40 -176 539 rcurveline
          -22 -27 -3 -6 -16 hvcurveto
          -178 -531 -10 -28 -18 -20 -47 -7 rlinecurve
          139 callsubr
          184 250 callsubr
          10 10 vvcurveto
          -26 1 -25 4 -24 11 53 161 rcurveline
          219 hlineto
          50 -155 -20 -12 -24 -6 -26 -4 rlinecurve
          -3 -9 -1 -10 -10 vvcurveto
          159 hlineto
          -57 -30 -27 -43 -46 45 callsubr
          endchar
        </CharString>
        <CharString name="Aring">
          17 286 766 2 callgsubr
          -112 -411 -100 callsubr
        </CharString>
        <CharString name="Atilde">
          17 392 781 8 callsubr
          -246 -539 -100 callsubr
        </CharString>
        <CharString name="B">
          0 171 35 rmoveto
          261 108 vlineto
          101 40 -59 -72 -72 -40 -58 -101 hvcurveto
          -108 296 rmoveto
          247 84 vlineto
          100 38 -55 -70 -64 -34 -40 -57 -19 hvcurveto
          -267 281 211 callgsubr
          -3 23 -10 rrcurveto
          -492 vlineto
          -33 -18 -9 -45 84 callgsubr
          0 -12 -9 vvcurveto
          247 hlineto
          153 65 80 85 70 -42 66 -81 18 hvcurveto
          55 22 40 46 66 vvcurveto
          82 -54 76 -162 vhcurveto
          endchar
        </CharString>
        <CharString name="C">
          23 522 90 rmoveto
          -30 callgsubr
          -196 134 -116 151 85 64 33 51 50 hvcurveto
          endchar
        </CharString>
        <CharString name="CR">
          -307 endchar
        </CharString>
        <CharString name="Cacute">
          23 522 90 rmoveto
          -30 callgsubr
          -196 134 -116 151 85 64 33 51 50 hvcurveto
          -178 591 -36 callgsubr
        </CharString>
        <CharString name="Ccaron">
          23 522 90 rmoveto
          -30 callgsubr
          -196 134 -116 151 85 64 33 51 50 hvcurveto
          -30 706 rmoveto
          -44 callsubr
          60 hlineto
          endchar
        </CharString>
        <CharString name="Ccedilla">
          23 340 -12 rmoveto
          85 64 33 51 50 hvcurveto
          -17 18 rlineto
          -30 callgsubr
          -168 98 -109 124 -28 hvcurveto
          -20 -96 102 callsubr
          -7 hlineto
          12 58 rlineto
          endchar
        </CharString>
        <CharString name="D">
          33 172 35 rmoveto
          543 80 vlineto
          16 callsubr
          -492 vlineto
          12 callsubr
        </CharString>
        <CharString name="Dcaron">
          33 322 656 rmoveto
          107 122 -44 callsubr
          -90 -621 rmoveto
          543 80 vlineto
          16 callsubr
          -492 vlineto
          12 callsubr
        </CharString>
        <CharString name="Dcroat">
          6 callgsubr
        </CharString>
        <CharString name="E">
          -39 174 35 -97 callsubr
        </CharString>
        <CharString name="Eacute">
          -39 437 787 -48 callsubr
          -111 -615 -97 callsubr
        </CharString>
        <CharString name="Ecaron">
          -39 304 658 rmoveto
          107 122 -44 callsubr
          -70 -623 -97 callsubr
        </CharString>
        <CharString name="Ecircumflex">
          -39 273 729 20 callsubr
          20 -620 -97 callsubr
        </CharString>
        <CharString name="Edieresis">
          -39 334 674 -77 callsubr
          -28 -639 -97 callsubr
        </CharString>
        <CharString name="Edotaccent">
          -39 274 663 32 callgsubr
          -100 -628 -97 callsubr
        </CharString>
        <CharString name="Egrave">
          -39 304 668 -8 callgsubr
          -109 -620 -97 callsubr
        </CharString>
        <CharString name="Emacron">
          -39 387 714 175 callgsubr
          -213 -644 -97 callsubr
        </CharString>
        <CharString name="Eogonek">
          -39 502 -135 86 callsubr
          -34 callsubr
          -173 257 hlineto
          164 -4 rlineto
          30 48 -30 hlineto
          -164 -7 rlineto
          249 159 vlineto
          69 13 -33 -69 6 hvcurveto
          8 14 0 2 6 hvcurveto
          5 43 1 46 -2 44 rrcurveto
          -417 hlineto
          245 callsubr
          24 -3 22 -11 rrcurveto
          -491 vlineto
          -33 -17 -9 -46 -6 vhcurveto
          -3 204 callsubr
          377 hlineto
          -57 -30 -27 -43 -46 45 callsubr
          endchar
        </CharString>
        <CharString name="Eth">
          6 callgsubr
        </CharString>
        <CharString name="Euro">
          23 522 90 rmoveto
          -34 -53 -51 -15 -60 hhcurveto
          -106 -88 71 125 -22 hvcurveto
          229 hlineto
          7 36 rlineto
          -241 hlineto
          -1 10 0 10 10 vvcurveto
          10 0 10 1 10 vhcurveto
          234 hlineto
          7 37 rlineto
          -237 hlineto
          130 22 85 78 120 hhcurveto
          67 51 -39 -70 1 hvcurveto
          -1 3 17 0 2 hhcurveto
          9 39 6 50 1 37 rrcurveto
          18 -38 -61 13 -57 hhcurveto
          -151 -127 -101 -154 -29 hvcurveto
          -51 hlineto
          -7 -37 rlineto
          52 hlineto
          -1 -11 0 -11 -11 vvcurveto
          -9 0 -9 1 -9 vhcurveto
          -45 hlineto
          -7 -36 rlineto
          56 hlineto
          -158 25 121 -91 134 hhcurveto
          85 64 33 51 50 hvcurveto
          endchar
        </CharString>
        <CharString name="F">
          -69 257 callgsubr
          -1 23 -3 22 -11 rrcurveto
          -488 121 callsubr
          265 callsubr
          -13 1 -9 rrcurveto
          238 hlineto
          2 8 102 callgsubr
          -35 5 -31 4 -35 13 rrcurveto
          220 vlineto
          152 -4 rlineto
          34 48 -34 hlineto
          -152 -7 rlineto
          269 160 vlineto
          68 13 -33 -69 6 hvcurveto
          8 14 0 2 6 hvcurveto
          5 43 1 46 -2 44 rrcurveto
          endchar
        </CharString>
        <CharString name="G">
          65 400 304 -50 callgsubr
        </CharString>
        <CharString name="Gbreve">
          65 431 805 -11 callsubr
          -55 -501 -50 callgsubr
        </CharString>
        <CharString name="H">
          84 541 536 rmoveto
          33 16 9 47 5 vhcurveto
          2 8 1 13 -1 7 rrcurveto
          -202 hlineto
          -3 107 callgsubr
          21 -3 24 -10 rrcurveto
          -243 -294 211 vlineto
          -94 callsubr
          243 294 -210 vlineto
          -33 -18 -9 -45 -6 vhcurveto
          -2 -8 0 -12 -9 vvcurveto
          204 hlineto
          8 1 11 10 vvcurveto
          -23 1 -21 3 -23 11 rrcurveto
          endchar
        </CharString>
        <CharString name="I">
          -282 174 536 -7 callsubr
        </CharString>
        <CharString name="Iacute">
          -282 174 536 rmoveto
          -94 callsubr
          -47 620 -36 callgsubr
        </CharString>
        <CharString name="Icircumflex">
          -282 174 536 rmoveto
          -94 callsubr
          -18 745 188 callgsubr
        </CharString>
        <CharString name="Idieresis">
          -282 203 674 -77 callsubr
          103 -138 -7 callsubr
        </CharString>
        <CharString name="Idotaccent">
          -282 137 663 32 callgsubr
          37 -127 -7 callsubr
        </CharString>
        <CharString name="Igrave">
          -282 168 668 -8 callgsubr
          27 -119 -7 callsubr
        </CharString>
        <CharString name="Imacron">
          -282 174 536 rmoveto
          -94 callsubr
          -150 670 rmoveto
          -35 227 35 vlineto
          endchar
        </CharString>
        <CharString name="Iogonek">
          -282 272 -135 86 callsubr
          2 8 2 11 -1 10 -23 1 -20 3 -24 11 rrcurveto
          492 vlineto
          0 callgsubr
          -203 65 callsubr
          24 -2 21 216 callgsubr
          -491 vlineto
          -33 -17 -9 -46 -6 vhcurveto
          -3 204 callsubr
          147 hlineto
          -57 -30 -27 -43 -46 45 callsubr
          endchar
        </CharString>
        <CharString name="J">
          -292 257 callgsubr
          -2 21 216 callgsubr
          -569 vlineto
          -82 -11 -63 -97 -53 vhcurveto
          3 -6 6 -8 4 -6 rrcurveto
          108 34 59 62 124 vvcurveto
          535 vlineto
          0 callgsubr
          endchar
        </CharString>
        <CharString name="K">
          40 302 299 -25 callsubr
        </CharString>
        <CharString name="L">
          -54 172 35 -55 callsubr
        </CharString>
        <CharString name="Lacute">
          -54 304 787 -48 callsubr
          20 -615 -55 callsubr
        </CharString>
        <CharString name="Lcaron">
          -54 288 502 9 callgsubr
          -97 -481 -55 callsubr
        </CharString>
        <CharString name="Lslash">
          -59 172 35 rmoveto
          264 vlineto
          107 36 -3 14 -2 13 -9 11 rlinecurve
          -93 -32 rlineto
          195 vlineto
          33 18 9 44 5 vhcurveto
          3 8 1 13 -1 7 rrcurveto
          -202 173 callgsubr
          -2 22 216 callgsubr
          -252 vlineto
          -88 -30 2 -15 3 -11 8 -9 rlinecurve
          75 25 rlineto
          -199 66 callsubr
          439 hlineto
          3 45 -2 45 -5 44 rrcurveto
          1 -6 -12 0 -8 hhcurveto
          -68 -6 -13 -32 -68 hhcurveto
          endchar
        </CharString>
        <CharString name="M">
          251 678 531 rmoveto
          -2 36 19 12 31 3 1 11 -2 10 -2 8 rrcurveto
          -131 hlineto
          -195 -490 -178 490 rlineto
          -137 hlineto
          -2 -8 -1 -11 2 -10 22 -3 10 -3 18 -6 -38 -488 rcurveline
          -2 -32 -27 -15 -45 -6 rrcurveto
          139 callsubr
          192 250 callsubr
          11 9 vvcurveto
          -24 1 -27 3 -24 10 40 506 rcurveline
          30 -85 169 -464 rlineto
          24 hlineto
          180 454 32 83 31 -460 2 -34 -22 -8 -45 -6 rlinecurve
          -1 -8 0 -11 1 -10 rrcurveto
          209 hlineto
          2 9 0 11 -1 9 -25 1 -22 4 -25 10 rrcurveto
          endchar
        </CharString>
        <CharString name="N">
          102 444 611 -84 callsubr
        </CharString>
        <CharString name="NULL">
          -557 endchar
        </CharString>
        <CharString name="Nacute">
          102 506 788 -48 callsubr
          90 -40 -84 callsubr
        </CharString>
        <CharString name="Ncaron">
          102 374 658 rmoveto
          107 122 -44 callsubr
          130 -47 -84 callsubr
        </CharString>
        <CharString name="Ntilde">
          102 450 781 8 callsubr
          -34 -170 -84 callsubr
        </CharString>
        <CharString name="O">
          103 522 305 41 callgsubr
        </CharString>
        <CharString name="OE">
          306 443 55 rmoveto
          -20 -32 -25 -6 -41 hhcurveto
          -122 -76 88 187 -9 hvcurveto
          159 -9 67 120 124 hhcurveto
          47 36 -8 -18 40 hvcurveto
          72 -522 rmoveto
          257 vlineto
          140 -4 rlineto
          30 48 -30 hlineto
          -140 -7 rlineto
          249 160 vlineto
          68 13 -33 -69 6 hvcurveto
          8 14 0 2 6 hvcurveto
          6 43 1 46 -3 44 rrcurveto
          -333 hlineto
          9 -44 -37 5 -47 hhcurveto
          -170 -107 -136 -185 -185 104 -132 170 51 40 6 7 39 hvcurveto
          349 76 callsubr
          -8 -13 62 callgsubr
        </CharString>
        <CharString name="Oacute">
          102 522 305 -87 callgsubr
          -12 676 -36 callgsubr
        </CharString>
        <CharString name="Ocircumflex">
          102 522 305 -87 callgsubr
          136 687 98 callgsubr
        </CharString>
        <CharString name="Odieresis">
          102 522 305 -87 callgsubr
          102 730 34 callgsubr
        </CharString>
        <CharString name="Ograve">
          103 250 834 133 callsubr
          162 -363 41 callgsubr
        </CharString>
        <CharString name="Ohungarumlaut">
          103 522 305 -87 callgsubr
          -88 681 37 callgsubr
        </CharString>
        <CharString name="Omacron">
          103 522 305 -87 callgsubr
          -114 692 195 callsubr
        </CharString>
        <CharString name="Oslash">
          102 488 463 rmoveto
          19 -42 12 -53 3 -63 rrcurveto
          -167 9 -66 -109 -120 hhcurveto
          -62 -50 23 47 -36 hvcurveto
          -23 38 rmoveto
          -20 42 -13 56 -3 69 rrcurveto
          159 -9 64 120 121 hhcurveto
          64 52 -27 -53 36 hvcurveto
          150 121 rmoveto
          -54 hlineto
          -53 -67 rlineto
          43 -47 -61 25 -72 hhcurveto
          -170 -103 -136 -185 -92 24 -79 46 -56 hvcurveto
          -71 -90 rlineto
          53 hlineto
          48 60 rlineto
          -38 44 58 -22 72 hhcurveto
          168 107 132 185 88 -24 77 -44 56 hvcurveto
          endchar
        </CharString>
        <CharString name="Otilde">
          103 233 684 44 callsubr
          317 -379 41 callgsubr
        </CharString>
        <CharString name="P">
          -38 172 295 rmoveto
          283 91 vlineto
          104 46 -63 -80 -77 -47 -63 -103 hvcurveto
          -228 316 211 callgsubr
          -5 24 -10 rrcurveto
          -490 66 callsubr
          232 hlineto
          2 8 2 11 -1 10 -33 250 callgsubr
          12 rrcurveto
          211 108 vlineto
          133 82 83 92 94 -82 82 -134 hvcurveto
          endchar
        </CharString>
        <CharString name="Q">
          103 138 304 rmoveto
          169 -5 72 111 117 hhcurveto
          115 81 -88 -191 4 hvcurveto
          -178 4 -72 -100 -117 hhcurveto
          -116 -80 78 199 -3 hvcurveto
          402 -390 rmoveto
          -11 -31 -39 -8 -25 hhcurveto
          -40 -25 44 50 -11 hvcurveto
          145 19 91 126 170 vvcurveto
          185 -107 136 -169 -170 -103 -136 -185 -172 90 -127 150 -16 vhcurveto
          -72 16 52 -69 62 hhcurveto
          46 44 19 26 36 hvcurveto
          endchar
        </CharString>
        <CharString name="R">
          9 174 320 -79 callsubr
        </CharString>
        <CharString name="Racute">
          9 458 787 -48 callsubr
          -132 -330 -79 callsubr
        </CharString>
        <CharString name="Rcaron">
          9 326 656 rmoveto
          107 122 -44 callsubr
          -92 -336 -79 callsubr
        </CharString>
        <CharString name="S">
          -85 -69 callgsubr
          endchar
        </CharString>
        <CharString name="Sacute">
          -85 -69 callgsubr
          -161 73 -36 callgsubr
        </CharString>
        <CharString name="Scaron">
          -44 -69 callgsubr
          5 189 rmoveto
          -44 callsubr
          60 hlineto
          endchar
        </CharString>
        <CharString name="T">
          -43 21 611 -33 callgsubr
        </CharString>
        <CharString name="Tcaron">
          -43 287 658 rmoveto
          107 122 -44 callsubr
          -206 -47 -33 callgsubr
        </CharString>
        <CharString name="Thorn">
          -31 174 191 rmoveto
          242 97 vlineto
          88 45 -45 -77 -76 -49 -44 -84 hvcurveto
          -97 277 rmoveto
          68 vlineto
          -94 callsubr
          112 114 vlineto
          125 72 64 91 93 -72 64 -125 hvcurveto
          endchar
        </CharString>
        <CharString name="U">
          96 414 611 -96 callgsubr
        </CharString>
        <CharString name="Uacute">
          108 477 787 -48 callsubr
          89 -39 -96 callgsubr
        </CharString>
        <CharString name="Ucircumflex">
          108 314 729 20 callsubr
          219 -44 -96 callgsubr
        </CharString>
        <CharString name="Udieresis">
          108 374 674 -77 callsubr
          172 -63 -96 callgsubr
        </CharString>
        <CharString name="Ugrave">
          96 359 668 -8 callgsubr
          76 -44 -96 callgsubr
        </CharString>
        <CharString name="Uhungarumlaut">
          96 375 658 114 callsubr
          148 -47 -96 callgsubr
        </CharString>
        <CharString name="Umacron">
          96 442 714 175 callgsubr
          -28 -68 -96 callgsubr
        </CharString>
        <CharString name="Uogonek">
          96 414 611 rmoveto
          -3 107 callgsubr
          21 -3 24 -10 rrcurveto
          -368 vlineto
          -118 -61 -52 -88 -88 -63 51 119 vhcurveto
          336 vlineto
          33 18 9 45 5 vhcurveto
          2 8 0 13 7 vvcurveto
          -202 hlineto
          -2 -6 -2 -13 220 callsubr
          21 216 callgsubr
          -361 vlineto
          -158 97 -61 125 vhcurveto
          11 hlineto
          -43 -29 -21 -37 -41 47 callsubr
          37 18 36 52 26 hvcurveto
          82 24 56 64 120 vvcurveto
          329 vlineto
          33 16 9 47 5 vhcurveto
          2 8 1 13 -1 7 rrcurveto
          endchar
        </CharString>
        <CharString name="Uring">
          96 329 766 2 callgsubr
          85 -42 -96 callgsubr
        </CharString>
        <CharString name="V">
          30 417 611 rmoveto
          -2 -8 -1 -10 -11 vvcurveto
          26 -1 20 -5 22 -9 -171 -466 rcurveline
          -3 hlineto
          -5 22 -7 21 -7 19 -139 370 rcurveline
          -14 36 11 8 53 5 rrcurveto
          11 -1 9 -2 9 vhcurveto
          -193 hlineto
          -2 -9 2 -9 2 -11 17 -1 19 -5 18 -6 221 -576 rcurveline
          27 hlineto
          201 538 14 37 23 8 33 5 rlinecurve
          3 11 1 9 1 9 rrcurveto
          endchar
        </CharString>
        <CharString name="W">
          316 723 611 rmoveto
          -3 -8 -2 -10 -1 -11 21 -2 18 -6 17 -9 -136 -456 rcurveline
          -2 hlineto
          -2 22 -5 20 -6 18 -145 411 rcurveline
          -25 hlineto
          -178 -467 rlineto
          -3 hlineto
          -3 24 -6 23 -6 19 -105 354 rcurveline
          -11 35 10 9 58 5 rrcurveto
          11 -1 8 -4 10 vhcurveto
          -198 hlineto
          -1 -9 1 -9 2 -11 17 -1 19 -5 19 -7 175 -575 rcurveline
          25 hlineto
          182 466 165 -466 rlineto
          26 hlineto
          165 533 12 40 16 8 37 7 rlinecurve
          2 11 2 9 -1 9 rrcurveto
          endchar
        </CharString>
        <CharString name="X">
          42 333 318 rmoveto
          160 218 24 32 16 11 33 4 rlinecurve
          3 9 1 9 10 vvcurveto
          -162 hlineto
          -2 -8 -1 -11 220 callsubr
          21 -5 20 -7 -161 -219 rcurveline
          -134 192 -18 24 7 11 55 6 rlinecurve
          9 -1 10 -3 9 vhcurveto
          -187 hlineto
          -3 -8 2 -11 3 -10 11 -1 14 -3 13 -3 193 -276 rcurveline
          -154 -222 -26 -32 -15 -12 -33 -4 rlinecurve
          -3 -9 -2 -10 1 -10 rrcurveto
          162 hlineto
          2 9 1 10 -1 10 -23 1 -22 5 -20 8 157 222 rcurveline
          137 -195 18 -26 -7 -9 -54 -6 rlinecurve
          -9 -1 -11 5 -9 vhcurveto
          186 hlineto
          1 9 -2 12 -2 8 -11 2 -14 3 -13 4 rrcurveto
          endchar
        </CharString>
        <CharString name="Y">
          8 410 611 -59 callgsubr
        </CharString>
        <CharString name="Yacute">
          8 450 788 -48 callsubr
          112 -40 -59 callgsubr
        </CharString>
        <CharString name="Ydieresis">
          8 353 674 -77 callsubr
          189 -63 -59 callgsubr
        </CharString>
        <CharString name="Z">
          -19 136 40 -50 callsubr
        </CharString>
        <CharString name="Zacute">
          -19 465 788 -48 callsubr
          -177 -611 -50 callsubr
        </CharString>
        <CharString name="Zcaron">
          -19 333 658 rmoveto
          107 122 -44 callsubr
          -137 -618 -50 callsubr
        </CharString>
        <CharString name="Zdotaccent">
          -19 302 663 32 callgsubr
          -166 -623 -50 callsubr
        </CharString>
        <CharString name="a">
          -92 292 244 -101 callsubr
        </CharString>
        <CharString name="aacute">
          -92 390 631 -48 callsubr
          54 -250 -101 callsubr
        </CharString>
        <CharString name="abreve">
          -92 319 648 -11 callsubr
          -51 -404 -101 callsubr
        </CharString>
        <CharString name="acircumflex">
          -92 227 572 20 callsubr
          184 -254 -101 callsubr
        </CharString>
        <CharString name="acute">
          -364 10 508 -36 callgsubr
        </CharString>
        <CharString name="adieresis">
          -92 293 517 -77 callsubr
          131 -273 -101 callsubr
        </CharString>
        <CharString name="ae">
          164 490 299 rmoveto
          -116 -8 rlineto
          98 16 62 38 49 hhcurveto
          53 49 -35 -93 1 hvcurveto
          -312 -55 rmoveto
          -25 vlineto
          -44 8 -37 15 -31 vhcurveto
          -42 -31 -35 -23 -49 36 callgsubr
          449 32 rmoveto
          4 5 4 7 2 6 rrcurveto
          128 -76 63 -94 -52 -63 -25 -53 -43 vhcurveto
          49 -16 -40 29 -59 hhcurveto
          -60 -59 -22 -39 -47 hvcurveto
          13 -20 rlineto
          15 43 43 9 42 hhcurveto
          59 21 -29 -58 hvcurveto
          -44 vlineto
          -95 -21 rlineto
          -103 -23 -49 -44 -80 vvcurveto
          -68 52 -55 82 63 53 41 50 35 vhcurveto
          -62 41 66 -29 59 hhcurveto
          77 59 34 49 43 hvcurveto
          -9 18 rlineto
          -32 -48 -49 -16 -52 hhcurveto
          -94 -54 69 125 8 0 8 1 7 hvcurveto
          endchar
        </CharString>
        <CharString name="agrave">
          -92 257 511 -8 callgsubr
          56 -254 -101 callsubr
        </CharString>
        <CharString name="amacron">
          -92 341 557 175 callgsubr
          -49 -278 -101 callsubr
        </CharString>
        <CharString name="ampersand">
          103 400 132 rmoveto
          -62 -58 -44 -22 -65 hhcurveto
          -68 -40 44 59 55 28 55 101 50 hvcurveto
          18 91 rmoveto
          -31 38 -9 21 35 vvcurveto
          53 40 38 50 50 40 -38 -55 -57 -35 -38 -76 -32 vhcurveto
          172 -209 rmoveto
          71 80 26 28 28 15 41 5 rlinecurve
          2 8 1 13 -1 9 rrcurveto
          -167 hlineto
          -2 -8 -1 -12 -10 vvcurveto
          22 -2 18 -2 21 -8 -82 -89 rcurveline
          -130 158 rlineto
          97 34 70 38 81 vvcurveto
          74 -74 54 -91 -88 -79 -56 -83 -44 20 -32 37 -47 vhcurveto
          22 -27 rlineto
          -120 -41 -65 -64 -89 vvcurveto
          -95 72 -59 91 81 56 36 81 74 vhcurveto
          85 -104 rlineto
          128 hlineto
          3 9 1 11 10 vvcurveto
          -43 2 -31 10 -35 45 rrcurveto
          endchar
        </CharString>
        <CharString name="aogonek">
          -92 292 244 -28 callsubr
          215 -361 rmoveto
          65 callgsubr
          34 15 33 42 25 hvcurveto
          21 7 18 16 13 18 -6 13 rcurveline
          -3 -14 -12 -3 -11 hhcurveto
          -22 -9 14 40 hvcurveto
          237 vlineto
          85 -47 51 -81 -60 -59 -22 -39 -47 vhcurveto
          13 -20 rlineto
          15 43 43 9 42 hhcurveto
          59 21 -29 -58 hvcurveto
          -44 vlineto
          -95 -21 rlineto
          -103 -23 -49 -44 -80 vvcurveto
          -68 52 -55 81 48 40 24 31 28 vhcurveto
          6 -25 15 -17 20 -8 rrcurveto
          -49 -29 -23 -40 -43 45 callsubr
          endchar
        </CharString>
        <CharString name="apostrophemod">
          -390 56 562 -41 callsubr
          endchar
        </CharString>
        <CharString name="approxequal">
          64 84 339 rmoveto
          51 9 35 28 48 72 85 -82 93 hhcurveto
          77 57 46 90 11 hvcurveto
          -35 hlineto
          -51 -9 -35 -28 -47 -76 -92 82 -82 hhcurveto
          -77 -57 -46 -90 -11 hvcurveto
          34 -182 rmoveto
          50 9 35 28 48 72 85 -81 93 hhcurveto
          77 57 46 89 11 hvcurveto
          -35 hlineto
          -50 -9 -35 -29 -47 -76 -92 82 -82 hhcurveto
          -77 -57 -46 -89 -11 hvcurveto
          endchar
        </CharString>
        <CharString name="aring">
          -92 227 609 2 callgsubr
          65 -252 -101 callsubr
        </CharString>
        <CharString name="asciicircum">
          -92 32 217 rmoveto
          59 hlineto
          142 322 142 -322 rlineto
          58 hlineto
          -174 378 rlineto
          -53 hlineto
          endchar
        </CharString>
        <CharString name="asciitilde">
          64 84 254 rmoveto
          49 9 34 30 47 74 81 -84 99 hhcurveto
          77 55 52 90 11 hvcurveto
          -34 hlineto
          -49 -9 -34 -30 -47 -76 -92 84 -87 hhcurveto
          -76 -55 -52 -90 -11 hvcurveto
          endchar
        </CharString>
        <CharString name="asterisk">
          -91 237 675 rmoveto
          -21 6 -33 -4 -12 -6 18 -124 rcurveline
          -111 44 rlineto
          -11 -9 -9 -35 -19 vvcurveto
          120 -18 -85 -94 12 -18 28 -17 15 -3 rlinecurve
          59 109 67 -107 21 8 24 21 6 13 rlinecurve
          -89 88 116 18 1 17 -9 36 -10 10 rlinecurve
          -107 -45 rlineto
          endchar
        </CharString>
        <CharString name="at">
          354 531 143 rmoveto
          -63 -32 -41 -44 -49 hhcurveto
          -47 -41 44 113 18 hvcurveto
          113 18 61 63 66 hhcurveto
          51 17 -36 -54 -6 hvcurveto
          73 -6 rmoveto
          85 10 -46 56 -90 hhcurveto
          -111 -97 -98 -127 -21 hvcurveto
          -123 -21 59 -78 87 hhcurveto
          53 49 33 48 32 hvcurveto
          -53 -3 28 -28 50 hhcurveto
          114 141 114 175 7 hvcurveto
          184 8 -143 127 -192 hhcurveto
          -264 -208 -205 -254 -10 hvcurveto
          -211 -9 144 -98 161 hhcurveto
          83 64 16 28 66 hvcurveto
          1 13 -4 12 -6 8 rrcurveto
          -19 -63 -58 -9 -69 hhcurveto
          -132 -116 78 192 9 hvcurveto
          216 9 152 185 239 hhcurveto
          172 103 -115 -163 -7 hvcurveto
          -153 -7 -100 -78 -63 hhcurveto
          -24 -3 15 28 4 hvcurveto
          endchar
        </CharString>
        <CharString name="atilde">
          -92 333 624 8 callsubr
          -69 -380 -101 callsubr
        </CharString>
        <CharString name="b">
          -44 148 283 rmoveto
          96 11 56 40 55 hhcurveto
          58 61 -46 -137 -138 -63 -65 -77 -36 -33 7 18 -32 hvcurveto
          657 vmoveto
          -51 -7 -42 -12 -44 -18 rrcurveto
          -4 -8 -1 -10 -10 vvcurveto
          25 1 23 1 22 -2 rrcurveto
          -539 vlineto
          -38 -7 -39 -15 -34 vhcurveto
          12 -11 21 9 17 12 13 16 rlinecurve
          -25 38 42 -13 43 hhcurveto
          121 109 89 159 158 -96 73 -90 -60 -52 -38 -70 -24 hvcurveto
          endchar
        </CharString>
        <CharString name="backslash">
          -96 108 693 rmoveto
          182 -719 rlineto
          61 hlineto
          -181 719 rlineto
          endchar
        </CharString>
        <CharString name="bar">
          -234 132 693 rmoveto
          -719 61 719 vlineto
          endchar
        </CharString>
        <CharString name="braceleft">
          -162 92 303 rmoveto
          61 -5 15 -32 -45 -57 -37 -59 -78 vvcurveto
          -101 77 -62 154 3 vhcurveto
          26 vlineto
          -129 3 -32 62 64 78 36 48 71 vvcurveto
          57 -29 37 -56 14 vhcurveto
          56 13 29 37 57 71 -36 48 78 vvcurveto
          64 32 63 129 2 vhcurveto
          26 vlineto
          -154 3 -77 -62 -101 -78 37 -59 -57 vvcurveto
          -45 -15 -32 -61 -5 vhcurveto
          endchar
        </CharString>
        <CharString name="braceright">
          -162 226 432 rmoveto
          57 38 59 78 vvcurveto
          101 -78 62 -154 -3 vhcurveto
          -26 vlineto
          130 -2 32 -63 -64 -78 -36 -48 -71 vvcurveto
          -57 29 -37 55 -13 vhcurveto
          -55 -14 -29 -37 -57 -71 36 -48 -78 vvcurveto
          -64 -32 -62 -130 -3 vhcurveto
          -26 vlineto
          154 -3 78 62 101 78 -38 59 57 vvcurveto
          45 15 32 62 5 vhcurveto
          47 vlineto
          -62 5 -15 32 45 vvcurveto
          endchar
        </CharString>
        <CharString name="bracketleft">
          -237 172 737 rmoveto
          118 37 -190 -905 190 38 -118 hlineto
          endchar
        </CharString>
        <CharString name="bracketright">
          -237 30 -93 rmoveto
          -38 190 905 -190 -37 118 -830 vlineto
          endchar
        </CharString>
        <CharString name="breve">
          -300 220 648 -11 callsubr
          endchar
        </CharString>
        <CharString name="brokenbar">
          -232 132 260 rmoveto
          -286 61 286 vlineto
          147 vmoveto
          286 -61 -286 vlineto
          endchar
        </CharString>
        <CharString name="bullet">
          -248 153 264 rmoveto
          37 28 27 33 36 -28 29 -37 -33 -27 -29 -36 -33 27 -27 33 hvcurveto
          endchar
        </CharString>
        <CharString name="c">
          -105 404 77 rmoveto
          -18 callsubr
          -143 94 -88 111 73 49 27 46 49 hvcurveto
          endchar
        </CharString>
        <CharString name="cacute">
          -105 404 77 rmoveto
          -18 callsubr
          -143 94 -88 111 73 49 27 46 49 hvcurveto
          -161 454 -36 callgsubr
        </CharString>
        <CharString name="caron">
          -261 286 623 rmoveto
          -44 callsubr
          60 hlineto
          endchar
        </CharString>
        <CharString name="ccaron">
          -105 404 77 rmoveto
          -18 callsubr
          -143 94 -88 111 73 49 27 46 49 hvcurveto
          -13 570 rmoveto
          -44 callsubr
          60 hlineto
          endchar
        </CharString>
        <CharString name="ccedilla">
          -105 244 -70 rmoveto
          12 58 68 3 46 26 47 44 rlinecurve
          -13 16 rlineto
          -18 callsubr
          -123 69 -82 90 -21 hvcurveto
          -19 -94 99 callsubr
        </CharString>
        <CharString name="cedilla">
          -300 157 -70 rmoveto
          17 82 rlineto
          -57 hlineto
          -23 -113 99 callsubr
        </CharString>
        <CharString name="cent">
          -129 404 77 rmoveto
          -27 -46 -41 -15 -55 hhcurveto
          -85 -58 75 114 128 60 74 88 63 48 -38 -65 hvcurveto
          6 -1 8 -1 7 -1 rrcurveto
          5 31 4 48 29 vvcurveto
          -34 24 -47 14 -48 1 rrcurveto
          68 -46 -71 vlineto
          -114 -17 -78 -93 -135 vvcurveto
          -136 85 -86 104 -8 vhcurveto
          -69 46 70 vlineto
          57 6 42 26 42 39 rrcurveto
          endchar
        </CharString>
        <CharString name="circumflex">
          -261 286 517 98 callgsubr
        </CharString>
        <CharString name="colon">
          -289 183 458 rmoveto
          27 -22 22 -28 -27 -21 -22 -27 -28 21 -21 27 28 22 21 28 vhcurveto
          -359 vmoveto
          27 -22 22 -28 -27 -21 -22 -27 -27 21 -21 27 28 22 21 27 vhcurveto
          endchar
        </CharString>
        <CharString name="comma">
          -385 62 -101 -41 callsubr
          endchar
        </CharString>
        <CharString name="commaaccent">
          -427 30 -207 140 callsubr
        </CharString>
        <CharString name="commaaccent.alt">
          -429 29 502 140 callgsubr
        </CharString>
        <CharString name="copyright">
          214 505 188 rmoveto
          -24 -36 -30 -10 -39 hhcurveto
          -78 -52 60 106 104 49 69 87 43 28 -23 -47 hvcurveto
          8 -1 7 0 7 2 rrcurveto
          7 25 6 36 26 vvcurveto
          11 -25 -40 11 -40 hhcurveto
          -116 -85 -88 -128 -129 81 -78 101 59 43 25 35 34 hvcurveto
          195 147 rmoveto
          205 -145 127 -188 -189 -145 -127 -205 -206 145 -126 189 188 145 126 206 vhcurveto
          -623 hmoveto
          190 131 106 159 159 130 -106 -190 -191 -130 -106 -159 -159 -131 106 191 vhcurveto
          endchar
        </CharString>
        <CharString name="currency">
          -103 226 204 rmoveto
          -43 -43 33 85 86 43 31 43 44 43 -31 -86 -85 -43 -33 -44 hvcurveto
          198 235 rmoveto
          -31 41 -62 -50 rlineto
          28 -28 -38 15 -39 hhcurveto
          -39 -37 -15 -27 -27 hvcurveto
          -63 49 -30 -41 66 -46 rlineto
          -10 -21 -6 -24 -27 vvcurveto
          -27 5 -24 10 -20 vhcurveto
          -65 -46 30 -41 62 49 rlineto
          -27 27 38 -14 39 hhcurveto
          39 38 14 27 28 hvcurveto
          62 -49 31 41 -66 47 rlineto
          10 20 5 23 27 vvcurveto
          27 -6 24 -10 21 vhcurveto
          endchar
        </CharString>
        <CharString name="d">
          -25 78 callgsubr
          140 -367 rmoveto
          193 callgsubr
          621 vlineto
          117 callgsubr
          -186 40 callsubr
          endchar
        </CharString>
        <CharString name="dagger">
          -71 403 568 rmoveto
          -42 -7 -19 -12 -64 hhcurveto
          -37 hlineto
          3 114 rlineto
          33 17 9 45 5 vhcurveto
          2 8 1 13 -1 7 rrcurveto
          -200 hlineto
          -1 -7 1 -13 2 -8 rrcurveto
          46 -5 16 -9 -33 vvcurveto
          3 -114 rlineto
          -44 hlineto
          -64 -13 12 42 -6 hvcurveto
          -25 -2 -7 -38 0 -62 7 -38 rlinecurve
          25 -1 rlineto
          41 6 13 12 64 hhcurveto
          45 hlineto
          18 -704 9 -4 10 0 8 4 rlinecurve
          19 704 rlineto
          38 hlineto
          64 19 -12 -41 7 hvcurveto
          25 1 5 38 0 73 -5 27 rlinecurve
          endchar
        </CharString>
        <CharString name="daggerdbl">
          -69 405 52 rmoveto
          -42 -7 -20 -12 -63 hhcurveto
          -53 hlineto
          17 224 rlineto
          28 vlineto
          -16 225 rlineto
          52 hlineto
          63 20 -12 -42 7 hvcurveto
          25 2 3 39 0 70 -3 29 rlinecurve
          -25 1 rlineto
          -41 -7 -20 -12 -63 hhcurveto
          -51 hlineto
          15 114 3 32 15 9 44 6 rlinecurve
          3 8 0 12 8 vvcurveto
          -197 hlineto
          -8 0 -12 3 -8 vhcurveto
          45 -6 12 -8 5 -33 15 -114 rcurveline
          -59 hlineto
          -63 -14 12 41 -6 hvcurveto
          -25 -1 -5 -40 0 -59 5 -39 rlinecurve
          25 -2 rlineto
          42 6 14 12 63 hhcurveto
          60 hlineto
          -16 -225 rlineto
          -28 vlineto
          16 -224 rlineto
          -60 hlineto
          -63 -14 12 42 -6 hvcurveto
          -25 -2 -5 -39 0 -59 5 -40 rlinecurve
          25 -1 rlineto
          41 6 14 12 63 hhcurveto
          59 hlineto
          -15 -114 -4 -32 -13 -9 -45 -5 rlinecurve
          -3 -9 0 -12 -8 vvcurveto
          197 hlineto
          8 0 12 -3 9 vhcurveto
          -44 5 -14 8 -4 33 -16 114 rcurveline
          52 hlineto
          63 20 -12 -41 7 hvcurveto
          25 1 3 29 0 70 -3 39 rlinecurve
          endchar
        </CharString>
        <CharString name="danda">
          -243 192 555 rmoveto
          -71 52 rlineto
          -598 vlineto
          71 -51 rlineto
          endchar
        </CharString>
        <CharString name="dcaron">
          -25 78 callgsubr
          72 303 rmoveto
          117 callgsubr
          -186 40 callsubr
          -7 12 rlineto
          193 callgsubr
          49 486 140 callgsubr
        </CharString>
        <CharString name="dcroat">
          -23 78 callgsubr
          72 154 rmoveto
          80 23 rlineto
          13 -4 13 -6 10 vhcurveto
          -70 -20 rlineto
          110 vlineto
          117 callgsubr
          -66 vlineto
          -106 -31 -1 -15 4 -11 7 -10 rlinecurve
          96 28 rlineto
          -81 40 callsubr
          -7 12 rlineto
          193 callgsubr
          endchar
        </CharString>
        <CharString name="degree">
          -249 153 396 rmoveto
          69 56 43 82 82 -56 44 -69 -68 -55 -44 -82 -82 55 -43 68 hvcurveto
          218 vmoveto
          35 31 -25 -67 -66 -31 -26 -35 -35 -29 26 66 67 29 25 35 hvcurveto
          endchar
        </CharString>
        <CharString name="dieresis">
          -320 227 560 34 callgsubr
        </CharString>
        <CharString name="divide">
          37 346 502 rmoveto
          27 -22 22 -27 -27 -21 -22 -27 -27 21 -22 27 27 22 22 27 vhcurveto
          -353 vmoveto
          28 -22 21 -27 -27 -21 -21 -28 -27 21 -22 27 27 22 22 27 vhcurveto
          -304 203 rmoveto
          -53 510 53 vlineto
          endchar
        </CharString>
        <CharString name="dollar">
          -82 267 267 rmoveto
          53 -29 42 -34 -62 vvcurveto
          -55 -38 -42 -57 -12 vhcurveto
          -40 334 rmoveto
          -52 28 -42 32 57 vvcurveto
          55 35 36 59 6 vhcurveto
          40 hmoveto
          58 -6 39 -32 13 -68 rrcurveto
          -2 6 9 0 7 hhcurveto
          7 36 3 40 1 42 -42 16 -45 12 -56 2 rrcurveto
          75 -40 -76 vlineto
          -91 -9 -68 -55 -87 vvcurveto
          -102 82 -40 77 -39 vhcurveto
          -258 vlineto
          -79 2 -58 35 2 110 rrcurveto
          3 -10 -7 0 -9 hhcurveto
          -6 -40 -4 -55 2 -52 rrcurveto
          -27 56 52 -14 60 hhcurveto
          1 -75 40 78 hlineto
          97 13 67 62 92 vvcurveto
          106 -85 41 -79 38 vhcurveto
          endchar
        </CharString>
        <CharString name="dotaccent">
          -440 58 506 32 callgsubr
          endchar
        </CharString>
        <CharString name="dotlessi">
          -280 171 461 70 callgsubr
        </CharString>
        <CharString name="dottedcircle">
          103 139 469 rmoveto
          -26 18 -19 26 26 18 19 26 25 -18 19 -26 -26 -18 -19 -25 vhcurveto
          -82 -110 rmoveto
          -25 20 -19 26 24 20 19 25 25 -20 19 -24 -26 -20 -19 -25 vhcurveto
          -13 -126 rmoveto
          -25 19 -18 25 26 18 18 270 callsubr
          52 -116 rmoveto
          -26 18 -18 26 25 19 18 26 25 -19 19 -25 -26 -18 -19 -25 vhcurveto
          101 -75 rmoveto
          -26 19 -20 26 25 19 20 26 24 -19 20 -25 -26 -19 -20 -24 vhcurveto
          127 -16 rmoveto
          -26 18 -18 26 26 19 18 26 26 -19 18 -26 -26 -18 -18 -26 vhcurveto
          121 53 rmoveto
          -26 19 -18 25 25 20 18 26 25 -20 19 -25 -25 -19 -19 -25 vhcurveto
          73 98 rmoveto
          -25 19 -19 26 24 19 19 25 26 -19 19 -24 -26 -19 -19 -26 vhcurveto
          10 134 rmoveto
          -26 18 -18 26 25 19 18 26 26 -19 18 -25 -26 -18 -18 -26 vhcurveto
          -50 118 rmoveto
          -25 19 -19 25 26 18 19 270 callsubr
          -95 68 rmoveto
          -24 19 -20 26 25 18 20 24 26 -18 19 -25 -26 -19 -19 -26 vhcurveto
          -126 15 rmoveto
          -26 18 -18 26 26 18 18 26 26 -18 18 -26 -26 -18 -18 -26 vhcurveto
          endchar
        </CharString>
        <CharString name="doubledanda">
          -15 192 554 rmoveto
          -71 53 rlineto
          -598 vlineto
          71 -51 rlineto
          236 596 rmoveto
          -72 53 rlineto
          -598 vlineto
          72 -51 rlineto
          endchar
        </CharString>
        <CharString name="dvA">
          217 310 37 rmoveto
          138 callgsubr
          150 206 callgsubr
          -305 13 callgsubr
          endchar
        </CharString>
        <CharString name="dvAA">
          438 1006 -4 callsubr
          -552 13 callgsubr
          138 callgsubr
          172 -564 vlineto
          198 callgsubr
          150 vlineto
          endchar
        </CharString>
        <CharString name="dvAI">
          14 196 222 callgsubr
          -484 21 callsubr
          -38 60 rlineto
          -125 208 callsubr
        </CharString>
        <CharString name="dvAU">
          492 680 854 rmoveto
          5 15 15 2 12 hhcurveto
          92 42 -130 -84 36 hvcurveto
          69 -49 -88 69 -87 hhcurveto
          -27 -27 191 callgsubr
          -350 -64 callgsubr
          166 195 callgsubr
          -37 60 rlineto
          -144 hlineto
          80 -24 -73 217 -130 hhcurveto
          -16 -25 -4 -8 -17 hvcurveto
          endchar
        </CharString>
        <CharString name="dvAbbreviationsign">
          -48 260 380 rmoveto
          -90 -2 -59 -67 -75 vvcurveto
          -83 61 -50 79 vhcurveto
          92 4 56 69 75 vvcurveto
          72 -49 57 -90 vhcurveto
          -35 -239 rmoveto
          -45 -24 34 41 84 75 41 55 43 26 -29 -39 -65 -51 -67 -79 hvcurveto
          endchar
        </CharString>
        <CharString name="dvAnusvara">
          -557 -185 805 32 callsubr
          endchar
        </CharString>
        <CharString name="dvAnusvara.amI">
          -557 -22 806 32 callsubr
          endchar
        </CharString>
        <CharString name="dvAvagraha">
          51 271 411 rmoveto
          -46 42 -20 34 26 vvcurveto
          34 23 20 36 vhcurveto
          245 hlineto
          -52 59 rlineto
          -223 hlineto
          -73 -34 -34 -45 -41 26 -52 47 -45 hvcurveto
          150 -145 rlineto
          40 -38 30 -46 -44 vvcurveto
          -54 -29 -53 -101 -90 -85 88 47 -31 vhcurveto
          -34 -31 rlineto
          -53 35 103 -112 129 hhcurveto
          114 55 81 76 57 -43 71 -61 56 hvcurveto
          endchar
        </CharString>
        <CharString name="dvB">
          -217 400 57 callsubr
          -421 -76 callsubr
          420 -295 rmoveto
          -19 -25 -20 -24 -18 -17 -177 190 rcurveline
          -88 callsubr
          79 66 71 55 39 hvcurveto
          -210 -71 rmoveto
          -73 -56 61 68 36 13 93 callsubr
        </CharString>
        <CharString name="dvBA">
          19 483 567 rmoveto
          154 159 callsubr
          -657 -76 callsubr
          431 -283 hlineto
          72 callgsubr
          -251 199 rmoveto
          -47 callgsubr
          178 -190 rlineto
          -20 -29 -28 -11 -25 hhcurveto
          endchar
        </CharString>
        <CharString name="dvBH">
          -232 345 -4 callsubr
          -109 -98 callgsubr
          109 hlineto
          -283 -257 rmoveto
          118 callgsubr
          246 vlineto
          -42 68 rlineto
          -205 -25 callgsubr
          -79 -98 callgsubr
          72 99 callgsubr
          -177 vlineto
          endchar
        </CharString>
        <CharString name="dvBHA">
          8 585 627 22 callsubr
          -78 -98 callgsubr
          71 hlineto
          115 callgsubr
        </CharString>
        <CharString name="dvBH_LA">
          483 1061 -4 callsubr
          -825 -98 callgsubr
          599 67 callsubr
          -75 -61 -47 -69 -19 hvcurveto
          -189 -25 callgsubr
          -79 -98 callgsubr
          72 99 callgsubr
          -177 -21 vlineto
          118 callgsubr
          183 vlineto
          12 -113 98 -105 84 -72 37 26 rcurveline
          -98 callsubr
        </CharString>
        <CharString name="dvBH_NA">
          14 591 -4 callsubr
          -355 -98 callgsubr
          130 -254 -215 144 hlineto
          45 -13 28 -29 28 vhcurveto
          -7 7 -21 19 -9 8 rrcurveto
          28 -32 -29 7 -35 hhcurveto
          -76 -98 callgsubr
          69 99 callgsubr
          -175 -20 vlineto
          -31 -18 -11 -25 -49 77 -80 40 97 callsubr
          73 215 -9 vlineto
          -242 -210 172 callgsubr
          79 -20 42 25 22 9 18 212 callgsubr
          -5 7 153 146 rcurveline
          -165 vlineto
          72 -50 -99 callsubr
        </CharString>
        <CharString name="dvBH_R">
          -231 346 -4 callsubr
          -110 -98 callgsubr
          110 hlineto
          25 -330 rmoveto
          -286 -250 54 -38 286 276 -88 88 rlineto
          -186 42 callsubr
          -20 vlineto
          -31 -18 -11 -25 -49 77 -80 40 97 callsubr
          73 220 vlineto
          endchar
        </CharString>
        <CharString name="dvBH_RA">
          14 125 -13 rmoveto
          54 -38 227 217 rlineto
          -164 vlineto
          72 -50 rlineto
          615 146 vlineto
          -41 60 rlineto
          -347 -98 callgsubr
          130 -254 -215 42 callsubr
          -19 vlineto
          -32 -18 -11 -25 -49 77 -77 40 97 callsubr
          71 215 -13 vlineto
          endchar
        </CharString>
        <CharString name="dvBH_R_YA">
          353 745 301 42 callgsubr
          -694 -98 callgsubr
          183 -72 callgsubr
          -5 0 -5 1 -5 vhcurveto
          -174 42 callsubr
          -20 vlineto
          -31 -18 -11 -25 -49 77 -80 40 97 callsubr
          73 203 vlineto
          3 -5 4 -4 3 -5 -279 -244 rcurveline
          54 -38 256 247 rlineto
          -44 45 60 -34 54 -103 callsubr
        </CharString>
        <CharString name="dvBH_VA">
          341 918 -4 callsubr
          -682 -98 callgsubr
          457 -286 hlineto
          -100 callgsubr
          -84 -81 -65 -107 -2 hvcurveto
          -182 -25 callgsubr
          -79 -98 callgsubr
          72 99 callgsubr
          -177 -21 vlineto
          118 callgsubr
          193 vlineto
          -82 31 86 -61 81 hhcurveto
          -73 callsubr
        </CharString>
        <CharString name="dvBH_YA">
          342 734 301 42 callgsubr
          -684 -10 callgsubr
          -6 1 -6 1 -6 vhcurveto
          -162 -25 callgsubr
          -79 -98 callgsubr
          72 99 callgsubr
          -177 -21 vlineto
          118 callgsubr
          191 vlineto
          -65 44 82 -59 72 -103 callsubr
        </CharString>
        <CharString name="dvB_BA">
          368 662 182 rmoveto
          -20 -29 -28 -11 -25 hhcurveto
          -47 callgsubr
          -170 -189 -64 callsubr
          807 255 rmoveto
          -1005 -76 callsubr
          779 44 callgsubr
          -81 -89 -69 -106 -13 1 -13 3 -12 hvcurveto
          -18 -23 -18 -22 -17 -16 -177 190 rcurveline
          -88 callsubr
          68 59 53 50 40 hvcurveto
          -61 41 72 -42 67 117 callsubr
        </CharString>
        <CharString name="dvB_BHA">
          341 -3 callgsubr
          781 255 162 callsubr
          -29 25 -27 9 -30 1 rlinecurve
          0 -421 vlineto
          41 -60 rlineto
          404 hlineto
          46 25 -35 -45 hvcurveto
          -177 vlineto
          -57 -13 -11 -26 -5 1 -6 2 -6 hvcurveto
          -15 -19 -16 -18 -14 -13 -177 190 rcurveline
          -88 callsubr
          67 58 52 49 40 hvcurveto
          -27 25 32 -22 21 hhcurveto
          215 callgsubr
          52 callgsubr
        </CharString>
        <CharString name="dvB_BH_RA">
          343 -3 callgsubr
          775 255 142 callsubr
          -27 24 -25 8 -29 2 rrcurveto
          1 -421 vlineto
          41 -60 rlineto
          398 271 callsubr
          -32 -18 -11 -25 -7 2 -8 3 -9 hvcurveto
          -14 -17 -15 -16 -13 -13 -177 190 rcurveline
          -88 callsubr
          67 57 51 48 40 hvcurveto
          -25 24 30 -20 20 119 callsubr
        </CharString>
        <CharString name="dvB_DA">
          322 -3 callgsubr
          618 6 25 callgsubr
          -960 -76 callsubr
          703 221 callsubr
          213 callsubr
          hvcurveto
          -10 vlineto
          -17 -23 -18 -21 -16 -15 -177 190 rcurveline
          -88 callsubr
          62 54 44 45 39 hvcurveto
          16 -34 23 -31 28 -25 rrcurveto
          -41 44 54 -27 56 hhcurveto
          35 35 12 17 29 hvcurveto
          -93 callsubr
          endchar
        </CharString>
        <CharString name="dvB_DHA">
          -557 endchar
        </CharString>
        <CharString name="dvB_DH_VA">
          701 -3 callgsubr
          1140 255 rmoveto
          -653 -76 callsubr
          427 -286 hlineto
          123 callgsubr
          -26 6 -25 10 -23 hvcurveto
          -46 -37 -58 -48 -75 -85 callgsubr
          65 -26 callgsubr
          -625 -76 callsubr
          420 hlineto
          -1 1 35 1 -21 callgsubr
          -10 vlineto
          -17 -23 -18 -21 -16 -15 -177 190 rcurveline
          -88 callsubr
          64 56 47 47 39 hvcurveto
          -66 39 78 -47 77 hhcurveto
          53 70 37 61 53 hvcurveto
          -46 41 59 -30 56 hhcurveto
          -73 callsubr
        </CharString>
        <CharString name="dvB_JA">
          530 314 183 -23 callgsubr
        </CharString>
        <CharString name="dvB_JHA">
          562 954 327 rmoveto
          -47 -34 -39 -12 -42 -57 -42 21 -40 54 callgsubr
          167 hlineto
          -640 -384 -64 callsubr
          1002 255 rmoveto
          -1200 -76 callsubr
          736 112 callsubr
          -12 2 -13 3 -12 hvcurveto
          -18 -28 -30 -50 -49 -41 -177 190 rcurveline
          -88 callsubr
          81 69 76 88 63 hvcurveto
          -41 30 44 -28 35 29 callgsubr
        </CharString>
        <CharString name="dvB_J_YA">
          891 1283 301 -107 callsubr
          -969 -384 -64 callsubr
          1331 255 rmoveto
          -1529 -76 callsubr
          1017 hlineto
          201 callgsubr
          -30 -119 -61 vhcurveto
          24 -31 -47 23 -68 hhcurveto
          -176 -63 callgsubr
          -89 -54 120 104 -35 vhcurveto
          -12 -19 -18 -25 -53 -75 -23 -19 rlinecurve
          -176 190 rlineto
          -88 callsubr
          78 62 68 68 47 hvcurveto
          -94 45 65 -80 95 hhcurveto
          79 43 56 67 58 -27 56 -50 44 hvcurveto
          117 hlineto
          39 30 -13 -15 22 hvcurveto
          -83 15 116 -110 97 -103 callsubr
        </CharString>
        <CharString name="dvB_JxA">
          532 484 -50 266 callsubr
          -57 55 rlineto
          -226 178 -23 callgsubr
        </CharString>
        <CharString name="dvB_LA">
          504 -3 callgsubr
          944 255 rmoveto
          -1142 -76 callsubr
          915 67 callsubr
          -89 -71 -68 -91 -1 hvcurveto
          -18 -23 -18 -22 -17 -16 -177 190 rcurveline
          -88 callsubr
          61 52 42 44 39 hvcurveto
          33 -90 78 -81 69 -59 37 26 rcurveline
          -98 callsubr
        </CharString>
        <CharString name="dvB_L_YA">
          852 1244 301 -107 callsubr
          -930 -384 -64 callsubr
          1292 255 rmoveto
          -1490 -76 callsubr
          978 hlineto
          175 callsubr
          -21 -28 -96 -51 vhcurveto
          24 -24 -46 30 -52 200 callsubr
          -5 vlineto
          -16 -20 -17 -20 -15 -14 -177 190 rcurveline
          -88 callsubr
          59 51 39 43 39 hvcurveto
          33 -88 77 -80 68 -58 37 26 rcurveline
          -71 callsubr
          67 26 64 82 20 17 -6 -7 14 vhcurveto
          -7 -5 -3 -6 -10 -5 callsubr
        </CharString>
        <CharString name="dvB_NA">
          19 411 14 rmoveto
          72 -62 181 callgsubr
          -657 -76 callsubr
          431 -290 hlineto
          -21 -23 -30 -32 -17 -16 -177 190 rcurveline
          16 22 25 177 callsubr
          31 -24 -21 20 hvcurveto
          23 34 rlineto
          26 -26 -47 44 -74 hhcurveto
          -81 -89 -69 -106 -102 93 -90 94 -12 hvcurveto
          -89 -77 rlineto
          -14 -12 -11 241 callsubr
          22 8 18 6 -4 6 -6 8 vhcurveto
          -1 2 -39 42 -5 7 181 174 rcurveline
          -179 -42 rmoveto
          -73 -56 61 68 36 13 93 callsubr
        </CharString>
        <CharString name="dvB_R">
          -219 113 -13 rmoveto
          54 -37 110 101 160 163 7 8 rlinecurve
          -44 44 -4 -5 -50 -51 -4 -4 rlinecurve
          -176 190 rlineto
          16 21 26 177 callsubr
          31 -24 -21 20 hvcurveto
          23 34 rlineto
          26 -26 -47 44 -74 hhcurveto
          -81 -89 -69 -106 -107 108 -102 98 4 hvcurveto
          147 467 277 callgsubr
          -419 -76 callsubr
          253 -416 rmoveto
          -73 -56 61 68 36 13 93 callsubr
        </CharString>
        <CharString name="dvB_RA">
          38 655 167 callsubr
          -655 -76 callsubr
          430 -290 hlineto
          131 callgsubr
          -81 -89 -69 -106 -107 108 -102 99 4 hvcurveto
          -138 -113 53 -37 81 74 120 120 44 44 rlinecurve
          -1 -177 71 -60 rlineto
          615 vlineto
          -249 -415 rmoveto
          -72 -56 61 68 36 12 93 callsubr
        </CharString>
        <CharString name="dvB_SA">
          443 837 -13 callgsubr
          -523 -384 -64 callsubr
          883 255 rmoveto
          -1081 -76 callsubr
          542 -227 hlineto
          -38 -17 -13 -27 -18 -15 9 13 -16 vhcurveto
          -10 -13 rlineto
          0 vlineto
          -18 -25 -38 -50 -20 -17 -177 190 rcurveline
          -88 callsubr
          74 61 63 54 40 hvcurveto
          60 -84 67 -80 80 -97 52 32 rcurveline
          -79 85 -81 95 -37 54 58 -48 callgsubr
          27 35 10 20 26 hvcurveto
          -2 -250 69 -51 219 callsubr
        </CharString>
        <CharString name="dvB_SHA">
          460 345 -4 callsubr
          -406 -76 callsubr
          405 hlineto
          -71 -384 -64 callsubr
          438 16 rmoveto
          -48 16 -32 33 45 vvcurveto
          56 40 35 46 62 226 callgsubr
          -35 -31 15 19 -24 vhcurveto
          -9 -12 rlineto
          1 vlineto
          -18 -26 -37 -44 -18 -17 -177 190 rcurveline
          -88 callsubr
          71 67 67 53 41 hvcurveto
          53 -66 78 -94 90 -104 50 34 rcurveline
          -62 63 -106 114 -32 43 rrcurveto
          132 -12 97 91 131 vvcurveto
          98 -78 119 -105 262 callgsubr
          57 -22 vhcurveto
          483 273 rmoveto
          -300 126 callsubr
          152 vlineto
          endchar
        </CharString>
        <CharString name="dvB_TA">
          336 -3 callgsubr
          776 255 rmoveto
          -974 -76 callsubr
          749 -169 -166 hlineto
          -99 -57 -48 -78 -7 hvcurveto
          -19 -25 -20 -24 -18 -17 -177 190 rcurveline
          -88 callsubr
          60 52 41 43 39 hvcurveto
          20 -75 46 -80 57 -73 35 25 rcurveline
          -66 callsubr
        </CharString>
        <CharString name="dvB_VA">
          359 -3 callgsubr
          799 255 rmoveto
          -997 -76 callsubr
          771 -286 hlineto
          123 callgsubr
          -13 1 -13 3 -13 hvcurveto
          -18 -23 -19 -23 -17 -16 -177 190 rcurveline
          -88 callsubr
          69 59 54 50 40 hvcurveto
          -60 40 70 -41 66 hhcurveto
          -73 callsubr
        </CharString>
        <CharString name="dvB_YA">
          370 762 301 -107 callsubr
          -448 -384 -64 callsubr
          810 255 rmoveto
          -1008 -76 callsubr
          496 -72 callgsubr
          -18 6 -21 10 -20 vhcurveto
          -18 -24 -19 -23 -17 -16 -177 190 rcurveline
          -88 callsubr
          75 63 63 54 39 hvcurveto
          -53 46 68 -42 61 -103 callsubr
        </CharString>
        <CharString name="dvC">
          217 callsubr
          525 -310 rmoveto
          -73 -47 -66 -47 -74 8 callgsubr
          84 54 47 81 61 vhcurveto
          endchar
        </CharString>
        <CharString name="dvCA">
          160 callgsubr
          -295 hlineto
          -79 -48 -68 -56 -82 8 callgsubr
          77 51 42 54 44 vhcurveto
          endchar
        </CharString>
        <CharString name="dvCH">
          146 657 2 rmoveto
          35 41 -31 19 -59 39 -35 25 rlinecurve
          40 50 26 61 66 vvcurveto
          83 -49 100 -94 225 callgsubr
          vhcurveto
          -32 callgsubr
          -109 111 -83 126 78 78 35 57 60 vhcurveto
          31 -25 61 -45 28 -19 rrcurveto
          107 565 rmoveto
          -41 60 rlineto
          -783 -98 callgsubr
          599 -228 rmoveto
          -66 -29 -64 -37 -42 vhcurveto
          -45 36 -43 45 62 vvcurveto
          60 33 62 59 47 15 -48 -45 vhcurveto
          endchar
        </CharString>
        <CharString name="dvCHA">
          141 300 289 rmoveto
          14 callsubr
          92 220 vlineto
          -41 60 rlineto
          -778 -98 callgsubr
          488 -84 hlineto
          -66 -11 -36 -63 -67 vvcurveto
          -88 54 -64 64 -54 vhcurveto
          -49 -53 -70 -31 -74 hhcurveto
          -84 -52 42 55 64 57 13 48 203 callsubr
          101 87 rmoveto
          60 33 62 59 47 15 -48 -45 -66 -29 -64 -38 -42 vhcurveto
          -44 36 -43 45 62 vvcurveto
          endchar
        </CharString>
        <CharString name="dvCH_RA">
          141 513 167 -5 callgsubr
          -778 -98 callgsubr
          488 -37 callsubr
          -28 -16 -19 -26 -37 vvcurveto
          -95 85 -76 105 -17 vhcurveto
          -128 -137 54 -42 88 callgsubr
          24 -140 160 53 14 51 29 42 40 rlinecurve
          28 callgsubr
        </CharString>
        <CharString name="dvCH_R_YA">
          649 512 167 rmoveto
          -45 36 -43 45 62 vvcurveto
          60 33 62 59 47 15 -48 -45 -66 -29 -64 -37 -42 vhcurveto
          711 460 rmoveto
          -1284 -98 callgsubr
          1060 -329 hlineto
          -37 -19 -78 -80 -77 hhcurveto
          -55 -35 27 callgsubr
          -173 hlineto
          16 -20 -25 10 -30 hhcurveto
          225 callgsubr
          hvcurveto
          -32 callgsubr
          -94 82 -74 103 -19 vhcurveto
          -129 -137 54 -43 88 callgsubr
          24 -139 159 55 13 53 30 44 41 rlinecurve
          31 -25 61 -45 28 -19 35 41 rcurveline
          -31 19 -59 275 callsubr
          31 -7 33 -13 29 vhcurveto
          153 hlineto
          34 callsubr
        </CharString>
        <CharString name="dvCH_YA">
          639 513 167 rmoveto
          -45 36 -43 45 62 vvcurveto
          60 33 62 59 47 15 -48 -45 -66 -29 -64 -37 -42 vhcurveto
          702 460 rmoveto
          -1275 -98 callgsubr
          1051 -329 hlineto
          -37 -19 -78 -80 -76 hhcurveto
          -56 -35 27 callgsubr
          -164 hlineto
          16 -20 -25 10 -30 hhcurveto
          225 callgsubr
          hvcurveto
          -32 callgsubr
          -109 111 -83 126 78 78 35 57 60 vhcurveto
          31 -25 61 -45 28 -19 35 41 rcurveline
          -31 19 -59 275 callsubr
          31 -7 33 -13 29 vhcurveto
          144 hlineto
          34 callsubr
        </CharString>
        <CharString name="dvC_CA">
          473 436 368 rmoveto
          -1 1 117 2 106 callsubr
          -12 2 -12 3 -11 vhcurveto
          -62 -46 -61 -39 -67 96 callsubr
          713 259 rmoveto
          -1109 85 callgsubr
          885 163 callsubr
          -740 hlineto
          41 -62 158 3 106 callsubr
          -102 118 -96 92 73 50 36 62 52 vhcurveto
          -57 43 71 -41 60 hhcurveto
          77 51 42 54 44 hvcurveto
          177 callgsubr
        </CharString>
        <CharString name="dvC_CHA">
          566 937 167 -5 callgsubr
          -1201 85 callgsubr
          912 -37 callsubr
          -22 -13 -17 -19 -6 -25 rrcurveto
          -61 -49 -80 -41 -70 hhcurveto
          -61 -55 46 60 72 61 42 74 264 callgsubr
          -391 hlineto
          41 -62 158 3 210 callgsubr
          -96 92 66 60 29 50 54 vhcurveto
          -76 33 91 -53 100 hhcurveto
          78 78 35 57 59 hvcurveto
          28 callgsubr
        </CharString>
        <CharString name="dvC_CH_VA">
          571 938 167 rmoveto
          -45 36 -42 45 62 vvcurveto
          60 33 62 58 47 15 -48 -45 -66 -29 -64 -37 -42 vhcurveto
          -64 -274 rmoveto
          -82 -43 -61 -31 -52 hhcurveto
          -75 -39 51 51 74 57 38 75 5 hvcurveto
          10 hlineto
          43 44 11 20 41 hvcurveto
          89 537 rmoveto
          262 -26 callgsubr
          -1244 85 callgsubr
          912 -84 hlineto
          -65 -11 -37 -63 -67 vvcurveto
          -88 54 -63 64 -55 vhcurveto
          -48 -53 -67 -32 -76 hhcurveto
          -85 -52 42 55 64 58 13 47 28 27 -4 -3 14 hvcurveto
          -25 66 rlineto
          3 -17 -20 2 -20 hhcurveto
          -22 -24 -3 -5 -22 hvcurveto
          -24 19 -26 25 31 205 callsubr
          25 -2 -4 26 vhcurveto
          -22 64 rlineto
          5 -26 -26 3 -25 hhcurveto
          -85 -70 -34 -78 -51 40 -41 35 -27 hvcurveto
          -22 -13 -17 -19 -6 -25 rrcurveto
          -61 -49 -80 -41 -70 hhcurveto
          -61 -55 46 60 72 61 42 74 264 callgsubr
          -391 hlineto
          41 -62 158 3 210 callgsubr
          -96 92 66 59 29 50 55 vhcurveto
          18 -42 36 -35 46 -22 rrcurveto
          -39 -17 -42 -36 -62 vvcurveto
          -101 98 -89 101 59 52 35 37 27 vhcurveto
          -4 -153 69 -50 rlineto
          482 vlineto
          7 4 6 7 6 5 31 -25 61 -45 28 -19 35 41 rcurveline
          -30 19 -60 275 callsubr
          67 -31 79 -64 26 vhcurveto
          endchar
        </CharString>
        <CharString name="dvC_MA">
          460 851 15 callsubr
          5 callgsubr
          -1095 85 callgsubr
          572 242 callgsubr
          -11 4 -11 6 -12 hvcurveto
          -62 -46 -61 -39 -67 8 callgsubr
          77 52 40 69 56 vhcurveto
          -21 22 26 -16 19 hhcurveto
          15 8 10 15 hvcurveto
          -58 callgsubr
        </CharString>
        <CharString name="dvC_NA">
          160 callgsubr
          -307 hlineto
          -62 -51 -65 -61 -82 23 callsubr
          -97 112 -96 89 2 vhcurveto
          -94 -81 rlineto
          -14 -13 -10 -11 -15 vvcurveto
          -44 79 -20 42 25 22 9 17 6 -4 7 -7 8 196 callgsubr
          183 176 rcurveline
          endchar
        </CharString>
        <CharString name="dvC_R">
          217 callsubr
          219 -613 rmoveto
          53 -37 298 287 -46 44 rlineto
          -63 -52 -60 -48 -74 23 callsubr
          -98 118 -105 96 11 vhcurveto
          endchar
        </CharString>
        <CharString name="dvC_RA">
          140 755 567 rmoveto
          -38 60 rlineto
          -743 85 callgsubr
          519 -321 hlineto
          -62 -52 -60 -47 -72 hhcurveto
          -62 55 callgsubr
          100 hlineto
          -42 62 rlineto
          -391 hlineto
          42 -62 157 224 callgsubr
          -153 -127 54 -37 251 242 -2 -159 72 -48 rlineto
          615 vlineto
          endchar
        </CharString>
        <CharString name="dvC_YA">
          452 844 301 42 callgsubr
          -1088 85 callgsubr
          578 -72 callgsubr
          -26 12 -31 20 -29 vhcurveto
          -64 -46 -62 -41 -69 8 callgsubr
          80 53 43 74 57 vhcurveto
          -42 45 58 -32 52 -103 callsubr
        </CharString>
        <CharString name="dvCandrabindu">
          -557 -203 905 32 callsubr
          -184 -113 138 callsubr
        </CharString>
        <CharString name="dvD">
          -15 265 -131 -75 callsubr
          192 455 25 callgsubr
          -620 188 callsubr
          366 221 callsubr
          95 callgsubr
          -41 44 54 -27 56 hhcurveto
          35 35 12 17 29 hvcurveto
          -93 callsubr
          endchar
        </CharString>
        <CharString name="dvDA">
          -15 43 callgsubr
          -41 44 54 -27 56 hhcurveto
          35 35 12 17 29 hvcurveto
          -93 callsubr
          endchar
        </CharString>
        <CharString name="dvDA_mvR">
          -70 427 116 rmoveto
          -49 -44 -76 -41 -68 hhcurveto
          -64 -47 42 58 70 72 16 61 32 28 -4 -4 15 hvcurveto
          -22 62 rlineto
          4 -23 -30 3 -28 hhcurveto
          -21 -20 -2 -3 -18 hvcurveto
          -21 15 -34 45 36 vvcurveto
          50 48 13 30 vhcurveto
          179 140 162 -26 callgsubr
          -558 -98 callgsubr
          324 -85 -136 hlineto
          -53 -63 -28 -64 -53 43 -58 34 -23 hvcurveto
          -38 -15 -28 -34 -46 vvcurveto
          -90 94 -100 115 76 80 49 53 45 vhcurveto
          endchar
        </CharString>
        <CharString name="dvDD">
          -32 221 -183 -75 callsubr
          -135 257 -36 callsubr
          endchar
        </CharString>
        <CharString name="dvDDA">
          -32 47 128 -36 callsubr
          endchar
        </CharString>
        <CharString name="dvDDH">
          -30 255 -149 -75 callsubr
          331 722 -40 callsubr
          endchar
        </CharString>
        <CharString name="dvDDHA">
          -30 547 627 -40 callsubr
          endchar
        </CharString>
        <CharString name="dvDDH_DDHA">
          -31 543 -4 callsubr
          -583 -98 callgsubr
          340 -81 -106 hlineto
          -104 -79 -61 -92 -85 45 -76 72 -39 hvcurveto
          -74 -22 -43 -49 -68 169 callsubr
          15 -16 vhcurveto
          -95 2 -79 63 88 vvcurveto
          116 98 13 67 vhcurveto
          41 hlineto
          83 88 57 78 82 -70 56 -63 -68 -42 -51 -61 -48 25 -40 15 -16 hvcurveto
          -95 2 -79 62 89 vvcurveto
          116 98 13 67 vhcurveto
          136 145 172 hlineto
          -149 -319 rmoveto
          -59 -50 -37 -58 -8 vhcurveto
          263 callsubr
          30 41 50 35 20 -22 -32 vhcurveto
          -135 -371 170 callsubr
        </CharString>
        <CharString name="dvDDH_R">
          147 callgsubr
          75 -395 rmoveto
          36 24 -137 156 rlineto
          71 13 64 51 66 vvcurveto
          157 callsubr
          136 187 170 -26 callgsubr
          -601 -76 callsubr
          358 249 callgsubr
          -121 -58 -79 -90 -123 88 -97 104 -32 hvcurveto
          258 callsubr
          -46 -239 -75 callsubr
          endchar
        </CharString>
        <CharString name="dvDDH_RA">
          147 callgsubr
          32 149 rmoveto
          187 170 206 callgsubr
          -601 -76 callsubr
          358 249 callgsubr
          -121 -58 -79 -90 -123 88 -97 105 -32 hvcurveto
          -135 -144 54 -42 88 callgsubr
          24 -136 155 rlineto
          69 15 63 50 65 vvcurveto
          157 callsubr
          endchar
        </CharString>
        <CharString name="dvDDH_YA">
          482 355 301 rmoveto
          -68 -43 -54 -61 hvcurveto
          2 -44 21 -35 18 -22 rrcurveto
          -95 2 -79 73 89 vvcurveto
          116 78 31 87 vhcurveto
          325 hlineto
          41 37 79 callsubr
          85 54 63 48 31 26 vhcurveto
          -2 -139 72 -50 181 callgsubr
          -1099 -98 callgsubr
          340 -107 -110 hlineto
          -121 -58 -79 -90 -63 27 -66 45 -48 hvcurveto
          -58 55 70 -28 69 hhcurveto
          83 88 57 77 83 -70 56 -63 hvcurveto
          218 159 rmoveto
          -161 107 462 -329 hlineto
          -37 -18 -79 -80 -76 hhcurveto
          -56 -34 27 callgsubr
          -273 -301 rmoveto
          47 30 41 50 88 callsubr
          vhcurveto
          167 callgsubr
          endchar
        </CharString>
        <CharString name="dvDDHxA">
          -30 547 627 -40 callsubr
          -35 -272 -63 callsubr
          endchar
        </CharString>
        <CharString name="dvDD_DDA">
          30 callsubr
          21 -33 43 -47 47 -24 rlinecurve
          -54 -14 -22 -32 -44 vvcurveto
          -89 83 -66 63 vhcurveto
          48 57 40 44 hhcurveto
          35 21 -23 -23 -63 -70 -47 -96 -71 -67 48 71 -48 hvcurveto
          -34 -26 rlineto
          -84 54 92 -67 100 hhcurveto
          107 86 68 74 61 -64 73 -68 hvcurveto
          -44 -63 -41 -44 hhcurveto
          -36 -32 20 45 52 34 21 57 hvcurveto
          endchar
        </CharString>
        <CharString name="dvDD_DDHA">
          30 callsubr
          27 -41 42 -44 46 -22 rlinecurve
          -63 -24 -34 -48 -61 169 callsubr
          14 -15 vhcurveto
          -94 2 -79 62 88 vvcurveto
          112 93 18 75 vhcurveto
          21 -206 170 callsubr
        </CharString>
        <CharString name="dvDD_R">
          -32 438 -206 rmoveto
          36 24 -137 156 rlineto
          92 17 53 68 64 vvcurveto
          236 callgsubr
          vhcurveto
          -44 -63 -41 -44 hhcurveto
          -39 -29 38 42 55 33 27 58 hvcurveto
          205 176 154 hlineto
          -37 callgsubr
          -33 -27 45 -71 64 -54 70 -22 rlinecurve
          258 callsubr
          -34 -249 -75 callsubr
          endchar
        </CharString>
        <CharString name="dvDD_RA">
          -32 431 391 rmoveto
          176 154 vlineto
          -37 callgsubr
          -33 -27 45 -71 64 -54 70 -22 rlinecurve
          -135 -144 53 -43 149 244 callgsubr
          -137 156 rlineto
          92 17 52 68 64 vvcurveto
          236 callgsubr
          vhcurveto
          -44 -63 -41 -44 hhcurveto
          -39 -29 38 42 55 33 27 58 hvcurveto
          endchar
        </CharString>
        <CharString name="dvDD_VA">
          -30 474 192 rmoveto
          62 -64 72 -68 vhcurveto
          46 callsubr
          27 -40 42 -43 48 -26 rlinecurve
          -57 -20 -37 -44 -53 vvcurveto
          -97 94 -85 92 57 43 31 35 26 vhcurveto
          -4 -151 70 -48 rlineto
          449 vlineto
          24 24 14 29 30 vvcurveto
          -193 -141 rmoveto
          30 29 5 10 26 hvcurveto
          -110 vlineto
          -80 -41 -51 -26 -51 hhcurveto
          -66 -37 45 49 70 59 42 62 -2 hvcurveto
          -2 13 13 -1 14 hhcurveto
          endchar
        </CharString>
        <CharString name="dvDD_YA">
          463 35 133 rmoveto
          -93 60 93 -66 93 hhcurveto
          119 71 80 74 236 callgsubr
          hvcurveto
          -44 -63 -41 -44 hhcurveto
          -40 -29 37 43 55 34 27 57 hvcurveto
          367 hlineto
          41 37 79 callsubr
          86 53 63 48 31 26 vhcurveto
          -2 -139 72 -50 50 callgsubr
          -39 60 rlineto
          -1094 -76 callsubr
          363 -107 -154 hlineto
          -80 -46 -48 -66 -92 83 -81 63 hvcurveto
          53 56 41 34 hhcurveto
          43 17 -31 -29 -63 -66 -59 -96 -71 -69 56 72 -48 hvcurveto
          484 300 rmoveto
          -133 107 435 -329 hlineto
          -37 -19 -78 -80 -77 hhcurveto
          -55 -35 27 callgsubr
          endchar
        </CharString>
        <CharString name="dvDDxA">
          -33 46 128 -36 callsubr
          170 -319 -63 callsubr
          endchar
        </CharString>
        <CharString name="dvDH">
          -194 387 567 rmoveto
          73 -26 callgsubr
          -74 hlineto
          -64 -60 277 callgsubr
          -302 -98 callgsubr
          28 hlineto
          104 2 -21 callgsubr
          215 callsubr
          59 79 46 72 54 vhcurveto
          -44 52 rlineto
          -50 -35 -62 -58 -83 -85 callgsubr
          endchar
        </CharString>
        <CharString name="dvDHA">
          46 387 567 rmoveto
          51 -321 hlineto
          -44 -31 -63 -63 -85 hhcurveto
          -74 19 callgsubr
          -302 -98 callgsubr
          28 hlineto
          105 2 rlineto
          -19 -13 -26 -29 -42 vvcurveto
          -50 42 -40 35 -23 vhcurveto
          -41 161 callsubr
          -106 111 -92 108 49 59 32 41 42 vhcurveto
          -3 -150 234 callgsubr
          endchar
        </CharString>
        <CharString name="dvDH_MA">
          358 749 15 callsubr
          186 60 rmoveto
          -600 85 callgsubr
          77 -257 -18 hlineto
          -31 -21 -11 -27 -19 11 -22 16 -21 hvcurveto
          -38 -36 -51 -33 -63 -85 callgsubr
          63 159 callsubr
          -299 -98 callgsubr
          28 hlineto
          104 2 -21 callgsubr
          215 callsubr
          50 65 33 54 51 vhcurveto
          -10 15 15 -7 12 176 callsubr
        </CharString>
        <CharString name="dvDH_NA">
          46 282 57 callsubr
          -302 -98 callgsubr
          28 hlineto
          104 2 -21 callgsubr
          -101 103 -93 104 2 vhcurveto
          -84 -71 rlineto
          -14 -12 -11 -11 -15 vvcurveto
          -44 79 -20 87 callgsubr
          9 196 callgsubr
          156 149 rcurveline
          -1 -157 234 callgsubr
          40 -60 rlineto
          51 -327 hlineto
          -46 -38 -66 -55 -76 -85 callgsubr
          endchar
        </CharString>
        <CharString name="dvDH_N_YA">
          379 771 123 callsubr
          5 callgsubr
          -610 -76 callsubr
          98 hlineto
          -89 callsubr
          -5 -6 -14 vvcurveto
          -30 15 -34 25 -32 vhcurveto
          -45 -40 -62 -48 -71 -85 callgsubr
          65 -26 callgsubr
          -302 -98 callgsubr
          28 hlineto
          104 2 -21 callgsubr
          -101 103 -93 104 2 vhcurveto
          -84 -71 rlineto
          -14 -12 -11 -11 -15 vvcurveto
          -44 79 -20 87 callgsubr
          9 196 callgsubr
          188 180 rcurveline
          -40 43 56 -30 50 hhcurveto
          58 50 28 53 44 hvcurveto
          -1 118 callsubr
        </CharString>
        <CharString name="dvDH_R">
          -194 386 567 rmoveto
          74 -26 callgsubr
          -74 hlineto
          148 -417 rmoveto
          -45 44 rlineto
          -49 -38 -68 -66 -85 31 callsubr
          26 -5 -4 21 hvcurveto
          -22 68 rlineto
          4 -24 -27 3 -25 hhcurveto
          -11 -12 -1 -2 -11 hvcurveto
          -27 21 -27 27 -1 38 rrcurveto
          44 34 41 48 12 vhcurveto
          65 159 callsubr
          -301 -98 callgsubr
          28 hlineto
          104 2 rlineto
          -19 -13 -26 -29 -42 vvcurveto
          -50 42 -40 36 -23 vhcurveto
          -42 161 callsubr
          -104 112 -97 104 8 vhcurveto
          -135 -113 54 -38 rlineto
          endchar
        </CharString>
        <CharString name="dvDH_RA">
          -136 158 -31 rmoveto
          54 -38 233 224 -2 -155 50 callsubr
          146 206 callgsubr
          -268 -98 callgsubr
          51 -328 hlineto
          -46 -39 -63 -54 -78 hhcurveto
          -73 19 callgsubr
          -311 -76 callsubr
          28 hlineto
          113 2 237 callsubr
          -41 161 callsubr
          -104 111 -97 104 8 vhcurveto
          endchar
        </CharString>
        <CharString name="dvDH_VA">
          371 946 -4 callsubr
          -607 -76 callsubr
          382 103 callsubr
          -28 7 -27 12 -25 hvcurveto
          -44 -37 -56 -44 -72 -85 callgsubr
          63 159 callsubr
          -299 -98 callgsubr
          28 hlineto
          104 2 -21 callgsubr
          215 callsubr
          52 67 36 57 53 vhcurveto
          -43 40 57 -28 55 187 callsubr
        </CharString>
        <CharString name="dvDH_YA">
          368 761 301 42 callgsubr
          -611 -76 callsubr
          99 -72 callgsubr
          -31 17 -36 26 -34 vhcurveto
          -44 -37 -56 -44 -72 -85 callgsubr
          63 159 callsubr
          -299 -98 callgsubr
          28 hlineto
          104 2 -21 callgsubr
          215 callsubr
          55 71 39 63 53 vhcurveto
          -36 43 51 -25 47 -103 callsubr
        </CharString>
        <CharString name="dvD_BA">
          8 416 409 180 callsubr
          -621 188 callsubr
          372 -94 204 callgsubr
          -91 -62 26 -54 44 -43 hvcurveto
          127 callsubr
          -94 116 -67 76 108 49 122 89 15 vhcurveto
          63 -92 -46 callsubr
          -62 -502 rmoveto
          -51 -36 32 48 17 5 16 10 15 hvcurveto
          157 -83 rlineto
          -29 -26 -30 -16 -29 hhcurveto
          65 169 rmoveto
          255 callgsubr
          -9 -47 -15 -38 -19 -31 -153 81 rcurveline
          18 11 21 8 20 4 rrcurveto
          -5 16 17 -3 17 hhcurveto
          endchar
        </CharString>
        <CharString name="dvD_BHA">
          67 500 378 rmoveto
          189 183 vlineto
          -39 60 rlineto
          -702 188 callsubr
          448 221 callsubr
          213 callsubr
          -67 37 -67 50 -46 hvcurveto
          34 -31 44 -26 44 1 -125 -90 rcurveline
          -72 102 -27 35 -27 15 -43 5 rlinecurve
          -41 5 -41 4 -27 -11 -26 -20 rlinecurve
          -60 -43 63 -24 55 40 38 27 39 -14 26 -36 rlinecurve
          90 -124 rlineto
          -31 -23 -11 -13 -13 vvcurveto
          -39 71 -22 53 19 22 3 11 7 vhcurveto
          4 4 2 5 -1 6 rrcurveto
          14 -38 46 -7 9 vhcurveto
          220 157 94 -131 44 32 -105 123 rlineto
          27 23 18 28 22 -8 callsubr
          -76 -75 70 82 100 61 39 101 vhcurveto
          endchar
        </CharString>
        <CharString name="dvD_B_RA">
          8 416 409 180 callsubr
          -621 188 callsubr
          372 -94 204 callgsubr
          -91 -62 26 -54 44 -43 hvcurveto
          127 callsubr
          -89 110 -69 72 5 vhcurveto
          -86 -83 54 -45 139 162 43 46 22 68 10 55 rlinecurve
          63 -92 -46 callsubr
          -62 -502 rmoveto
          -51 -36 32 48 17 5 16 10 15 hvcurveto
          157 -83 rlineto
          -29 -26 -30 -16 -29 hhcurveto
          65 169 rmoveto
          255 callgsubr
          -9 -47 -15 -38 -19 -31 -153 81 rcurveline
          18 11 21 8 20 4 rrcurveto
          -5 16 17 -3 17 hhcurveto
          endchar
        </CharString>
        <CharString name="dvD_DA">
          -20 473 81 rmoveto
          34 -34 56 -38 -34 -36 -23 -34 -19 13 -26 14 -21 vhcurveto
          -18 -31 -38 -9 -38 hhcurveto
          -73 -47 37 56 98 173 19 60 6 hvcurveto
          -32 58 -43 -3 -66 -12 -45 -17 rlinecurve
          -20 14 -37 49 37 vvcurveto
          50 45 15 34 vhcurveto
          180 139 163 159 callsubr
          -560 -98 callgsubr
          327 -83 -138 hlineto
          -56 -60 -29 -64 -53 47 -63 37 -29 hvcurveto
          -33 -17 -38 -34 -52 vvcurveto
          -90 96 -88 113 37 45 10 17 38 vhcurveto
          104 -150 49 36 -116 135 rlineto
          23 19 16 22 27 vvcurveto
          endchar
        </CharString>
        <CharString name="dvD_DHA">
          103 681 -4 callsubr
          -739 188 callsubr
          496 -94 204 callgsubr
          -91 -47 15 -44 27 -37 hvcurveto
          -24 -12 -11 -10 -11 -8 rrcurveto
          -51 7 -50 28 46 vvcurveto
          41 34 25 25 11 vhcurveto
          -43 40 rlineto
          -28 -12 -55 -37 -58 vvcurveto
          -69 68 -47 69 -6 vhcurveto
          -19 -22 -11 -25 -26 vvcurveto
          -97 120 -44 78 119 77 71 112 21 vhcurveto
          86 -122 -46 callsubr
          133 158 171 hlineto
          -447 -430 rmoveto
          38 -34 52 -23 48 -2 18 -1 19 2 17 5 rrcurveto
          -71 -27 -52 -58 -81 hhcurveto
          -60 -49 35 54 41 38 31 39 21 hvcurveto
          endchar
        </CharString>
        <CharString name="dvD_GA">
          -34 486 -15 rmoveto
          104 callgsubr
          133 145 171 hlineto
          69 callgsubr
          rrcurveto
          -7 -62 0 -280 0 vvcurveto
          68 -48 rlineto
          412 vlineto
          endchar
        </CharString>
        <CharString name="dvD_GHA">
          103 548 409 rmoveto
          158 171 178 callgsubr
          -739 188 callsubr
          496 -94 -101 hlineto
          -95 -62 -41 -62 -21 hvcurveto
          -70 3 -98 -17 -96 vvcurveto
          -74 70 -45 64 -7 vhcurveto
          -9 -11 -10 -18 -26 vvcurveto
          -97 120 -45 78 119 59 71 86 17 vhcurveto
          86 -122 -46 callsubr
          49 -325 rmoveto
          -44 -13 -44 -58 -80 hhcurveto
          -60 -50 33 51 38 35 24 20 9 hvcurveto
          57 -46 71 -26 64 19 rrcurveto
          -235 102 rmoveto
          -17 -9 -3 -2 -14 -10 rrcurveto
          -50 7 -52 28 47 vvcurveto
          57 53 16 41 -2 vhcurveto
          1 -54 14 -42 27 -36 rrcurveto
          endchar
        </CharString>
        <CharString name="dvD_G_RA">
          -34 411 422 rmoveto
          145 171 vlineto
          69 callgsubr
          -3 -26 -2 -64 -1 -65 -230 -208 rcurveline
          52 -37 178 176 rlineto
          -1 -65 0 -53 0 vvcurveto
          68 -48 rlineto
          412 vlineto
          91 -132 104 callgsubr
          endchar
        </CharString>
        <CharString name="dvD_MA">
          225 336 3 rmoveto
          -31 -21 -11 -26 -46 66 -61 40 17 7 9 16 hvcurveto
          54 207 -163 vlineto
          68 -51 rlineto
          843 152 vlineto
          -39 60 rlineto
          -868 188 callsubr
          367 -94 -101 hlineto
          -122 -66 -58 -94 -65 29 -59 49 -45 hvcurveto
          -42 45 60 -27 58 hhcurveto
          18 20 3 7 18 hvcurveto
          -90 vlineto
          64 406 rmoveto
          158 210 -564 -207 122 vlineto
          33 24 21 29 26 vvcurveto
          36 -40 45 -36 -32 -13 -34 -41 vhcurveto
          -42 vlineto
          0 -24 -26 -59 -77 -74 56 88 100 72 23 93 vhcurveto
          endchar
        </CharString>
        <CharString name="dvD_NA">
          -15 43 callgsubr
          31 -28 38 -25 41 -4 -98 -51 rcurveline
          -18 -9 -15 -12 -19 vvcurveto
          -47 86 -37 38 15 17 7 16 5 -1 4 -6 12 vhcurveto
          -5 13 -10 18 -16 25 156 93 rcurveline
          -93 callsubr
          endchar
        </CharString>
        <CharString name="dvD_R">
          -16 43 callgsubr
          35 -32 42 -25 45 -6 -146 -87 rcurveline
          54 -38 223 149 -93 callsubr
          21 -536 rmoveto
          8 16 17 3 15 hhcurveto
          82 59 -97 -47 34 hvcurveto
          34 24 rlineto
          74 -55 -72 109 -101 hhcurveto
          -25 -23 -7 -12 -20 hvcurveto
          endchar
        </CharString>
        <CharString name="dvD_RA">
          -15 43 callgsubr
          35 -32 45 -27 46 -3 -156 -95 rcurveline
          54 -37 229 155 -93 callsubr
          endchar
        </CharString>
        <CharString name="dvD_VA">
          8 416 409 180 callsubr
          -621 188 callsubr
          372 -94 204 callgsubr
          -91 -62 26 -54 44 -43 hvcurveto
          127 callsubr
          -94 116 -67 76 108 49 122 89 15 vhcurveto
          63 -92 -46 callsubr
          3 -333 rmoveto
          255 callgsubr
          rrcurveto
          -116 -22 -66 -73 -64 hhcurveto
          217 callgsubr
          endchar
        </CharString>
        <CharString name="dvD_YA">
          61 452 567 rmoveto
          -362 vlineto
          -45 -35 -94 -71 81 callgsubr
          126 -568 rmoveto
          109 callsubr
          -91 96 -80 115 66 70 45 42 40 vhcurveto
          endchar
        </CharString>
        <CharString name="dvD_Y_RA">
          61 452 567 rmoveto
          -362 vlineto
          -49 -43 -86 -67 81 callgsubr
          -152 -616 rmoveto
          53 -38 228 209 -3 -123 109 callsubr
          -96 110 -79 104 14 vhcurveto
          endchar
        </CharString>
        <CharString name="dvE">
          12 595 -4 callsubr
          -655 85 callgsubr
          120 -300 hlineto
          -31 1 -18 22 -17 vhcurveto
          65 -49 106 -78 42 -31 rrcurveto
          52 -39 30 -28 -23 vvcurveto
          -22 -11 -17 -15 -15 vhcurveto
          58 -45 rlineto
          18 19 17 29 30 vvcurveto
          24 -10 36 -44 31 vhcurveto
          -200 148 rlineto
          -49 38 -11 2 59 vvcurveto
          297 240 -200 vlineto
          -58 -20 -28 -45 -29 vhcurveto
          52 -52 rlineto
          57 39 28 42 79 vvcurveto
          207 152 vlineto
          endchar
        </CharString>
        <CharString name="dvEcandra">
          14 598 -4 callsubr
          -656 21 callsubr
          -547 281 rmoveto
          -67 39 68 200 callgsubr
          -70 -50 65 47 -27 hvcurveto
          endchar
        </CharString>
        <CharString name="dvEight">
          -8 442 177 rmoveto
          -87 -25 -54 -79 -93 hhcurveto
          -76 -62 64 63 28 9 30 24 33 hvcurveto
          255 357 -57 39 -258 -347 rlineto
          -38 -52 -6 -35 -33 vvcurveto
          -81 116 -126 117 128 48 112 76 29 vhcurveto
          -53 39 rlineto
          endchar
        </CharString>
        <CharString name="dvEyelash">
          -368 271 167 callsubr
          -291 -76 callsubr
          -22 -250 rmoveto
          -59 67 66 -26 63 hhcurveto
          60 56 21 33 51 hvcurveto
          -37 59 rlineto
          -33 -55 -53 -20 -51 hhcurveto
          -46 -48 17 38 -49 hvcurveto
          endchar
        </CharString>
        <CharString name="dvEyelash_HA">
          131 595 389 151 callgsubr
          -769 -76 callsubr
          544 276 callgsubr
          141 callsubr
          -11 2 -12 3 -13 hvcurveto
          -25 -46 -45 -14 -43 218 callgsubr
          49 46 14 23 44 hvcurveto
          9 -12 12 -14 15 -13 rrcurveto
          182 callgsubr
          -136 198 -107 273 callgsubr
          86 110 -57 callgsubr
          endchar
        </CharString>
        <CharString name="dvEyelash_YA">
          240 632 301 42 callgsubr
          -878 -76 callsubr
          366 -72 callgsubr
          -1 vlineto
          -22 -43 -42 -13 -41 218 callgsubr
          41 40 10 17 37 hvcurveto
          -71 41 90 -70 78 -103 callsubr
        </CharString>
        <CharString name="dvFive">
          63 313 -42 rmoveto
          272 -87 454 171 -24 hvcurveto
          -71 33 14 -72 12 -100 7 -74 rlinecurve
          -37 -28 -51 -34 -55 hhcurveto
          -79 -45 74 68 56 18 45 27 46 hvcurveto
          -60 36 rlineto
          -31 -65 -12 -42 -52 vvcurveto
          -127 119 -96 92 44 45 28 22 25 vhcurveto
          -141 2 -17 -135 -131 hhcurveto
          -18 -19 8 7 -10 hvcurveto
          41 -24 -35 74 -35 hhcurveto
          -31 -22 -29 -29 -53 79 -43 41 -18 hvcurveto
          118 -201 41 29 -110 161 rlineto
          -1 4 18 -4 17 hhcurveto
          endchar
        </CharString>
        <CharString name="dvFour">
          64 288 361 rmoveto
          -226 265 -35 -27 232 -271 -77 -88 rlineto
          -32 -36 -17 -25 -40 vvcurveto
          -84 98 -100 94 99 44 70 59 50 -26 56 -48 58 vhcurveto
          -56 67 213 269 -50 40 rlineto
          -283 -457 rmoveto
          6 76 90 3 4 vhcurveto
          17 10 rlineto
          40 -41 51 -56 -69 vvcurveto
          -66 -45 -36 -62 -88 -42 91 67 50 vhcurveto
          endchar
        </CharString>
        <CharString name="dvG">
          -270 307 -4 callsubr
          -368 158 callsubr
          vlineto
          endchar
        </CharString>
        <CharString name="dvGA">
          -25 438 567 rmoveto
          155 159 callsubr
          -613 -87 callsubr
          175 -563 vlineto
          71 -52 rlineto
          endchar
        </CharString>
        <CharString name="dvGH">
          -178 446 230 rmoveto
          -54 -43 -58 -51 -79 35 callsubr
          -22 66 rlineto
          -17 callgsubr
          228 -26 callgsubr
          -459 9 callsubr
          -104 120 -96 117 58 67 36 79 56 vhcurveto
          endchar
        </CharString>
        <CharString name="dvGHA">
          61 311 376 rmoveto
          -17 callgsubr
          242 -325 hlineto
          -48 -32 -65 -69 -90 35 callsubr
          192 -358 rmoveto
          -49 callgsubr
          -41 60 rlineto
          -698 9 callsubr
          -104 120 -96 117 53 56 30 53 45 vhcurveto
          -5 -148 rlineto
          endchar
        </CharString>
        <CharString name="dvGH_MA">
          374 766 15 callsubr
          -455 -191 rmoveto
          -17 callgsubr
          256 242 callgsubr
          -20 12 -23 18 -22 hvcurveto
          -45 -41 -52 -37 -68 35 callsubr
          618 317 rmoveto
          -1011 9 callsubr
          -104 120 -96 117 54 61 31 68 54 vhcurveto
          -11 15 15 -6 12 hhcurveto
          15 8 10 15 hvcurveto
          -58 callgsubr
        </CharString>
        <CharString name="dvGH_NA">
          61 311 376 rmoveto
          -17 callgsubr
          242 hlineto
          1 -325 rlineto
          -65 -44 -71 -52 -73 35 callsubr
          346 257 rmoveto
          -41 60 rlineto
          -698 9 callsubr
          -99 115 -98 106 4 vhcurveto
          -99 -87 rlineto
          -14 -13 -11 -11 -15 vvcurveto
          -44 79 -20 87 callgsubr
          9 196 callgsubr
          177 169 rcurveline
          -1 -149 72 -48 rlineto
          615 vlineto
          endchar
        </CharString>
        <CharString name="dvGH_R">
          -178 152 -53 rmoveto
          54 -38 283 275 -45 44 rlineto
          -46 -39 -60 -57 -79 35 callsubr
          -22 66 rlineto
          -17 callgsubr
          228 -26 callgsubr
          -459 9 callsubr
          -100 117 -101 115 6 vhcurveto
          endchar
        </CharString>
        <CharString name="dvGH_RA">
          72 335 376 rmoveto
          4 -20 -22 2 -23 hhcurveto
          -21 -22 -2 -4 -21 hvcurveto
          -30 25 -22 30 34 vvcurveto
          52 41 40 40 10 vhcurveto
          228 -345 hlineto
          -44 -38 -59 -53 -76 hhcurveto
          -68 -67 46 63 69 68 15 59 29 27 -4 -4 19 hvcurveto
          -181 -363 rmoveto
          53 -38 236 227 -2 -137 72 -47 rlineto
          615 166 callgsubr
          -695 -98 callgsubr
          67 hlineto
          74 2 rlineto
          -31 5 callsubr
          -100 116 -101 116 6 vhcurveto
          endchar
        </CharString>
        <CharString name="dvGH_YA">
          364 756 301 -107 callsubr
          -445 -191 rmoveto
          -17 callgsubr
          259 -72 callgsubr
          -36 22 -43 34 -37 vhcurveto
          -47 -41 -54 -40 -70 35 callsubr
          608 317 rmoveto
          -1001 9 callsubr
          -104 120 -96 117 55 64 33 71 54 vhcurveto
          -30 40 46 -21 42 -103 callsubr
        </CharString>
        <CharString name="dvG_BA">
          325 619 182 11 callsubr
          -962 -87 callsubr
          524 -283 vlineto
          72 callgsubr
          615 154 vlineto
          endchar
        </CharString>
        <CharString name="dvG_BHA">
          297 873 627 162 callsubr
          rlineto
          28 -32 -28 7 -34 hhcurveto
          -368 -87 callsubr
          147 vlineto
          115 callgsubr
        </CharString>
        <CharString name="dvG_BH_YA">
          630 1022 301 42 callgsubr
          -685 -98 callgsubr
          174 hlineto
          -65 callgsubr
          -164 147 hlineto
          45 -13 28 -28 28 vhcurveto
          -7 7 -21 19 -10 8 rrcurveto
          27 -31 -28 8 -34 hhcurveto
          -368 -87 callsubr
          146 vlineto
          47 24 -35 -45 hvcurveto
          -177 -21 vlineto
          118 callgsubr
          193 vlineto
          -65 44 82 -59 72 -103 callsubr
        </CharString>
        <CharString name="dvG_DA">
          261 695 46 callgsubr
          -900 -87 callsubr
          431 -125 -105 vlineto
          95 callgsubr
          -41 44 54 -27 56 hhcurveto
          35 35 12 17 29 hvcurveto
          -93 callsubr
          endchar
        </CharString>
        <CharString name="dvG_DHA">
          -557 endchar
        </CharString>
        <CharString name="dvG_DH_VA">
          662 1239 77 callgsubr
          -29 13 -25 hvcurveto
          -43 -36 -56 -42 -70 -85 callgsubr
          65 -26 callgsubr
          -599 158 callsubr
          vlineto
          -1 1 60 1 -21 callgsubr
          215 callsubr
          51 67 35 56 52 vhcurveto
          -42 40 56 -27 54 hhcurveto
          -73 callsubr
        </CharString>
        <CharString name="dvG_DH_YA">
          692 1084 109 callgsubr
          -618 -98 callgsubr
          107 116 callsubr
          -28 13 -32 22 -30 vhcurveto
          -48 -36 -59 -51 -78 -85 callgsubr
          65 -26 callgsubr
          -611 158 callsubr
          1 vlineto
          71 1 -21 callgsubr
          215 callsubr
          57 75 43 67 54 vhcurveto
          -40 44 56 -29 50 -103 callsubr
        </CharString>
        <CharString name="dvG_GA">
          227 804 -4 callsubr
          -865 -87 callsubr
          181 -227 vlineto
          -31 -35 -3 -25 -43 70 -77 40 22 5 19 35 hvcurveto
          209 callgsubr
        </CharString>
        <CharString name="dvG_GHA">
          357 749 242 rmoveto
          -48 -32 -65 -69 -90 35 callsubr
          -22 66 rlineto
          -17 callgsubr
          242 hlineto
          5 callgsubr
          -995 158 callsubr
          0 vlineto
          59 20 callgsubr
          -104 120 -96 117 53 56 30 53 45 vhcurveto
          -5 -148 201 callsubr
          endchar
        </CharString>
        <CharString name="dvG_JA">
          453 1031 -4 callsubr
          -1092 -87 callsubr
          653 278 callgsubr
          vlineto
          18 callgsubr
          72 -49 -60 callsubr
          endchar
        </CharString>
        <CharString name="dvG_LA">
          469 1046 -4 callsubr
          -1107 -87 callsubr
          668 -173 vlineto
          18 -27 -38 12 -35 -106 callsubr
          68 26 63 83 23 137 callsubr
          -348 vlineto
          72 -51 -60 callsubr
          endchar
        </CharString>
        <CharString name="dvG_MA">
          311 702 15 callsubr
          5 callgsubr
          -948 -87 callsubr
          211 -257 -17 vlineto
          -32 -21 -11 -27 242 callsubr
          hvcurveto
          -58 callgsubr
        </CharString>
        <CharString name="dvG_NA">
          -25 438 567 rmoveto
          155 159 callsubr
          -613 39 callsubr
          -218 hlineto
          -31 -35 -4 -25 -43 70 -76 40 22 5 18 36 hvcurveto
          312 175 -311 vlineto
          -249 -214 rlineto
          -15 249 callsubr
          -45 80 -20 87 callgsubr
          227 callsubr
          7 160 150 rcurveline
          -183 vlineto
          71 -52 rlineto
          endchar
        </CharString>
        <CharString name="dvG_NNA">
          473 633 86 callgsubr
          417 60 rmoveto
          -1111 -87 callsubr
          182 -199 vlineto
          -49 22 -61 52 -45 vhcurveto
          14 callgsubr
          endchar
        </CharString>
        <CharString name="dvG_N_YA">
          319 711 301 42 callgsubr
          -957 -87 callsubr
          233 19 callsubr
          -26 12 -30 19 -29 vhcurveto
          -238 -208 rlineto
          -15 249 callsubr
          -45 80 -20 87 callgsubr
          9 196 callgsubr
          182 174 rcurveline
          -48 45 64 -38 57 -103 callsubr
        </CharString>
        <CharString name="dvG_R">
          -270 307 -4 callsubr
          -368 158 callsubr
          vlineto
          30 -308 rmoveto
          -298 -265 54 -38 281 269 rlineto
          endchar
        </CharString>
        <CharString name="dvG_RA">
          63 callgsubr
          endchar
        </CharString>
        <CharString name="dvG_R_YA">
          319 712 301 42 callgsubr
          -958 -87 callsubr
          234 19 callsubr
          -26 12 -30 19 -28 vhcurveto
          -281 -250 54 -38 259 248 rlineto
          -48 46 64 -38 57 -103 callsubr
        </CharString>
        <CharString name="dvG_SA">
          393 787 -13 callgsubr
          183 60 rmoveto
          -1031 -87 callsubr
          280 -227 vlineto
          91 callsubr
          -33 callsubr
          endchar
        </CharString>
        <CharString name="dvG_VA">
          307 884 -4 callsubr
          -945 -87 callsubr
          507 60 callgsubr
        </CharString>
        <CharString name="dvG_YA">
          333 725 301 42 callgsubr
          -971 -87 callsubr
          247 25 callsubr
        </CharString>
        <CharString name="dvGx">
          -270 307 -4 callsubr
          -368 158 callsubr
          vlineto
          -250 -616 -63 callsubr
          endchar
        </CharString>
        <CharString name="dvGxA">
          -19 441 567 rmoveto
          155 159 callsubr
          -613 -87 callsubr
          175 -563 vlineto
          71 -52 rlineto
          -337 21 -63 callsubr
          endchar
        </CharString>
        <CharString name="dvGx_R">
          -270 307 -4 callsubr
          -368 158 callsubr
          vlineto
          30 -308 rmoveto
          -298 -265 54 -38 281 269 rlineto
          -164 -279 -63 callsubr
          endchar
        </CharString>
        <CharString name="dvGx_RA">
          63 callgsubr
          -363 -628 -63 callsubr
          endchar
        </CharString>
        <CharString name="dvH">
          -83 303 217 rmoveto
          254 hlineto
          -46 61 rlineto
          -242 hlineto
          -31 -31 -9 -15 -28 hvcurveto
          -17 17 -22 26 35 vvcurveto
          51 42 6 56 vhcurveto
          183 178 114 159 callsubr
          -554 -98 callgsubr
          370 -115 -175 154 callgsubr
          -45 55 -52 hvcurveto
          -37 -32 -25 -45 -50 vvcurveto
          -136 199 -108 273 callgsubr
          88 110 vvcurveto
          80 76 55 81 vhcurveto
          endchar
        </CharString>
        <CharString name="dvHA">
          38 callgsubr
          -136 198 -107 273 callgsubr
          86 110 vvcurveto
          80 76 57 82 60 28 -33 -34 -37 -29 -47 -53 -23 vhcurveto
          endchar
        </CharString>
        <CharString name="dvHA_mU">
          -54 327 -120 rmoveto
          -75 43 -106 71 86 vvcurveto
          80 76 57 82 60 28 -33 -34 -37 -29 -47 -53 -23 vhcurveto
          48 -53 rlineto
          43 callsubr
          -102 112 -86 81 -52 vhcurveto
          -23 -18 -14 -29 -2 -35 55 -32 rcurveline
          3 35 17 31 29 8 rrcurveto
          0 vlineto
          0 vlineto
          1 5 4 1 5 101 callsubr
          endchar
        </CharString>
        <CharString name="dvHA_mUU">
          38 callgsubr
          -88 82 -75 75 -53 vhcurveto
          -57 -10 -45 -43 -62 vvcurveto
          -63 70 -80 74 54 32 43 49 8 vhcurveto
          239 callsubr
          60 54 23 36 73 81 -70 -104 70 hvcurveto
          31 27 -57 86 -73 86 -88 28 rlinecurve
          -75 43 -105 71 85 vvcurveto
          80 76 57 82 60 28 -33 -34 -37 -29 -47 -53 -23 vhcurveto
          endchar
        </CharString>
        <CharString name="dvHA_mvR">
          24 443 153 rmoveto
          63 -89 60 -84 -33 -34 -10 -15 -30 vhcurveto
          -18 16 -23 28 37 182 callsubr
          183 178 229 -26 callgsubr
          -673 146 callgsubr
          -147 201 -108 261 callsubr
          31 -178 90 115 vvcurveto
          84 80 55 80 43 39 -17 -27 -12 -17 -10 -18 -9 vhcurveto
          -37 -20 -48 -21 -47 vvcurveto
          -65 77 -61 64 51 56 34 27 29 vhcurveto
          -40 40 rlineto
          -30 -35 -37 -22 -46 hhcurveto
          -31 -35 14 38 hvcurveto
          67 132 9 51 vvcurveto
          endchar
        </CharString>
        <CharString name="dvH_LA">
          -1 317 -50 rmoveto
          -41 30 -35 40 47 vvcurveto
          36 25 17 27 18 12 -7 -7 7 vhcurveto
          -4 -12 0 -5 -13 vvcurveto
          -15 3 -16 6 -12 vhcurveto
          41 -19 rlineto
          -4 14 -3 16 15 vvcurveto
          32 11 32 40 5 6 0 -2 6 vhcurveto
          -136 vlineto
          56 -43 rlineto
          164 vlineto
          71 -97 101 -125 31 callgsubr
          65 52 -33 -32 13 vhcurveto
          5 -12 -14 4 -13 hhcurveto
          -22 -18 -12 -14 -10 hvcurveto
          13 -15 -19 13 -36 hhcurveto
          -43 -36 -31 -47 -70 56 -51 40 -32 hvcurveto
          endchar
        </CharString>
        <CharString name="dvH_MA">
          190 328 116 rmoveto
          -31 -21 -11 -26 -49 74 -77 41 215 callgsubr
          70 171 -186 vlineto
          68 -47 rlineto
          752 155 vlineto
          -41 60 rlineto
          -839 -98 callgsubr
          342 -115 -144 141 callsubr
          -38 18 -45 53 -49 hvcurveto
          -36 -31 -23 -47 1 -56 2 -147 196 -108 58 -31 39 26 rcurveline
          -54 31 -178 88 115 vvcurveto
          84 69 56 75 49 17 -35 -37 vhcurveto
          -27 vlineto
          35 451 rmoveto
          204 -451 -171 20 hlineto
          42 -72 98 -91 -30 -28 -7 -12 -26 vhcurveto
          -17 17 -18 25 33 182 callsubr
          152 hlineto
          endchar
        </CharString>
        <CharString name="dvH_NA">
          -16 415 389 rmoveto
          178 190 vlineto
          -41 60 rlineto
          -636 -98 callgsubr
          376 -115 -178 130 callsubr
          20 -47 57 -52 hvcurveto
          -38 -32 -26 -46 -50 vvcurveto
          -147 201 -103 261 callsubr
          30 -178 86 115 vvcurveto
          84 80 59 84 29 30 -10 -20 22 vhcurveto
          -155 -110 rlineto
          -12 -9 -13 -11 -14 vvcurveto
          -35 65 -29 47 21 16 7 15 6 -2 4 -5 8 vhcurveto
          -1 2 -32 42 -5 6 104 75 rcurveline
          -154 vlineto
          56 -42 rlineto
          157 vlineto
          67 -96 105 -100 -34 -33 -10 -16 -30 vhcurveto
          -17 17 -23 27 36 182 callsubr
          endchar
        </CharString>
        <CharString name="dvH_NNA">
          -2 494 -79 rmoveto
          185 vlineto
          69 -107 103 -108 -44 -38 -10 -17 -31 vhcurveto
          -17 16 -17 27 38 182 callsubr
          192 178 184 159 callsubr
          -636 -98 callgsubr
          382 -115 -184 154 callgsubr
          -45 55 -52 hvcurveto
          -41 -32 -23 -49 -52 vvcurveto
          -147 208 -108 55 -34 vhcurveto
          40 26 rlineto
          -55 30 -187 93 115 vvcurveto
          42 18 36 32 26 vhcurveto
          -62 vlineto
          -29 9 -31 30 -28 vhcurveto
          -27 28 31 -12 25 hhcurveto
          51 31 40 46 hvcurveto
          122 vlineto
          28 -15 21 -24 -26 vvcurveto
          -168 vlineto
          -123 255 rmoveto
          7 10 -2 -2 8 hvcurveto
          -123 vlineto
          -43 -17 -18 -33 -36 -20 28 44 vhcurveto
          101 vlineto
          9 23 28 6 30 hhcurveto
          endchar
        </CharString>
        <CharString name="dvH_RA">
          -30 271 -8 rmoveto
          130 142 rlineto
          -141 vlineto
          56 -42 rlineto
          155 vlineto
          67 -96 105 -100 -32 -31 -9 -15 -28 vhcurveto
          -17 17 -21 26 35 182 callsubr
          189 178 179 159 callsubr
          -628 -98 callgsubr
          380 -115 -182 154 callgsubr
          -45 56 -52 hvcurveto
          -38 -32 -24 -46 -52 vvcurveto
          -147 203 -106 55 -33 vhcurveto
          39 27 rlineto
          -54 30 -180 88 115 vvcurveto
          84 72 59 84 32 36 -16 -20 19 vhcurveto
          -161 -149 rlineto
          endchar
        </CharString>
        <CharString name="dvH_VA">
          -1 477 -50 rmoveto
          156 vlineto
          71 -98 101 -108 31 callgsubr
          41 43 -21 -25 20 vhcurveto
          3 -5 3 -5 1 -6 rrcurveto
          11 -31 -29 7 -29 hhcurveto
          -89 -52 -70 -50 -47 52 -54 67 47 43 43 51 28 hvcurveto
          -54 vlineto
          -148 3 rmoveto
          -20 -18 11 27 53 60 45 66 13 21 -3 -3 14 hvcurveto
          -52 -28 -53 -78 -55 hhcurveto
          endchar
        </CharString>
        <CharString name="dvH_YA">
          173 73 101 rmoveto
          -147 201 -107 261 callsubr
          30 -178 90 115 vvcurveto
          84 80 55 80 45 37 -18 -27 -15 -22 -20 -68 -37 vhcurveto
          -11 -6 -11 -8 -15 vvcurveto
          -63 96 -94 85 52 44 31 34 35 vhcurveto
          -2 -155 60 -40 rlineto
          786 166 callgsubr
          -822 146 callgsubr
          59 231 rmoveto
          51 41 6 56 vhcurveto
          183 178 164 -501 hlineto
          -46 -27 -65 -54 -60 hhcurveto
          -40 -55 23 42 19 15 9 14 9 hvcurveto
          36 24 47 21 35 vvcurveto
          63 -87 65 -84 -33 -34 -10 -15 -30 vhcurveto
          -18 16 -23 28 37 vvcurveto
          endchar
        </CharString>
        <CharString name="dvI">
          -13 479 127 rmoveto
          60 -65 84 -73 vhcurveto
          -42 -58 -38 -48 hhcurveto
          -40 -27 33 44 56 48 24 46 hvcurveto
          209 177 167 -26 callgsubr
          -602 hlineto
          42 -60 rlineto
          362 -110 -157 hlineto
          -71 -57 -45 -66 -88 85 -86 61 hvcurveto
          59 52 38 39 hhcurveto
          32 25 -25 -34 -82 -133 -46 -69 6 hvcurveto
          52 -39 -39 48 -24 hhcurveto
          -26 -24 -16 -21 -46 72 -53 68 -19 hvcurveto
          150 -182 47 32 -141 146 rlineto
          86 4 125 58 95 vvcurveto
          endchar
        </CharString>
        <CharString name="dvII">
          -13 520 860 -24 callsubr
        </CharString>
        <CharString name="dvII_Anusvara">
          -13 438 726 rmoveto
          50 -51 52 51 -52 50 rlineto
          32 84 -24 callsubr
        </CharString>
        <CharString name="dvJ">
          -70 547 57 callsubr
          -567 -98 callgsubr
          579 -164 rmoveto
          -314 -96 callsubr
          260 hlineto
          endchar
        </CharString>
        <CharString name="dvJA">
          162 625 165 callsubr
          -799 -98 callgsubr
          573 -164 -309 hlineto
          18 callgsubr
          endchar
        </CharString>
        <CharString name="dvJH">
          -42 575 57 callsubr
          -596 -76 callsubr
          367 112 callsubr
          -88 85 -83 61 hvcurveto
          -70 callsubr
          -7 24 24 -4 22 hhcurveto
          41 45 24 26 29 hvcurveto
          -38 49 rlineto
          -35 -34 -42 -13 -39 hhcurveto
          -38 -41 14 5 -33 hvcurveto
          1 -8 -8 1 -8 54 callgsubr
          hlineto
          endchar
        </CharString>
        <CharString name="dvJHA">
          192 656 -48 rmoveto
          615 205 callgsubr
          -830 -76 callsubr
          366 112 callsubr
          -88 85 -83 61 hvcurveto
          40 callgsubr
          rlineto
          -1 326 rmoveto
          -47 -34 -39 -12 -42 -57 -42 21 -40 54 callgsubr
          167 hlineto
          endchar
        </CharString>
        <CharString name="dvJH_MA">
          506 898 310 149 callgsubr
          -28 -20 -9 -21 -4 hvcurveto
          -8 -21 -21 -4 -21 hhcurveto
          -38 -41 14 5 -33 hvcurveto
          1 -8 -8 1 -8 54 callgsubr
          181 hlineto
          484 60 rmoveto
          -1144 -76 callsubr
          367 112 callsubr
          -88 85 -83 61 hvcurveto
          -70 callsubr
          -7 24 24 -4 22 hhcurveto
          14 14 3 4 13 hvcurveto
          -39 25 47 -38 29 hhcurveto
          15 8 10 15 hvcurveto
          -58 callgsubr
        </CharString>
        <CharString name="dvJH_NA">
          243 706 165 callsubr
          -881 28 callsubr
          30 38 10 35 44 hvcurveto
          -160 -254 rlineto
          -8 -12 -5 -13 -11 vvcurveto
          -34 41 -10 38 27 66 6 30 11 -8 7 -8 6 vhcurveto
          -3 3 -51 34 -3 2 88 161 rcurveline
          -2 -188 rlineto
          1 342 rmoveto
          -31 -34 -55 -43 132 callsubr
          214 hlineto
          endchar
        </CharString>
        <CharString name="dvJH_R">
          -28 438 -63 rmoveto
          53 -38 199 389 -54 55 rlineto
          -31 -34 -55 -44 132 callsubr
          167 -26 callgsubr
          -610 28 callsubr
          35 38 12 33 40 hvcurveto
          endchar
        </CharString>
        <CharString name="dvJH_RA">
          243 438 -63 rmoveto
          54 -38 145 282 -2 -181 -34 callgsubr
          -40 60 rlineto
          -884 -76 callsubr
          374 112 callsubr
          -88 85 -83 61 hvcurveto
          51 53 37 41 hhcurveto
          33 26 -24 -34 -82 -118 -42 -81 4 hvcurveto
          51 -39 -39 48 -25 hhcurveto
          -25 -24 -15 -21 -47 70 -53 68 -18 hvcurveto
          154 -185 47 32 -140 148 rlineto
          81 5 123 57 94 vvcurveto
          24 -12 33 -24 27 vhcurveto
          -7 25 28 -6 22 hhcurveto
          42 43 15 36 44 hvcurveto
          -161 hmoveto
          -50 -40 14 6 -35 hvcurveto
          -7 -6 1 -6 -38 -60 -38 -47 hhcurveto
          -40 145 callgsubr
          204 160 214 -222 hlineto
          -37 -33 -50 -40 -74 hhcurveto
          endchar
        </CharString>
        <CharString name="dvJH_YA">
          535 928 301 -107 callsubr
          -510 -160 rmoveto
          160 224 19 callsubr
          -11 2 -12 4 -12 vhcurveto
          -18 -27 -30 -7 -29 hhcurveto
          -38 -41 14 5 -33 hvcurveto
          1 -8 -8 1 -8 -38 -60 -38 -46 hhcurveto
          -41 145 callgsubr
          899 220 rmoveto
          -1174 -76 callsubr
          367 112 callsubr
          -88 85 -83 61 hvcurveto
          -70 callsubr
          -7 24 24 -4 22 hhcurveto
          25 27 9 13 24 hvcurveto
          -63 45 80 -58 71 -103 callsubr
        </CharString>
        <CharString name="dvJ_BA">
          503 797 182 11 callsubr
          -1139 -98 callgsubr
          914 44 callgsubr
          -52 -55 -28 -49 -33 hvcurveto
          -312 -96 callsubr
          191 hlineto
          -2 -11 -1 -11 -12 79 callgsubr
        </CharString>
        <CharString name="dvJ_DA">
          472 906 46 callgsubr
          -1110 -98 callgsubr
          854 221 callsubr
          -53 -42 -15 -24 -31 hvcurveto
          -358 -96 callsubr
          218 hlineto
          -8 -20 -4 -21 -23 vvcurveto
          -67 36 -67 51 -46 vhcurveto
          -41 44 54 -27 56 hhcurveto
          35 35 12 17 29 hvcurveto
          -93 callsubr
          endchar
        </CharString>
        <CharString name="dvJ_DDA">
          426 888 194 callgsubr
          -1062 -98 callgsubr
          838 183 callsubr
          -52 -38 -20 -32 -20 hvcurveto
          -310 -96 callsubr
          199 hlineto
          -91 1 82 -79 63 -67 callsubr
        </CharString>
        <CharString name="dvJ_JA">
          655 1232 -4 callsubr
          -1292 -76 callsubr
          1065 160 callsubr
          -1 hlineto
          -3 11 rlineto
          -317 83 callgsubr
          -106 -56 170 102 -33 vhcurveto
          -40 -23 rlineto
          -125 43 71 -186 145 45 callgsubr
          197 hlineto
          -123 44 70 -158 135 159 callgsubr
        </CharString>
        <CharString name="dvJ_JHA">
          667 1058 327 rmoveto
          -47 -34 -39 -12 -42 -57 -42 21 -40 54 callgsubr
          167 hlineto
          5 callgsubr
          -1303 -98 callgsubr
          840 -96 -152 hlineto
          -57 -46 -26 -42 -18 hvcurveto
          -302 -96 callsubr
          202 hlineto
          -79 13 75 -69 56 29 callgsubr
        </CharString>
        <CharString name="dvJ_J_NYA">
          608 1185 -4 callsubr
          -1245 -98 callgsubr
          1019 -164 -754 -96 callsubr
          394 hlineto
          38 -41 33 -45 -50 vvcurveto
          -61 -37 -35 -60 -30 -25 12 12 -15 vhcurveto
          47 -21 -30 95 -30 hhcurveto
          -25 -16 -19 -26 -32 39 -48 50 -45 hvcurveto
          103 -209 47 30 -79 136 rlineto
          -6 18 18 -3 21 hhcurveto
          79 48 58 67 61 -29 57 -50 45 hvcurveto
          219 -338 hlineto
          72 90 callgsubr
        </CharString>
        <CharString name="dvJ_J_VA">
          998 1575 -4 callsubr
          -1635 -98 callgsubr
          1410 -286 hlineto
          -100 callgsubr
          -64 -62 -37 -65 -27 hvcurveto
          8 -41 -75 15 -24 hhcurveto
          -162 16 callgsubr
          123 hlineto
          7 35 -2 -2 31 hvcurveto
          -1 -9 -1 -9 -10 -52 callsubr
        </CharString>
        <CharString name="dvJ_J_YA">
          1037 1430 301 42 callgsubr
          -1675 -98 callgsubr
          1164 hlineto
          -86 callsubr
          0 vlineto
          25 -31 -48 24 -70 hhcurveto
          -175 16 callgsubr
          116 hlineto
          42 32 -15 -16 23 hvcurveto
          -84 17 115 -106 96 -103 callsubr
        </CharString>
        <CharString name="dvJ_KA">
          707 1324 57 callsubr
          -1344 -98 callgsubr
          854 -304 hlineto
          -102 callgsubr
          -22 62 rlineto
          10 -23 -24 4 -24 hhcurveto
          -49 -47 -21 -37 -28 hvcurveto
          -292 -96 callsubr
          172 hlineto
          -7 -1 -7 -8 vvcurveto
          105 callgsubr
          vhcurveto
          -6 -167 72 -48 rlineto
          -94 callgsubr
          endchar
        </CharString>
        <CharString name="dvJ_MA">
          515 907 15 callsubr
          5 callgsubr
          -1152 -98 callgsubr
          628 -254 hlineto
          29 -20 -56 61 -112 hhcurveto
          -175 -96 callsubr
          116 hlineto
          46 34 -17 -18 22 hvcurveto
          -12 -6 -7 -10 -16 vvcurveto
          242 callsubr
          vhcurveto
          -58 callgsubr
        </CharString>
        <CharString name="dvJ_NA">
          246 638 hmoveto
          72 -48 181 callgsubr
          -883 -98 callgsubr
          658 hlineto
          1 -236 rlineto
          47 -45 -71 49 -99 hhcurveto
          -184 hlineto
          -7 -10 rlineto
          52 -52 69 -63 -69 vvcurveto
          -57 -35 -32 -55 -106 -56 170 101 -33 vhcurveto
          -39 -23 rlineto
          -124 42 71 -186 145 hhcurveto
          79 44 269 callsubr
          98 80 -36 -53 31 hvcurveto
          -242 -229 rlineto
          -14 -12 -11 -11 -15 vvcurveto
          -45 79 -19 42 25 22 164 callsubr
          -39 42 -5 7 150 162 rcurveline
          endchar
        </CharString>
        <CharString name="dvJ_NY">
          -94 565 403 rmoveto
          -334 -6 callgsubr
          281 hlineto
          -83 228 277 callgsubr
          -543 -98 callgsubr
          endchar
        </CharString>
        <CharString name="dvJ_NYA">
          153 616 165 callsubr
          -790 -98 callgsubr
          564 -164 -313 -6 callgsubr
          219 -338 hlineto
          endchar
        </CharString>
        <CharString name="dvJ_NY_YA">
          500 893 301 42 callgsubr
          -1138 -98 callgsubr
          627 135 callsubr
          -104 -55 vhcurveto
          18 -29 -51 20 -79 hhcurveto
          -162 -6 callgsubr
          93 hlineto
          41 31 -10 -12 23 hvcurveto
          -84 10 119 -115 100 -103 callsubr
        </CharString>
        <CharString name="dvJ_R">
          -76 501 -4 callsubr
          -562 -98 callgsubr
          563 hlineto
          -298 -140 39 callgsubr
        </CharString>
        <CharString name="dvJ_RA">
          10 callsubr
          endchar
        </CharString>
        <CharString name="dvJ_TA">
          468 1045 -4 callsubr
          -1105 -98 callgsubr
          881 -169 -616 -51 callgsubr
          171 101 -34 vhcurveto
          -39 -23 rlineto
          -125 42 71 108 callgsubr
          78 122 callsubr
          57 -50 43 hvcurveto
          213 hlineto
          -14 -22 -7 -26 -31 -39 callsubr
        </CharString>
        <CharString name="dvJ_TTA">
          433 895 376 68 callsubr
          -1069 -98 callgsubr
          843 198 callsubr
          -51 -41 -14 -23 -29 hvcurveto
          -351 -96 callsubr
          208 hlineto
          -10 -23 -5 -26 -27 -19 callsubr
        </CharString>
        <CharString name="dvJ_VA">
          495 1072 -4 callsubr
          -1132 -98 callgsubr
          907 -286 hlineto
          -100 callgsubr
          -56 -54 -29 -50 -31 hvcurveto
          -310 -96 callsubr
          192 hlineto
          -1 -10 -1 -11 -11 -52 callsubr
        </CharString>
        <CharString name="dvJ_YA">
          533 925 301 42 callgsubr
          -1170 -98 callgsubr
          659 hlineto
          107 callsubr
          -24 -30 -119 -61 vhcurveto
          24 -31 -48 23 -68 hhcurveto
          -175 -96 callsubr
          116 hlineto
          38 30 -12 -14 22 hvcurveto
          -84 14 117 -111 98 -103 callsubr
        </CharString>
        <CharString name="dvJx">
          -70 32 -12 -63 callsubr
          460 523 277 callgsubr
          -567 -98 callgsubr
          579 -164 rmoveto
          -314 -96 callsubr
          260 hlineto
          endchar
        </CharString>
        <CharString name="dvJxA">
          165 625 165 callsubr
          -799 -98 callgsubr
          573 -164 -309 hlineto
          18 callgsubr
          -475 -57 -63 callsubr
          endchar
        </CharString>
        <CharString name="dvJx_JxA">
          654 138 -61 -63 callsubr
          397 -57 32 callsubr
          585 633 rmoveto
          -1291 -98 callgsubr
          1065 160 callsubr
          -1 -1 -3 12 rlineto
          -317 -96 callsubr
          197 hlineto
          -123 44 70 -158 135 159 callgsubr
        </CharString>
        <CharString name="dvJx_R">
          -76 501 -4 callsubr
          -562 -98 callgsubr
          563 hlineto
          -488 -568 -63 callsubr
          135 372 39 callgsubr
        </CharString>
        <CharString name="dvJx_RA">
          10 callsubr
          -618 -274 -63 callsubr
          endchar
        </CharString>
        <CharString name="dvJx_YA">
          532 122 -60 32 callsubr
          746 305 42 callgsubr
          -1169 -98 callgsubr
          658 hlineto
          107 callsubr
          -24 -30 -119 -61 vhcurveto
          24 -31 -47 23 -68 hhcurveto
          -175 -96 callsubr
          116 hlineto
          38 29 -12 -14 22 hvcurveto
          -84 13 118 -111 98 -103 callsubr
        </CharString>
        <CharString name="dvK">
          58 721 348 rmoveto
          61 -36 -61 49 -68 hhcurveto
          -82 callgsubr
          232 -26 callgsubr
          -695 -107 callgsubr
          67 34 43 42 62 hhcurveto
          49 37 -34 -41 24 hvcurveto
          endchar
        </CharString>
        <CharString name="dvKA">
          244 443 -12 callsubr
          endchar
        </CharString>
        <CharString name="dvKH">
          -11 callgsubr
          endchar
        </CharString>
        <CharString name="dvKHA">
          238 42 -14 callgsubr
          endchar
        </CharString>
        <CharString name="dvKH_KHA">
          832 1194 176 rmoveto
          -79 -8 -109 31 94 vvcurveto
          66 47 35 49 68 58 -50 -69 -47 -20 -38 -14 -14 vhcurveto
          -346 391 rmoveto
          376 hlineto
          144 callsubr
          -60 hhcurveto
          -79 -57 275 callgsubr
          -51 -40 -54 -32 -79 hhcurveto
          -106 -95 89 70 -43 hvcurveto
          67 7 36 44 54 vvcurveto
          -595 250 rmoveto
          525 -230 hlineto
          -37 -19 -15 -28 -34 -17 18 20 -14 vhcurveto
          -9 20 -12 20 -17 17 rrcurveto
          43 -36 -49 24 -58 -92 callgsubr
          347 -141 -68 callsubr
          809 451 rmoveto
          -1469 -83 callgsubr
          123 122 104 127 15 hvcurveto
          -115 76 100 -116 159 hhcurveto
          105 29 callsubr
          endchar
        </CharString>
        <CharString name="dvKH_MA">
          609 1000 15 callsubr
          -298 -257 rmoveto
          -18 hlineto
          -5 -4 0 -1 -4 hvcurveto
          -9 25 -14 25 -20 21 rrcurveto
          108 callsubr
          449 vlineto
          -102 -391 -68 callsubr
          586 451 rmoveto
          -1246 -83 callgsubr
          113 112 88 113 30 hvcurveto
          -27 24 30 -20 21 176 callsubr
        </CharString>
        <CharString name="dvKH_NA">
          238 854 57 callsubr
          -873 -76 callsubr
          203 -230 hlineto
          -37 -18 -15 -29 -22 -22 12 22 -21 vhcurveto
          -29 -27 79 -132 102 -152 169 -12 rlinecurve
          -122 -78 rlineto
          -19 -12 -9 -12 -15 vvcurveto
          -47 88 -27 38 21 16 7 15 2 vhcurveto
          9 -3 6 -4 6 vhcurveto
          -1 3 -2 2 -38 51 rrcurveto
          0 181 117 8 7 vhcurveto
          26 18 44 41 16 27 -6 -111 rcurveline
          198 callgsubr
          vlineto
          -215 -120 rmoveto
          -79 -56 -58 -74 -118 103 -60 115 -1 hvcurveto
          -51 -40 -54 -32 -78 hhcurveto
          -107 -95 89 70 -43 hvcurveto
          67 7 36 44 54 vvcurveto
          250 374 vlineto
          -1 -185 rlineto
          43 -36 -49 22 -57 hhcurveto
          116 -271 rmoveto
          33 callgsubr
          47 35 49 68 58 -52 -67 -45 -19 -38 -14 -16 vhcurveto
          endchar
        </CharString>
        <CharString name="dvKH_R">
          -15 callgsubr
          endchar
        </CharString>
        <CharString name="dvKH_RA">
          -29 callgsubr
          endchar
        </CharString>
        <CharString name="dvKH_SHA">
          721 600 176 -54 callgsubr
        </CharString>
        <CharString name="dvKH_TA">
          570 963 398 rmoveto
          -166 hlineto
          -66 -47 -21 -37 -26 hvcurveto
          -8 14 -10 14 -12 12 rrcurveto
          108 callsubr
          710 vlineto
          -363 -391 -68 callsubr
          547 451 rmoveto
          -1207 -83 callgsubr
          96 96 63 89 44 hvcurveto
          24 -65 40 -66 48 -62 35 25 rcurveline
          -66 callsubr
        </CharString>
        <CharString name="dvKH_VA">
          599 991 281 rmoveto
          -100 callgsubr
          -69 -67 -43 -74 -23 hvcurveto
          -4 5 -4 5 -5 5 rrcurveto
          108 callsubr
          738 vlineto
          -391 -391 -68 callsubr
          576 451 rmoveto
          -1236 -83 callgsubr
          113 111 87 111 30 hvcurveto
          -55 41 66 -37 63 hhcurveto
          -73 callsubr
        </CharString>
        <CharString name="dvKH_YA">
          616 1008 301 -107 callsubr
          -755 hmoveto
          469 hlineto
          201 callgsubr
          -31 -120 -61 vhcurveto
          -6 9 -6 8 -8 8 rrcurveto
          43 -36 -49 24 -58 -92 callgsubr
          347 -141 -68 callsubr
          593 451 rmoveto
          -1253 -83 callgsubr
          121 119 100 124 19 hvcurveto
          -54 47 70 -45 62 -103 callsubr
        </CharString>
        <CharString name="dvKHx">
          -11 callgsubr
          -523 -222 -63 callsubr
          endchar
        </CharString>
        <CharString name="dvKHxA">
          244 43 -14 callgsubr
          -541 -333 -63 callsubr
          endchar
        </CharString>
        <CharString name="dvKHx_MA">
          611 88 -61 266 callsubr
          -58 56 rlineto
          860 315 149 callgsubr
          -6 -5 0 -1 -5 hvcurveto
          -9 25 -14 25 -20 21 rrcurveto
          108 callsubr
          451 vlineto
          -104 -391 -68 callsubr
          588 451 rmoveto
          -1248 -83 callgsubr
          114 112 88 114 29 hvcurveto
          -27 25 31 -21 22 hhcurveto
          15 8 10 15 hvcurveto
          -58 callgsubr
        </CharString>
        <CharString name="dvKHx_R">
          -15 callgsubr
          -53 -240 -63 callsubr
          endchar
        </CharString>
        <CharString name="dvKHx_RA">
          -29 callgsubr
          -101 -268 -63 callsubr
          endchar
        </CharString>
        <CharString name="dvKHx_SA">
          694 105 -60 243 callgsubr
          926 341 rmoveto
          -32 -28 253 callsubr
          245 vlineto
          -315 -227 rmoveto
          4 callgsubr
          -22 -19 13 22 -22 vhcurveto
          -8 20 -13 19 -16 17 rrcurveto
          108 callsubr
          519 vlineto
          -172 -391 -68 callsubr
          671 451 rmoveto
          -1331 -83 callgsubr
          122 121 102 125 17 hvcurveto
          61 -85 69 -83 82 -100 -30 callsubr
          57 5 27 31 8 33 rrcurveto
          -41 51 59 -23 52 hhcurveto
          27 36 10 20 25 15 callgsubr
        </CharString>
        <CharString name="dvKHx_SHA">
          721 89 -62 -63 callsubr
          456 182 -54 callgsubr
        </CharString>
        <CharString name="dvKHx_TA">
          571 85 -62 -63 callsubr
          823 404 rmoveto
          -166 hlineto
          -66 -47 -21 -37 -26 hvcurveto
          -8 14 -10 14 -12 12 rrcurveto
          108 callsubr
          710 vlineto
          -363 -391 -68 callsubr
          547 451 rmoveto
          -1207 -83 callgsubr
          96 96 63 89 44 hvcurveto
          24 -65 40 -66 48 -62 35 25 rcurveline
          -66 callsubr
        </CharString>
        <CharString name="dvKHx_VA">
          599 82 -61 -63 callsubr
          854 286 rmoveto
          -100 callgsubr
          -69 -67 -43 -74 -23 hvcurveto
          -4 5 -4 5 -5 5 rrcurveto
          108 callsubr
          738 vlineto
          -391 -391 -68 callsubr
          576 451 rmoveto
          -1236 -83 callgsubr
          113 111 87 111 30 hvcurveto
          -55 41 66 -37 63 hhcurveto
          -73 callsubr
        </CharString>
        <CharString name="dvKHx_YA">
          616 81 -60 -63 callsubr
          872 305 -107 callsubr
          -755 hmoveto
          469 hlineto
          201 callgsubr
          -31 -120 -61 vhcurveto
          -6 9 -6 8 -8 8 rrcurveto
          43 -36 -49 24 -58 -92 callgsubr
          347 -141 -68 callsubr
          593 451 rmoveto
          -1253 -83 callgsubr
          121 119 100 124 19 hvcurveto
          -54 47 70 -45 62 -103 callsubr
        </CharString>
        <CharString name="dvK_CA">
          696 1088 272 rmoveto
          178 callsubr
          -391 hlineto
          -17 hlineto
          -45 -48 -11 -33 -29 hvcurveto
          8 6 167 6 vvcurveto
          645 hlineto
          5 callgsubr
          -1333 -107 callgsubr
          29 53 58 32 62 1 rrcurveto
          5 11 0 9 hhcurveto
          -1 6 vlineto
          1 0 hlineto
          151 3 106 callsubr
          -102 118 -96 92 77 51 42 54 44 vhcurveto
          177 callgsubr
        </CharString>
        <CharString name="dvK_DA">
          571 932 567 rmoveto
          -125 -105 vlineto
          -61 -46 -19 -31 -31 hvcurveto
          39 -36 -46 27 -51 hhcurveto
          -82 callgsubr
          561 -189 25 callgsubr
          -1208 -107 callgsubr
          67 34 43 42 62 hhcurveto
          32 27 -14 -22 21 hvcurveto
          -12 -24 -7 -28 -29 vvcurveto
          -67 36 -67 51 -46 vhcurveto
          -41 44 54 -27 56 hhcurveto
          35 35 12 17 29 hvcurveto
          -93 callsubr
          endchar
        </CharString>
        <CharString name="dvK_JA">
          774 1166 403 rmoveto
          -309 hlineto
          -7 -10 rlineto
          53 -51 68 -63 -69 vvcurveto
          -57 -35 -33 -55 -88 -54 119 97 -34 vhcurveto
          58 -29 -58 64 -70 hhcurveto
          -46 -40 -32 -36 -25 hvcurveto
          8 6 163 6 vvcurveto
          723 hlineto
          5 callgsubr
          -1411 -107 callgsubr
          67 34 35 42 62 hhcurveto
          46 31 -49 -39 19 hvcurveto
          -115 44 69 -131 123 hhcurveto
          78 44 56 67 58 -27 56 -50 69 callsubr
        </CharString>
        <CharString name="dvK_KA">
          860 988 263 rmoveto
          -102 callgsubr
          -22 62 rlineto
          10 -23 -24 4 -24 hhcurveto
          -52 -49 -23 -42 -27 hvcurveto
          37 -35 -45 25 -49 hhcurveto
          -82 callgsubr
          543 hlineto
          490 hmoveto
          -39 callgsubr
          -1496 -107 callgsubr
          67 34 43 42 62 hhcurveto
          34 28 -16 -24 22 hvcurveto
          -3 -11 -1 -11 -13 vvcurveto
          105 callgsubr
          vhcurveto
          -6 -167 72 -48 rlineto
          -94 callgsubr
          endchar
        </CharString>
        <CharString name="dvK_KHA">
          863 1225 -54 callsubr
          -69 250 rmoveto
          -230 vlineto
          -37 -19 -15 -29 -21 -20 11 20 -21 vhcurveto
          77 -49 -39 57 -72 hhcurveto
          -35 -40 -25 -36 -25 hvcurveto
          1 8 5 164 6 vvcurveto
          995 60 rmoveto
          -1498 -98 callgsubr
          391 -304 hlineto
          -102 callgsubr
          -21 62 rlineto
          10 -24 72 callsubr
          -79 -72 -53 -91 -109 109 -116 96 149 callsubr
          49 26 36 51 57 hhcurveto
          46 32 -51 -40 25 hvcurveto
          0 vlineto
          148 callgsubr
          endchar
        </CharString>
        <CharString name="dvK_LA">
          755 1146 394 rmoveto
          -41 callgsubr
          -44 -39 -16 -27 -28 hvcurveto
          44 -37 -50 31 -54 hhcurveto
          -82 callgsubr
          703 hlineto
          186 60 rmoveto
          -1392 -107 callgsubr
          67 34 43 42 62 hhcurveto
          36 29 -18 -25 22 hvcurveto
          -14 -24 -8 -29 -31 vvcurveto
          -42 callgsubr
          vhcurveto
          37 26 rlineto
          -98 callsubr
        </CharString>
        <CharString name="dvK_MA">
          637 1031 15 callsubr
          -299 hmoveto
          -251 vlineto
          62 -34 -59 80 -87 hhcurveto
          -45 -46 192 callgsubr
          773 60 rmoveto
          -1276 51 callsubr
          67 33 37 41 59 hhcurveto
          50 39 -42 -43 26 hvcurveto
          -16 -5 -9 -11 -18 vvcurveto
          242 callsubr
          vhcurveto
          -58 callgsubr
        </CharString>
        <CharString name="dvK_NA">
          244 370 251 rmoveto
          -35 -35 -66 -60 -43 hhcurveto
          -60 -57 -9 callsubr
          -23 hhcurveto
          -80 -72 -53 -91 -89 74 -98 80 -24 hvcurveto
          -82 -68 172 callgsubr
          80 -20 87 callgsubr
          227 callsubr
          7 rrcurveto
          0 152 131 16 15 vhcurveto
          -74 callsubr
          418 hlineto
          257 callsubr
          hlineto
          endchar
        </CharString>
        <CharString name="dvK_NNA">
          781 941 86 callgsubr
          -259 hmoveto
          -168 vlineto
          35 -35 -44 24 -47 hhcurveto
          -82 callgsubr
          915 60 rmoveto
          -1418 -107 callgsubr
          67 34 43 42 62 hhcurveto
          46 35 -30 -37 24 hvcurveto
          10 -39 22 -41 37 -32 rrcurveto
          14 callgsubr
          endchar
        </CharString>
        <CharString name="dvK_PA">
          577 969 -22 callgsubr
          -297 hmoveto
          -158 vlineto
          29 -33 -40 20 -43 hhcurveto
          -82 callgsubr
          711 60 rmoveto
          -1214 -107 callgsubr
          67 34 43 42 62 hhcurveto
          40 32 -22 -31 23 hvcurveto
          -88 23 99 -78 67 -10 callsubr
        </CharString>
</ttFont>
